<?xml version="1.0" standalone="no" ?>
<!DOCTYPE svg PUBLIC "-//W3C//DTD SVG 1.1//EN" "http://www.w3.org/Graphics/SVG/1.1/DTD/svg11.dtd">
<svg width="1052px" height="963px" viewBox="0 0 1052 963" style="background-color: #ffffff00" xmlns="http://www.w3.org/2000/svg" xmlns:xlink="http://www.w3.org/1999/xlink" version="1.1" >
<path stroke="none" fill="#bfbfbf" transform="matrix(0.1 0 0 0.1 2 -154)" d="M 4085.8,5165 A 172.8,172.8 0 1 0 4431.4,5165A 172.8,172.8 0 1 0 4085.8,5165Z " />
<path stroke="none" fill="#c2c2c2" transform="matrix(0.1 0 0 0.1 2 -154)" d="M 4087.8,5162.3 A 168.097,168.097 0 1 0 4424,5162.3A 168.097,168.097 0 1 0 4087.8,5162.3Z " />
<path stroke="none" fill="#c6c6c6" transform="matrix(0.1 0 0 0.1 2 -154)" d="M 4089.81,5159.6 A 163.394,163.394 0 1 0 4416.59,5159.6A 163.394,163.394 0 1 0 4089.81,5159.6Z " />
<path stroke="none" fill="#cacaca" transform="matrix(0.1 0 0 0.1 2 -154)" d="M 4091.81,5156.9 A 158.691,158.691 0 1 0 4409.19,5156.9A 158.691,158.691 0 1 0 4091.81,5156.9Z " />
<path stroke="none" fill="#cecece" transform="matrix(0.1 0 0 0.1 2 -154)" d="M 4093.81,5154.2 A 153.987,153.987 0 1 0 4401.79,5154.2A 153.987,153.987 0 1 0 4093.81,5154.2Z " />
<path stroke="none" fill="#d1d1d1" transform="matrix(0.1 0 0 0.1 2 -154)" d="M 4095.82,5151.5 A 149.284,149.284 0 1 0 4394.38,5151.5A 149.284,149.284 0 1 0 4095.82,5151.5Z " />
<path stroke="none" fill="#d4d4d4" transform="matrix(0.1 0 0 0.1 2 -154)" d="M 4097.82,5148.8 A 144.581,144.581 0 1 0 4386.98,5148.8A 144.581,144.581 0 1 0 4097.82,5148.8Z " />
<path stroke="none" fill="#d7d7d7" transform="matrix(0.1 0 0 0.1 2 -154)" d="M 4099.82,5146.1 A 139.878,139.878 0 1 0 4379.58,5146.1A 139.878,139.878 0 1 0 4099.82,5146.1Z " />
<path stroke="none" fill="#dbdbdb" transform="matrix(0.1 0 0 0.1 2 -154)" d="M 4101.82,5143.4 A 135.175,135.175 0 1 0 4372.17,5143.4A 135.175,135.175 0 1 0 4101.82,5143.4Z " />
<path stroke="none" fill="#dddddd" transform="matrix(0.1 0 0 0.1 2 -154)" d="M 4103.83,5140.7 A 130.472,130.472 0 1 0 4364.77,5140.7A 130.472,130.472 0 1 0 4103.83,5140.7Z " />
<path stroke="none" fill="#e0e0e0" transform="matrix(0.1 0 0 0.1 2 -154)" d="M 4105.83,5138 A 125.769,125.769 0 1 0 4357.37,5138A 125.769,125.769 0 1 0 4105.83,5138Z " />
<path stroke="none" fill="#e3e3e3" transform="matrix(0.1 0 0 0.1 2 -154)" d="M 4107.83,5135.3 A 121.066,121.066 0 1 0 4349.97,5135.3A 121.066,121.066 0 1 0 4107.83,5135.3Z " />
<path stroke="none" fill="#e6e6e6" transform="matrix(0.1 0 0 0.1 2 -154)" d="M 4109.84,5132.6 A 116.362,116.362 0 1 0 4342.56,5132.6A 116.362,116.362 0 1 0 4109.84,5132.6Z " />
<path stroke="none" fill="#e8e8e8" transform="matrix(0.1 0 0 0.1 2 -154)" d="M 4111.84,5129.9 A 111.659,111.659 0 1 0 4335.16,5129.9A 111.659,111.659 0 1 0 4111.84,5129.9Z " />
<path stroke="none" fill="#eaeaea" transform="matrix(0.1 0 0 0.1 2 -154)" d="M 4113.84,5127.2 A 106.956,106.956 0 1 0 4327.76,5127.2A 106.956,106.956 0 1 0 4113.84,5127.2Z " />
<path stroke="none" fill="#ececec" transform="matrix(0.1 0 0 0.1 2 -154)" d="M 4115.85,5124.5 A 102.253,102.253 0 1 0 4320.35,5124.5A 102.253,102.253 0 1 0 4115.85,5124.5Z " />
<path stroke="none" fill="#efefef" transform="matrix(0.1 0 0 0.1 2 -154)" d="M 4117.85,5121.8 A 97.55,97.55 0 1 0 4312.95,5121.8A 97.55,97.55 0 1 0 4117.85,5121.8Z " />
<path stroke="none" fill="#f0f0f0" transform="matrix(0.1 0 0 0.1 2 -154)" d="M 4119.85,5119.1 A 92.8469,92.8469 0 1 0 4305.55,5119.1A 92.8469,92.8469 0 1 0 4119.85,5119.1Z " />
<path stroke="none" fill="#f2f2f2" transform="matrix(0.1 0 0 0.1 2 -154)" d="M 4121.86,5116.4 A 88.1437,88.1437 0 1 0 4298.14,5116.4A 88.1437,88.1437 0 1 0 4121.86,5116.4Z " />
<path stroke="none" fill="#f4f4f4" transform="matrix(0.1 0 0 0.1 2 -154)" d="M 4123.86,5113.7 A 83.4406,83.4406 0 1 0 4290.74,5113.7A 83.4406,83.4406 0 1 0 4123.86,5113.7Z " />
<path stroke="none" fill="#f6f6f6" transform="matrix(0.1 0 0 0.1 2 -154)" d="M 4125.86,5111 A 78.7375,78.7375 0 1 0 4283.34,5111A 78.7375,78.7375 0 1 0 4125.86,5111Z " />
<path stroke="none" fill="#f7f7f7" transform="matrix(0.1 0 0 0.1 2 -154)" d="M 4127.87,5108.3 A 74.0344,74.0344 0 1 0 4275.93,5108.3A 74.0344,74.0344 0 1 0 4127.87,5108.3Z " />
<path stroke="none" fill="#f8f8f8" transform="matrix(0.1 0 0 0.1 2 -154)" d="M 4129.87,5105.6 A 69.3312,69.3312 0 1 0 4268.53,5105.6A 69.3312,69.3312 0 1 0 4129.87,5105.6Z " />
<path stroke="none" fill="#f9f9f9" transform="matrix(0.1 0 0 0.1 2 -154)" d="M 4131.87,5102.9 A 64.6281,64.6281 0 1 0 4261.13,5102.9A 64.6281,64.6281 0 1 0 4131.87,5102.9Z " />
<path stroke="none" fill="#fbfbfb" transform="matrix(0.1 0 0 0.1 2 -154)" d="M 4133.87,5100.2 A 59.925,59.925 0 1 0 4253.72,5100.2A 59.925,59.925 0 1 0 4133.87,5100.2Z " />
<path stroke="none" fill="#fbfbfb" transform="matrix(0.1 0 0 0.1 2 -154)" d="M 4135.88,5097.5 A 55.2219,55.2219 0 1 0 4246.32,5097.5A 55.2219,55.2219 0 1 0 4135.88,5097.5Z " />
<path stroke="none" fill="#fcfcfc" transform="matrix(0.1 0 0 0.1 2 -154)" d="M 4137.88,5094.8 A 50.5187,50.5187 0 1 0 4238.92,5094.8A 50.5187,50.5187 0 1 0 4137.88,5094.8Z " />
<path stroke="none" fill="#fdfdfd" transform="matrix(0.1 0 0 0.1 2 -154)" d="M 4139.88,5092.1 A 45.8156,45.8156 0 1 0 4231.52,5092.1A 45.8156,45.8156 0 1 0 4139.88,5092.1Z " />
<path stroke="none" fill="#fefefe" transform="matrix(0.1 0 0 0.1 2 -154)" d="M 4141.89,5089.4 A 41.1125,41.1125 0 1 0 4224.11,5089.4A 41.1125,41.1125 0 1 0 4141.89,5089.4Z " />
<path stroke="none" fill="#fefefe" transform="matrix(0.1 0 0 0.1 2 -154)" d="M 4143.89,5086.7 A 36.4094,36.4094 0 1 0 4216.71,5086.7A 36.4094,36.4094 0 1 0 4143.89,5086.7Z " />
<path stroke="none" fill="#fefefe" transform="matrix(0.1 0 0 0.1 2 -154)" d="M 4145.89,5084 A 31.7062,31.7062 0 1 0 4209.31,5084A 31.7062,31.7062 0 1 0 4145.89,5084Z " />
<path stroke="none" fill="#fefefe" transform="matrix(0.1 0 0 0.1 2 -154)" d="M 4147.9,5081.3 A 27.0031,27.0031 0 1 0 4201.9,5081.3A 27.0031,27.0031 0 1 0 4147.9,5081.3Z " />
<path stroke="#bfbfbf" stroke-width="12" fill="none" transform="matrix(0.1 0 0 0.1 2 -154)" d="M 4085.8,5165 A 172.8,172.8 0 1 0 4431.4,5165A 172.8,172.8 0 1 0 4085.8,5165Z " />
<text x="0" y="0" stroke="none" fill="#000000" transform="matrix(0.1 0 0 0.1 4.79999 22.14)" font-style="normal" font-weight="normal" font-size="200px" font-family="Arial" >
a) </text>
<text x="0" y="0" stroke="none" fill="#000000" transform="matrix(0.1 0 0 0.1 28.1398 22.14)" font-style="normal" font-weight="normal" font-size="200px" font-family="Arial" >
Site-selective </text>
<text x="0" y="0" stroke="none" fill="#000000" transform="matrix(0.1 0 0 0.1 152.632 22.14)" font-style="normal" font-weight="normal" font-size="200px" font-family="Arial" >
C-H </text>
<text x="0" y="0" stroke="none" fill="#000000" transform="matrix(0.1 0 0 0.1 193.736 22.14)" font-style="normal" font-weight="normal" font-size="200px" font-family="Arial" >
functionalization </text>
<text x="0" y="0" stroke="none" fill="#000000" transform="matrix(0.1 0 0 0.1 342.72 22.14)" font-style="normal" font-weight="normal" font-size="200px" font-family="Arial" >
of </text>
<text x="0" y="0" stroke="none" fill="#000000" transform="matrix(0.1 0 0 0.1 364.956 22.14)" font-style="normal" font-weight="normal" font-size="200px" font-family="Arial" >
allenes </text>
<text x="0" y="0" stroke="none" fill="#000000" transform="matrix(0.1 0 0 0.1 433.892 22.14)" font-style="normal" font-weight="normal" font-size="200px" font-family="Arial" >
(Previous </text>
<text x="0" y="0" stroke="none" fill="#000000" transform="matrix(0.1 0 0 0.1 523.921 22.14)" font-style="normal" font-weight="normal" font-size="200px" font-family="Arial" >
study)</text>
<text x="0" y="0" stroke="none" fill="#000000" transform="matrix(0.1 0 0 0.1 472.859 344.56)" font-style="normal" font-weight="normal" font-size="200px" font-family="Arial" >
•</text>
<path stroke="none" fill="#000000" transform="matrix(0.1 0 0 0.1 2 -154)" d="M 4439.62,4887.68 L 4439.62,4875.68 L 4687.79,4875.68 L 4687.79,4887.68 L 4439.62,4887.68 Z " />
<path stroke="none" fill="#000000" transform="matrix(0.1 0 0 0.1 2 -154)" d="M 4442.57,4939.52 L 4442.57,4927.52 L 4687.79,4927.52 L 4687.79,4939.52 L 4442.57,4939.52 Z " />
<path stroke="none" fill="#000000" transform="matrix(0.1 0 0 0.1 2 -154)" d="M 4800.39,4887.68 L 4800.39,4875.68 L 5046.57,4875.68 L 5046.57,4887.68 L 4800.39,4887.68 Z " />
<path stroke="none" fill="#000000" transform="matrix(0.1 0 0 0.1 2 -154)" d="M 4800.39,4939.52 L 4800.39,4927.52 L 5046.57,4927.52 L 5046.57,4939.52 L 4800.39,4939.52 Z " />
<text x="0" y="0" stroke="none" fill="#000000" transform="matrix(0.1 0 0 0.1 417.95 370.3)" font-style="normal" font-weight="normal" font-size="200px" font-family="Arial" >
Ar</text>
<path stroke="none" fill="#000000" transform="matrix(0.1 0 0 0.1 2 -154)" d="M 4427.79,4949.57 L 4438.51,4954.96 L 4434.62,4966.44 L 4420.89,4959.53 L 4427.79,4949.57 Z " />
<path stroke="none" fill="#000000" transform="matrix(0.1 0 0 0.1 2 -154)" d="M 4397.16,4993.81 L 4421.27,5005.93 L 4417.38,5017.4 L 4390.27,5003.77 L 4397.16,4993.81 Z " />
<path stroke="none" fill="#000000" transform="matrix(0.1 0 0 0.1 2 -154)" d="M 4366.54,5038.05 L 4404.02,5056.89 L 4400.14,5068.37 L 4359.65,5048.02 L 4366.54,5038.05 Z " />
<path stroke="none" fill="#000000" transform="matrix(0.1 0 0 0.1 2 -154)" d="M 4335.92,5082.29 L 4386.78,5107.86 L 4382.9,5119.34 L 4329.02,5092.26 L 4335.92,5082.29 Z " />
<text x="0" y="0" stroke="none" fill="#ff0000" transform="matrix(0.1 0 0 0.1 512.338 319.67)" font-style="normal" font-weight="bold" font-size="200px" font-family="Arial" >
CN</text>
<path stroke="none" fill="#000000" transform="matrix(0.1 0 0 0.1 2 -154)" d="M 5038.03,4906.96 L 5024.2,4907.12 L 5096.33,4735.19 L 5148.55,4765.34 L 5038.03,4906.96 Z " />
<path stroke="none" fill="#000000" transform="matrix(0.1 0 0 0.1 2 -154)" d="M 5024.2,4907.12 L 5038.03,4906.96 L 5179.14,5151.38 L 5172.03,5163.11 L 5024.2,4907.12 Z " />
<text x="0" y="0" stroke="none" fill="#000000" transform="matrix(0.1 0 0 0.1 538.338 362.79)" font-style="italic" font-weight="normal" font-size="150px" font-family="Arial" >
i</text>
<text x="0" y="0" stroke="none" fill="#000000" transform="matrix(0.1 0 0 0.1 541.67 370.64)" font-style="normal" font-weight="normal" font-size="200px" font-family="Arial" >
Pr</text>
<path stroke="none" fill="#000000" transform="matrix(0.1 0 0 0.1 2 -154)" d="M 5172.03,5163.11 L 5179.14,5151.38 L 5336.99,5157.39 L 5336.51,5169.38 L 5172.03,5163.11 Z " />
<text x="0" y="0" stroke="none" fill="#000000" transform="matrix(0.1 0 0 0.1 73.0674 104.62)" font-style="normal" font-weight="normal" font-size="200px" font-family="Arial" >
R&apos;</text>
<path stroke="none" fill="#000000" transform="matrix(0.1 0 0 0.1 2 -154)" d="M 885.905,2540.47 L 896.297,2534.47 L 1025.35,2757.64 L 1011.48,2757.65 L 885.905,2540.47 Z " />
<text x="0" y="0" stroke="none" fill="#000000" transform="matrix(0.1 0 0 0.1 129.119 129.56)" font-style="normal" font-weight="normal" font-size="200px" font-family="Arial" >
•</text>
<path stroke="none" fill="#000000" transform="matrix(0.1 0 0 0.1 2 -154)" d="M 1003.23,2737.68 L 1003.23,2725.68 L 1250.39,2725.68 L 1250.39,2737.68 L 1003.23,2737.68 Z " />
<path stroke="none" fill="#000000" transform="matrix(0.1 0 0 0.1 2 -154)" d="M 1003.23,2789.52 L 1003.23,2777.52 L 1250.39,2777.52 L 1250.39,2789.52 L 1003.23,2789.52 Z " />
<path stroke="none" fill="#000000" transform="matrix(0.1 0 0 0.1 2 -154)" d="M 1362.99,2737.68 L 1362.99,2725.68 L 1609.17,2725.68 L 1609.17,2737.68 L 1362.99,2737.68 Z " />
<path stroke="none" fill="#000000" transform="matrix(0.1 0 0 0.1 2 -154)" d="M 1362.99,2789.52 L 1362.99,2777.52 L 1609.17,2777.52 L 1609.17,2789.52 L 1362.99,2789.52 Z " />
<text x="0" y="0" stroke="none" fill="#000000" transform="matrix(0.1 0 0 0.1 69.2491 154.5)" font-style="normal" font-weight="normal" font-size="200px" font-family="Arial" >
R&apos;&apos;</text>
<path stroke="none" fill="#000000" transform="matrix(0.1 0 0 0.1 2 -154)" d="M 1011.48,2757.65 L 1025.35,2757.64 L 924.828,2931.31 L 914.436,2925.31 L 1011.48,2757.65 Z " />
<text x="0" y="0" stroke="none" fill="#0000ff" transform="matrix(0.1 0 0 0.1 168.598 104.67)" font-style="normal" font-weight="bold" font-size="200px" font-family="Arial" >
H</text>
<path stroke="none" fill="#000000" transform="matrix(0.1 0 0 0.1 2 -154)" d="M 1600.9,2757.48 L 1587.04,2757.5 L 1670.9,2612.76 L 1681.29,2618.76 L 1600.9,2757.48 Z " />
<path stroke="none" fill="#000000" transform="matrix(0.1 0 0 0.1 2 -154)" d="M 1587.04,2757.5 L 1600.9,2757.48 L 1741.62,3001.21 L 1738.2,3007 L 1731.48,3007.08 L 1587.04,2757.5 Z " />
<text x="0" y="0" stroke="none" fill="#000000" transform="matrix(0.1 0 0 0.1 154.198 179.44)" font-style="normal" font-weight="normal" font-size="200px" font-family="Arial" >
R</text>
<path stroke="none" fill="#000000" transform="matrix(0.1 0 0 0.1 2 -154)" d="M 1731.48,3007.08 L 1738.2,3007 L 1741.53,3012.8 L 1650.1,3171.58 L 1639.71,3165.58 L 1731.48,3007.08 Z " />
<text x="0" y="0" stroke="none" fill="#000000" transform="matrix(0.1 0 0 0.1 197.398 154.55)" font-style="normal" font-weight="bold" font-size="200px" font-family="Arial" >
H</text>
<path stroke="none" fill="#000000" transform="matrix(0.1 0 0 0.1 2 -154)" d="M 1741.53,3012.8 L 1738.2,3007 L 1741.62,3001.21 L 1937.18,3001 L 1937.18,3013 L 1741.53,3012.8 Z " />
<path stroke="none" fill="#000000" transform="matrix(0.1 0 0 0.1 2 -154)" d="M 4015.8,2805 L 2369,2805 L 2369,2793 L 4015.8,2793 Z " />
<path stroke="none" fill="#000000" transform="matrix(0.1 0 0 0.1 2 -154)" d="M 4119.8,2799 C 4119.8,2799 3999.8,2830 3999.8,2830 C 3999.8,2830 4014.8,2812.56 4014.8,2799 C 4014.8,2785 3999.8,2767 3999.8,2767 C 3999.8,2767 4119.8,2799 4119.8,2799 C 4119.8,2799 4119.8,2799 4119.8,2799 " />
<path stroke="#000000" stroke-width="1" fill="none" transform="matrix(0.1 0 0 0.1 2 -154)" d="M 4119.8,2799 C 4119.8,2799 3999.8,2830 3999.8,2830 C 3999.8,2830 4014.8,2812.56 4014.8,2799 C 4014.8,2785 3999.8,2767 3999.8,2767 C 3999.8,2767 4119.8,2799 4119.8,2799 C 4119.8,2799 4119.8,2799 4119.8,2799 " />
<text x="0" y="0" stroke="none" fill="#000000" transform="matrix(0.1 0 0 0.1 539.399 133.2)" font-style="normal" font-weight="normal" font-size="200px" font-family="Arial" >
•</text>
<path stroke="none" fill="#000000" transform="matrix(0.1 0 0 0.1 2 -154)" d="M 5106.03,2774.08 L 5106.03,2762.08 L 5353.19,2762.08 L 5353.19,2774.08 L 5106.03,2774.08 Z " />
<path stroke="none" fill="#000000" transform="matrix(0.1 0 0 0.1 2 -154)" d="M 5106.03,2825.92 L 5106.03,2813.92 L 5353.19,2813.92 L 5353.19,2825.92 L 5106.03,2825.92 Z " />
<path stroke="none" fill="#000000" transform="matrix(0.1 0 0 0.1 2 -154)" d="M 5465.79,2774.08 L 5465.79,2762.08 L 5697,2762.08 L 5697,2774.08 L 5465.79,2774.08 Z " />
<path stroke="none" fill="#000000" transform="matrix(0.1 0 0 0.1 2 -154)" d="M 5465.79,2825.92 L 5465.79,2813.92 L 5697,2813.92 L 5697,2825.92 L 5465.79,2825.92 Z " />
<path stroke="none" fill="#000000" transform="matrix(0.1 0 0 0.1 2 -154)" d="M 5697,2800 L 5697,2788 L 5981.75,2788.14 L 5985,2794 L 5981.73,2799.86 L 5697,2800 Z " />
<text x="0" y="0" stroke="none" fill="#000000" transform="matrix(0.1 0 0 0.1 607.678 108.31)" font-style="normal" font-weight="bold" font-size="200px" font-family="Arial" >
H</text>
<path stroke="none" fill="#000000" transform="matrix(0.1 0 0 0.1 2 -154)" d="M 5991.65,2793.98 L 5985,2794 L 5981.75,2788.14 L 6061.7,2649.16 L 6072.09,2655.16 L 5991.65,2793.98 Z " />
<text x="0" y="0" stroke="none" fill="#000000" transform="matrix(0.1 0 0 0.1 607.678 158.14)" font-style="normal" font-weight="normal" font-size="200px" font-family="Arial" >
R</text>
<path stroke="none" fill="#000000" transform="matrix(0.1 0 0 0.1 2 -154)" d="M 5981.73,2799.86 L 5985,2794 L 5991.65,2793.98 L 6077.03,2941.39 L 6066.64,2947.39 L 5981.73,2799.86 Z " />
<text x="0" y="0" stroke="none" fill="#000000" transform="matrix(0.1 0 0 0.1 483.347 108.26)" font-style="normal" font-weight="normal" font-size="200px" font-family="Arial" >
R&apos;</text>
<path stroke="none" fill="#000000" transform="matrix(0.1 0 0 0.1 2 -154)" d="M 5128.15,2794.04 L 5114.28,2794.05 L 4988.7,2576.87 L 4999.1,2570.87 L 5128.15,2794.04 Z " />
<text x="0" y="0" stroke="none" fill="#000000" transform="matrix(0.1 0 0 0.1 479.529 158.14)" font-style="normal" font-weight="normal" font-size="200px" font-family="Arial" >
R&apos;&apos;</text>
<path stroke="none" fill="#000000" transform="matrix(0.1 0 0 0.1 2 -154)" d="M 5114.28,2794.05 L 5128.15,2794.04 L 5027.63,2967.71 L 5017.24,2961.71 L 5114.28,2794.05 Z " />
<text x="0" y="0" stroke="none" fill="#000000" transform="matrix(0.1 0 0 0.1 711.138 119.9)" font-style="normal" font-weight="normal" font-size="200px" font-family="Arial" >
LCu</text>
<text x="0" y="0" stroke="none" fill="#000000" transform="matrix(0.1 0 0 0.1 747.828 112.1)" font-style="normal" font-weight="normal" font-size="150px" font-family="Arial" >
II</text>
<text x="0" y="0" stroke="none" fill="#000000" transform="matrix(0.1 0 0 0.1 756.163 119.9)" font-style="normal" font-weight="normal" font-size="200px" font-family="Arial" >
-</text>
<text x="0" y="0" stroke="none" fill="#ff0000" transform="matrix(0.1 0 0 0.1 762.823 119.9)" font-style="normal" font-weight="bold" font-size="200px" font-family="Arial" >
FG</text>
<text x="0" y="0" stroke="none" fill="#000000" transform="matrix(0.1 0 0 0.1 896.527 100.96)" font-style="normal" font-weight="normal" font-size="200px" font-family="Arial" >
R&apos;</text>
<path stroke="none" fill="#000000" transform="matrix(0.1 0 0 0.1 2 -154)" d="M 9120.5,2503.87 L 9130.9,2497.87 L 9259.95,2721.04 L 9246.08,2721.05 L 9120.5,2503.87 Z " />
<text x="0" y="0" stroke="none" fill="#000000" transform="matrix(0.1 0 0 0.1 952.579 125.9)" font-style="normal" font-weight="normal" font-size="200px" font-family="Arial" >
•</text>
<path stroke="none" fill="#000000" transform="matrix(0.1 0 0 0.1 2 -154)" d="M 9237.83,2701.08 L 9237.83,2689.08 L 9484.99,2689.08 L 9484.99,2701.08 L 9237.83,2701.08 Z " />
<path stroke="none" fill="#000000" transform="matrix(0.1 0 0 0.1 2 -154)" d="M 9237.83,2752.92 L 9237.83,2740.92 L 9484.99,2740.92 L 9484.99,2752.92 L 9237.83,2752.92 Z " />
<path stroke="none" fill="#000000" transform="matrix(0.1 0 0 0.1 2 -154)" d="M 9597.59,2701.08 L 9597.59,2689.08 L 9843.77,2689.08 L 9843.77,2701.08 L 9597.59,2701.08 Z " />
<path stroke="none" fill="#000000" transform="matrix(0.1 0 0 0.1 2 -154)" d="M 9597.59,2752.92 L 9597.59,2740.92 L 9843.77,2740.92 L 9843.77,2752.92 L 9597.59,2752.92 Z " />
<text x="0" y="0" stroke="none" fill="#000000" transform="matrix(0.1 0 0 0.1 892.709 150.84)" font-style="normal" font-weight="normal" font-size="200px" font-family="Arial" >
R&apos;&apos;</text>
<path stroke="none" fill="#000000" transform="matrix(0.1 0 0 0.1 2 -154)" d="M 9246.08,2721.05 L 9259.95,2721.04 L 9159.43,2894.71 L 9149.04,2888.71 L 9246.08,2721.05 Z " />
<text x="0" y="0" stroke="none" fill="#ff0000" transform="matrix(0.1 0 0 0.1 993.172 101.01)" font-style="normal" font-weight="bold" font-size="200px" font-family="Arial" >
FG</text>
<path stroke="none" fill="#000000" transform="matrix(0.1 0 0 0.1 2 -154)" d="M 9835.51,2720.89 L 9821.64,2720.9 L 9908.07,2571.72 L 9918.46,2577.72 L 9835.51,2720.89 Z " />
<path stroke="none" fill="#000000" transform="matrix(0.1 0 0 0.1 2 -154)" d="M 9821.64,2720.9 L 9835.51,2720.89 L 9976.28,2964.69 L 9969.23,2976.51 L 9821.64,2720.9 Z " />
<text x="0" y="0" stroke="none" fill="#000000" transform="matrix(0.1 0 0 0.1 1020.84 151.58)" font-style="normal" font-weight="normal" font-size="200px" font-family="Arial" >
R</text>
<path stroke="none" fill="#000000" transform="matrix(0.1 0 0 0.1 2 -154)" d="M 9969.23,2976.51 L 9976.28,2964.69 L 10172.8,2969.54 L 10172.5,2981.54 L 9969.23,2976.51 Z " />
<text x="0" y="0" stroke="none" fill="#ff0000" transform="matrix(0.1 0 0 0.1 889.26 181.4)" font-style="normal" font-weight="bold" font-size="200px" font-family="Arial" >
FG </text>
<text x="0" y="0" stroke="none" fill="#ff0000" transform="matrix(0.1 0 0 0.1 922.59 181.4)" font-style="normal" font-weight="bold" font-size="200px" font-family="Arial" >
= </text>
<text x="0" y="0" stroke="none" fill="#ff0000" transform="matrix(0.1 0 0 0.1 939.826 181.4)" font-style="normal" font-weight="bold" font-size="200px" font-family="Arial" >
CN, </text>
<text x="0" y="0" stroke="none" fill="#ff0000" transform="matrix(0.1 0 0 0.1 979.826 181.4)" font-style="normal" font-weight="bold" font-size="200px" font-family="Arial" >
Ar, </text>
<text x="0" y="0" stroke="none" fill="#ff0000" transform="matrix(0.1 0 0 0.1 1013.17 181.4)" font-style="normal" font-weight="bold" font-size="200px" font-family="Arial" >
Ay</text>
<text x="0" y="0" stroke="none" fill="#000000" transform="matrix(0.1 0 0 0.1 6.29999 577.4)" font-style="normal" font-weight="normal" font-size="200px" font-family="Arial" >
b) </text>
<text x="0" y="0" stroke="none" fill="#000000" transform="matrix(0.1 0 0 0.1 29.6398 577.4)" font-style="normal" font-weight="normal" font-size="200px" font-family="Arial" >
Site- </text>
<text x="0" y="0" stroke="none" fill="#000000" transform="matrix(0.1 0 0 0.1 76.3195 577.4)" font-style="normal" font-weight="normal" font-size="200px" font-family="Arial" >
and </text>
<text x="0" y="0" stroke="none" fill="#000000" transform="matrix(0.1 0 0 0.1 115.245 577.4)" font-style="normal" font-weight="normal" font-size="200px" font-family="Arial" >
enantio-selective </text>
<text x="0" y="0" stroke="none" fill="#000000" transform="matrix(0.1 0 0 0.1 270.89 577.4)" font-style="normal" font-weight="normal" font-size="200px" font-family="Arial" >
cyanation </text>
<text x="0" y="0" stroke="none" fill="#000000" transform="matrix(0.1 0 0 0.1 362.062 577.4)" font-style="normal" font-weight="normal" font-size="200px" font-family="Arial" >
of </text>
<text x="0" y="0" stroke="none" fill="#000000" transform="matrix(0.1 0 0 0.1 384.298 577.4)" font-style="normal" font-weight="normal" font-size="200px" font-family="Arial" >
trisubstituted </text>
<text x="0" y="0" stroke="none" fill="#000000" transform="matrix(0.1 0 0 0.1 503.243 577.4)" font-style="normal" font-weight="normal" font-size="200px" font-family="Arial" >
allenes </text>
<text x="0" y="0" stroke="none" fill="#000000" transform="matrix(0.1 0 0 0.1 572.179 577.4)" font-style="normal" font-weight="normal" font-size="200px" font-family="Arial" >
(</text>
<text x="0" y="0" stroke="none" fill="#000000" transform="matrix(0.1 0 0 0.1 578.839 577.4)" font-style="italic" font-weight="normal" font-size="200px" font-family="Arial" >
this </text>
<text x="0" y="0" stroke="none" fill="#000000" transform="matrix(0.1 0 0 0.1 615.519 577.4)" font-style="italic" font-weight="normal" font-size="200px" font-family="Arial" >
work</text>
<text x="0" y="0" stroke="none" fill="#000000" transform="matrix(0.1 0 0 0.1 657.745 577.4)" font-style="normal" font-weight="normal" font-size="200px" font-family="Arial" >
)</text>
<text x="0" y="0" stroke="none" fill="#000000" transform="matrix(0.1 0 0 0.1 5.24744 647.88)" font-style="normal" font-weight="normal" font-size="200px" font-family="Arial" >
R&apos;</text>
<path stroke="none" fill="#000000" transform="matrix(0.1 0 0 0.1 2 -154)" d="M 207.705,7973.07 L 218.097,7967.07 L 347.137,8190.22 L 333.269,8190.23 L 207.705,7973.07 Z " />
<text x="0" y="0" stroke="none" fill="#000000" transform="matrix(0.1 0 0 0.1 61.299 672.82)" font-style="normal" font-weight="normal" font-size="200px" font-family="Arial" >
•</text>
<path stroke="none" fill="#000000" transform="matrix(0.1 0 0 0.1 2 -154)" d="M 325.034,8170.28 L 325.034,8158.28 L 572.19,8158.28 L 572.19,8170.28 L 325.034,8170.28 Z " />
<path stroke="none" fill="#000000" transform="matrix(0.1 0 0 0.1 2 -154)" d="M 325.034,8222.12 L 325.034,8210.12 L 572.19,8210.12 L 572.19,8222.12 L 325.034,8222.12 Z " />
<path stroke="none" fill="#000000" transform="matrix(0.1 0 0 0.1 2 -154)" d="M 684.79,8170.28 L 684.79,8158.28 L 930.966,8158.28 L 930.966,8170.28 L 684.79,8170.28 Z " />
<path stroke="none" fill="#000000" transform="matrix(0.1 0 0 0.1 2 -154)" d="M 684.79,8222.12 L 684.79,8210.12 L 930.966,8210.12 L 930.966,8222.12 L 684.79,8222.12 Z " />
<text x="0" y="0" stroke="none" fill="#000000" transform="matrix(0.1 0 0 0.1 4.93005 697.76)" font-style="normal" font-weight="normal" font-size="200px" font-family="Arial" >
Ar</text>
<path stroke="none" fill="#000000" transform="matrix(0.1 0 0 0.1 2 -154)" d="M 333.269,8190.23 L 347.137,8190.22 L 234.81,8384.38 L 224.418,8378.38 L 333.269,8190.23 Z " />
<text x="0" y="0" stroke="none" fill="#0000ff" transform="matrix(0.1 0 0 0.1 100.778 647.93)" font-style="normal" font-weight="bold" font-size="200px" font-family="Arial" >
H</text>
<path stroke="none" fill="#000000" transform="matrix(0.1 0 0 0.1 2 -154)" d="M 922.704,8190.08 L 908.835,8190.1 L 992.698,8045.36 L 1003.09,8051.36 L 922.704,8190.08 Z " />
<text x="0" y="0" stroke="none" fill="#000000" transform="matrix(0.1 0 0 0.1 568.087 638.2)" font-style="normal" font-weight="normal" font-size="200px" font-family="Arial" >
R&apos;</text>
<path stroke="none" fill="#000000" transform="matrix(0.1 0 0 0.1 2 -154)" d="M 5836.1,7876.27 L 5846.5,7870.27 L 5975.54,8093.42 L 5961.67,8093.43 L 5836.1,7876.27 Z " />
<text x="0" y="0" stroke="none" fill="#000000" transform="matrix(0.1 0 0 0.1 624.139 663.14)" font-style="normal" font-weight="normal" font-size="200px" font-family="Arial" >
•</text>
<path stroke="none" fill="#000000" transform="matrix(0.1 0 0 0.1 2 -154)" d="M 5953.43,8073.48 L 5953.43,8061.48 L 6200.59,8061.48 L 6200.59,8073.48 L 5953.43,8073.48 Z " />
<path stroke="none" fill="#000000" transform="matrix(0.1 0 0 0.1 2 -154)" d="M 5953.43,8125.32 L 5953.43,8113.32 L 6200.59,8113.32 L 6200.59,8125.32 L 5953.43,8125.32 Z " />
<path stroke="none" fill="#000000" transform="matrix(0.1 0 0 0.1 2 -154)" d="M 6313.19,8073.48 L 6313.19,8061.48 L 6559.37,8061.48 L 6559.37,8073.48 L 6313.19,8073.48 Z " />
<path stroke="none" fill="#000000" transform="matrix(0.1 0 0 0.1 2 -154)" d="M 6313.19,8125.32 L 6313.19,8113.32 L 6559.37,8113.32 L 6559.37,8125.32 L 6313.19,8125.32 Z " />
<text x="0" y="0" stroke="none" fill="#000000" transform="matrix(0.1 0 0 0.1 567.77 688.08)" font-style="normal" font-weight="normal" font-size="200px" font-family="Arial" >
Ar</text>
<path stroke="none" fill="#000000" transform="matrix(0.1 0 0 0.1 2 -154)" d="M 5961.67,8093.43 L 5975.54,8093.42 L 5863.21,8287.58 L 5852.82,8281.58 L 5961.67,8093.43 Z " />
<text x="0" y="0" stroke="none" fill="#ff0000" transform="matrix(0.1 0 0 0.1 663.618 638.25)" font-style="normal" font-weight="bold" font-size="200px" font-family="Arial" >
CN</text>
<path stroke="none" fill="#000000" transform="matrix(0.1 0 0 0.1 2 -154)" d="M 6574.59,8053.11 L 6564.2,8047.11 L 6568.29,8035.62 L 6582.5,8043.82 L 6574.59,8053.11 Z " />
<path stroke="none" fill="#000000" transform="matrix(0.1 0 0 0.1 2 -154)" d="M 6614.02,8006.77 L 6584.62,7989.8 L 6588.71,7978.3 L 6621.92,7997.48 L 6614.02,8006.77 Z " />
<path stroke="none" fill="#000000" transform="matrix(0.1 0 0 0.1 2 -154)" d="M 6653.45,7960.43 L 6605.04,7932.48 L 6609.13,7920.99 L 6661.35,7951.14 L 6653.45,7960.43 Z " />
<path stroke="none" fill="#000000" transform="matrix(0.1 0 0 0.1 2 -154)" d="M 6539.2,8096.4 L 6549.6,8090.4 L 6722.87,8338.75 L 6659.25,8350.65 L 6539.2,8096.4 Z " />
<text x="0" y="0" stroke="none" fill="#000000" transform="matrix(0.1 0 0 0.1 523.04 734.64)" font-style="normal" font-weight="normal" font-size="200px" font-family="Arial" >
up </text>
<text x="0" y="0" stroke="none" fill="#000000" transform="matrix(0.1 0 0 0.1 550.843 734.64)" font-style="normal" font-weight="normal" font-size="200px" font-family="Arial" >
to </text>
<text x="0" y="0" stroke="none" fill="#000000" transform="matrix(0.1 0 0 0.1 573.079 734.64)" font-style="normal" font-weight="normal" font-size="200px" font-family="Arial" >
97% </text>
<text x="0" y="0" stroke="none" fill="#000000" transform="matrix(0.1 0 0 0.1 618.665 734.64)" font-style="normal" font-weight="normal" font-size="200px" font-family="Arial" >
yield, </text>
<text x="0" y="0" stroke="none" fill="#000000" transform="matrix(0.1 0 0 0.1 670.911 734.64)" font-style="normal" font-weight="normal" font-size="200px" font-family="Arial" >
91% </text>
<text x="0" y="0" stroke="none" fill="#000000" transform="matrix(0.1 0 0 0.1 716.497 734.64)" font-style="normal" font-weight="normal" font-size="200px" font-family="Arial" >
ee</text>
<path stroke="none" fill="#000000" transform="matrix(0.1 0 0 0.1 2 -154)" d="M 908.835,8190.1 L 922.704,8190.08 L 1063.42,8433.81 L 1060,8439.6 L 1053.28,8439.68 L 908.835,8190.1 Z " />
<path stroke="none" fill="#ffffff" transform="matrix(0.1 0 0 0.1 2 -154)" d="M 5691.2,2746.6 C 5649.29,2746.6 5613.09,2609.82 5613.09,2567.58 C 5613.09,2515.95 5624.15,2478.4 5691.2,2478.4 C 5758.25,2478.4 5769.31,2515.95 5769.31,2567.58 C 5769.31,2609.82 5733.11,2746.6 5691.2,2746.6 " />
<path stroke="#ffffff" stroke-width="1" fill="none" transform="matrix(0.1 0 0 0.1 2 -154)" d="M 5691.2,2746.6 C 5649.29,2746.6 5613.09,2609.82 5613.09,2567.58 C 5613.09,2515.95 5624.15,2478.4 5691.2,2478.4 C 5758.25,2478.4 5769.31,2515.95 5769.31,2567.58 C 5769.31,2609.82 5733.11,2746.6 5691.2,2746.6 " />
<path stroke="#ff0000" stroke-width="12" fill="none" transform="matrix(0.1 0 0 0.1 2 -154)" d="M 5691.2,2746.6 C 5649.29,2746.6 5613.09,2609.82 5613.09,2567.58 C 5613.09,2515.95 5624.15,2478.4 5691.2,2478.4 C 5758.25,2478.4 5769.31,2515.95 5769.31,2567.58 C 5769.31,2609.82 5733.11,2746.6 5691.2,2746.6 " />
<path stroke="none" fill="#ff0000" transform="matrix(0.1 0 0 0.1 2 -154)" d="M 5677.91,2605.8 A 25.8889,25.8889 0 1 0 5729.69,2605.8A 25.8889,25.8889 0 1 0 5677.91,2605.8Z " />
<text x="0" y="0" stroke="none" fill="#000000" transform="matrix(0.1 0 0 0.1 245.86 113.9)" font-style="normal" font-weight="normal" font-size="200px" font-family="Arial" >
Cu(II)-bound </text>
<text x="0" y="0" stroke="none" fill="#000000" transform="matrix(0.1 0 0 0.1 363.692 113.9)" font-style="normal" font-weight="normal" font-size="200px" font-family="Arial" >
NCR</text>
<path stroke="none" fill="#000000" transform="matrix(0.1 0 0 0.1 2 -154)" d="M 8185,2850 L 6807.6,2850 L 6807.6,2838 L 8185,2838 Z " />
<path stroke="none" fill="#000000" transform="matrix(0.1 0 0 0.1 2 -154)" d="M 8289,2844 C 8289,2844 8169,2875 8169,2875 C 8169,2875 8184,2857.56 8184,2844 C 8184,2830 8169,2812 8169,2812 C 8169,2812 8289,2844 8289,2844 C 8289,2844 8289,2844 8289,2844 " />
<path stroke="#000000" stroke-width="1" fill="none" transform="matrix(0.1 0 0 0.1 2 -154)" d="M 8289,2844 C 8289,2844 8169,2875 8169,2875 C 8169,2875 8184,2857.56 8184,2844 C 8184,2830 8169,2812 8169,2812 C 8169,2812 8289,2844 8289,2844 C 8289,2844 8289,2844 8289,2844 " />
<text x="0" y="0" stroke="none" fill="#000000" transform="matrix(0.1 0 0 0.1 86.3783 722.7)" font-style="normal" font-weight="normal" font-size="200px" font-family="Arial" >
R</text>
<path stroke="none" fill="#000000" transform="matrix(0.1 0 0 0.1 2 -154)" d="M 1053.28,8439.68 L 1060,8439.6 L 1063.33,8445.4 L 971.904,8604.18 L 961.512,8598.18 L 1053.28,8439.68 Z " />
<text x="0" y="0" stroke="none" fill="#000000" transform="matrix(0.1 0 0 0.1 129.578 697.81)" font-style="normal" font-weight="bold" font-size="200px" font-family="Arial" >
H</text>
<path stroke="none" fill="#000000" transform="matrix(0.1 0 0 0.1 2 -154)" d="M 1063.33,8445.4 L 1060,8439.6 L 1063.42,8433.81 L 1258.98,8433.6 L 1258.98,8445.6 L 1063.33,8445.4 Z " />
<text x="0" y="0" stroke="none" fill="#000000" transform="matrix(0.1 0 0 0.1 692.418 687.98)" font-style="normal" font-weight="normal" font-size="200px" font-family="Arial" >
R</text>
<path stroke="none" fill="#000000" transform="matrix(0.1 0 0 0.1 2 -154)" d="M 6659.25,8350.65 L 6722.87,8338.75 L 6888.36,8336.11 L 6888.4,8348.11 L 6659.25,8350.65 Z " />
<text x="0" y="0" stroke="none" fill="#000000" transform="matrix(0.1 0 0 0.1 174.139 913.62)" font-style="normal" font-weight="normal" font-size="200px" font-family="Arial" >
•</text>
<path stroke="none" fill="#000000" transform="matrix(0.1 0 0 0.1 2 -154)" d="M 1453.43,10578.3 L 1453.43,10566.3 L 1700.59,10566.3 L 1700.59,10578.3 L 1453.43,10578.3 Z " />
<path stroke="none" fill="#000000" transform="matrix(0.1 0 0 0.1 2 -154)" d="M 1453.43,10630.1 L 1453.43,10618.1 L 1700.59,10618.1 L 1700.59,10630.1 L 1453.43,10630.1 Z " />
<path stroke="none" fill="#000000" transform="matrix(0.1 0 0 0.1 2 -154)" d="M 1813.19,10578.3 L 1813.19,10566.3 L 2044.4,10566.3 L 2044.4,10578.3 L 1813.19,10578.3 Z " />
<path stroke="none" fill="#000000" transform="matrix(0.1 0 0 0.1 2 -154)" d="M 1813.19,10630.1 L 1813.19,10618.1 L 2044.4,10618.1 L 2044.4,10630.1 L 1813.19,10630.1 Z " />
<path stroke="none" fill="#000000" transform="matrix(0.1 0 0 0.1 2 -154)" d="M 2044.4,10604.2 L 2044.4,10592.2 L 2329.15,10592.3 L 2332.4,10598.2 L 2329.13,10604.1 L 2044.4,10604.2 Z " />
<text x="0" y="0" stroke="none" fill="#000000" transform="matrix(0.1 0 0 0.1 242.418 888.73)" font-style="normal" font-weight="bold" font-size="200px" font-family="Arial" >
H</text>
<path stroke="none" fill="#000000" transform="matrix(0.1 0 0 0.1 2 -154)" d="M 2339.05,10598.2 L 2332.4,10598.2 L 2329.15,10592.3 L 2409.1,10453.4 L 2419.49,10459.4 L 2339.05,10598.2 Z " />
<text x="0" y="0" stroke="none" fill="#000000" transform="matrix(0.1 0 0 0.1 242.418 938.56)" font-style="normal" font-weight="normal" font-size="200px" font-family="Arial" >
R</text>
<path stroke="none" fill="#000000" transform="matrix(0.1 0 0 0.1 2 -154)" d="M 2329.13,10604.1 L 2332.4,10598.2 L 2339.05,10598.2 L 2424.43,10745.6 L 2414.04,10751.6 L 2329.13,10604.1 Z " />
<path stroke="none" fill="#ffffff" transform="matrix(0.1 0 0 0.1 2 -154)" d="M 2052,10538.2 C 2010.06,10538.2 1973.83,10401.3 1973.83,10359 C 1973.83,10307.4 1984.9,10269.8 2052,10269.8 C 2119.1,10269.8 2130.17,10307.4 2130.17,10359 C 2130.17,10401.3 2093.94,10538.2 2052,10538.2 " />
<path stroke="#ffffff" stroke-width="1" fill="none" transform="matrix(0.1 0 0 0.1 2 -154)" d="M 2052,10538.2 C 2010.06,10538.2 1973.83,10401.3 1973.83,10359 C 1973.83,10307.4 1984.9,10269.8 2052,10269.8 C 2119.1,10269.8 2130.17,10307.4 2130.17,10359 C 2130.17,10401.3 2093.94,10538.2 2052,10538.2 " />
<path stroke="#ff0000" stroke-width="12" fill="none" transform="matrix(0.1 0 0 0.1 2 -154)" d="M 2052,10538.2 C 2010.06,10538.2 1973.83,10401.3 1973.83,10359 C 1973.83,10307.4 1984.9,10269.8 2052,10269.8 C 2119.1,10269.8 2130.17,10307.4 2130.17,10359 C 2130.17,10401.3 2093.94,10538.2 2052,10538.2 " />
<path stroke="none" fill="#ff0000" transform="matrix(0.1 0 0 0.1 2 -154)" d="M 2027.33,10376.8 A 25.8667,25.8667 0 1 0 2079.07,10376.8A 25.8667,25.8667 0 1 0 2027.33,10376.8Z " />
<text x="0" y="0" stroke="none" fill="#000000" transform="matrix(0.1 0 0 0.1 118.087 888.68)" font-style="normal" font-weight="normal" font-size="200px" font-family="Arial" >
R&apos;</text>
<path stroke="none" fill="#000000" transform="matrix(0.1 0 0 0.1 2 -154)" d="M 1475.54,10598.2 L 1461.67,10598.2 L 1336.1,10381.1 L 1346.5,10375.1 L 1475.54,10598.2 Z " />
<text x="0" y="0" stroke="none" fill="#000000" transform="matrix(0.1 0 0 0.1 117.77 938.56)" font-style="normal" font-weight="normal" font-size="200px" font-family="Arial" >
Ar</text>
<path stroke="none" fill="#000000" transform="matrix(0.1 0 0 0.1 2 -154)" d="M 1461.67,10598.2 L 1475.54,10598.2 L 1363.21,10792.4 L 1352.82,10786.4 L 1461.67,10598.2 Z " />
<text x="0" y="0" stroke="none" fill="#000000" transform="matrix(0.1 0 0 0.1 223.358 826.14)" font-style="normal" font-weight="normal" font-size="200px" font-family="Arial" >
L*Cu(</text>
<text x="0" y="0" stroke="none" fill="#ff0000" transform="matrix(0.1 0 0 0.1 274.491 826.14)" font-style="normal" font-weight="bold" font-size="200px" font-family="Arial" >
CN</text>
<text x="0" y="0" stroke="none" fill="#000000" transform="matrix(0.1 0 0 0.1 303.378 826.14)" font-style="normal" font-weight="normal" font-size="200px" font-family="Arial" >
)</text>
<text x="0" y="0" stroke="none" fill="#000000" transform="matrix(0.1 0 0 0.1 310.038 830.54)" font-style="normal" font-weight="normal" font-size="150px" font-family="Arial" >
2</text>
<path stroke="#ff0000" stroke-width="12" fill="none" transform="matrix(0.1 0 0 0.1 2 -154)" d="M 2425.58,9968.2 C 2483.61,9934.11 2519.18,9865.9 2513.95,9798.73 " />
<path stroke="none" fill="#ff0000" transform="matrix(0.1 0 0 0.1 2 -154)" d="M 2342.21,9992.99 C 2342.21,9992.99 2419.58,9968.7 2419.58,9968.7 C 2428.94,9977.96 2444.58,9987.84 2444.58,9987.84 C 2444.58,9987.84 2342.21,9992.99 2342.21,9992.99 C 2342.21,9992.99 2342.21,9992.99 2342.21,9992.99 " />
<path stroke="#ff0000" stroke-width="1" fill="none" transform="matrix(0.1 0 0 0.1 2 -154)" d="M 2342.21,9992.99 C 2342.21,9992.99 2419.58,9968.7 2419.58,9968.7 C 2428.94,9977.96 2444.58,9987.84 2444.58,9987.84 C 2444.58,9987.84 2342.21,9992.99 2342.21,9992.99 C 2342.21,9992.99 2342.21,9992.99 2342.21,9992.99 " />
<path stroke="#ff0000" stroke-width="12" fill="none" transform="matrix(0.1 0 0 0.1 2 -154)" d="M 2235.1,10104.9 C 2177.21,10139.3 2141.92,10207.7 2147.45,10274.8 " />
<path stroke="none" fill="#ff0000" transform="matrix(0.1 0 0 0.1 2 -154)" d="M 2318.4,10079.7 C 2318.4,10079.7 2241.1,10104.4 2241.1,10104.4 C 2231.7,10095.2 2216.01,10085.4 2216.01,10085.4 C 2216.01,10085.4 2318.4,10079.7 2318.4,10079.7 C 2318.4,10079.7 2318.4,10079.7 2318.4,10079.7 " />
<path stroke="#ff0000" stroke-width="1" fill="none" transform="matrix(0.1 0 0 0.1 2 -154)" d="M 2318.4,10079.7 C 2318.4,10079.7 2241.1,10104.4 2241.1,10104.4 C 2231.7,10095.2 2216.01,10085.4 2216.01,10085.4 C 2216.01,10085.4 2318.4,10079.7 2318.4,10079.7 C 2318.4,10079.7 2318.4,10079.7 2318.4,10079.7 " />
<path stroke="#000000" stroke-width="12" fill="none" transform="matrix(0.1 0 0 0.1 2 -154)" stroke-dasharray="50" d="M 4115.2,11116.4 C 4115.2,11116.4 4115.2,9345.6 4115.2,9345.6 C 4115.2,9345.6 769.2,9345.6 769.2,9345.6 C 769.2,9345.6 769.2,11116.4 769.2,11116.4 C 769.2,11116.4 4115.2,11116.4 4115.2,11116.4 " />
<text x="0" y="0" stroke="none" fill="#000000" transform="matrix(0.1 0 0 0.1 307.892 884.14)" font-style="normal" font-weight="normal" font-size="200px" font-family="Arial" >
exclusive</text>
<text x="0" y="0" stroke="none" fill="#000000" transform="matrix(0.1 0 0 0.1 319.562 907.14)" font-style="normal" font-weight="normal" font-size="200px" font-family="Arial" >
radical</text>
<text x="0" y="0" stroke="none" fill="#000000" transform="matrix(0.1 0 0 0.1 306.212 930.14)" font-style="normal" font-weight="normal" font-size="200px" font-family="Arial" >
cyanation</text>
<text x="0" y="0" stroke="none" fill="#000000" transform="matrix(0.1 0 0 0.1 428.938 416)" font-style="normal" font-weight="normal" font-size="200px" font-family="Arial" >
Ar </text>
<text x="0" y="0" stroke="none" fill="#000000" transform="matrix(0.1 0 0 0.1 454.495 416)" font-style="normal" font-weight="normal" font-size="200px" font-family="Arial" >
= </text>
<text x="0" y="0" stroke="none" fill="#000000" transform="matrix(0.1 0 0 0.1 471.731 416)" font-style="normal" font-weight="normal" font-size="200px" font-family="Arial" >
4-F</text>
<text x="0" y="0" stroke="none" fill="#000000" transform="matrix(0.1 0 0 0.1 501.731 416)" font-style="normal" font-weight="normal" font-size="200px" font-family="Arial" >
C</text>
<text x="0" y="0" stroke="none" fill="#000000" transform="matrix(0.1 0 0 0.1 516.174 420.4)" font-style="normal" font-weight="normal" font-size="150px" font-family="Arial" >
6</text>
<text x="0" y="0" stroke="none" fill="#000000" transform="matrix(0.1 0 0 0.1 524.516 416)" font-style="normal" font-weight="normal" font-size="200px" font-family="Arial" >
H</text>
<text x="0" y="0" stroke="none" fill="#000000" transform="matrix(0.1 0 0 0.1 538.96 420.4)" font-style="normal" font-weight="normal" font-size="150px" font-family="Arial" >
4</text>
<text x="0" y="0" stroke="none" fill="#000000" transform="matrix(0.1 0 0 0.1 405.288 439)" font-style="normal" font-weight="normal" font-size="200px" font-family="Arial" >
68% </text>
<text x="0" y="0" stroke="none" fill="#000000" transform="matrix(0.1 0 0 0.1 450.874 439)" font-style="normal" font-weight="normal" font-size="200px" font-family="Arial" >
yield, </text>
<text x="0" y="0" stroke="none" fill="#000000" transform="matrix(0.1 0 0 0.1 503.12 439)" font-style="normal" font-weight="normal" font-size="200px" font-family="Arial" >
37% </text>
<text x="0" y="0" stroke="none" fill="#000000" transform="matrix(0.1 0 0 0.1 548.706 439)" font-style="normal" font-weight="normal" font-size="200px" font-family="Arial" >
ee</text>
<text x="0" y="0" stroke="none" fill="#000000" transform="matrix(0.1 0 0 0.1 315.88 513)" font-style="normal" font-weight="bold" font-size="200px" font-family="Arial" >
Challenges:</text>
<text x="0" y="0" stroke="none" fill="#000000" transform="matrix(0.1 0 0 0.1 429.239 513)" font-style="italic" font-weight="normal" font-size="200px" font-family="Arial" >
 </text>
<text x="0" y="0" stroke="none" fill="#000000" transform="matrix(0.1 0 0 0.1 434.796 513)" font-style="italic" font-weight="normal" font-size="200px" font-family="Arial" >
Enantioselective </text>
<text x="0" y="0" stroke="none" fill="#000000" transform="matrix(0.1 0 0 0.1 585.997 513)" font-style="italic" font-weight="normal" font-size="200px" font-family="Arial" >
control </text>
<text x="0" y="0" stroke="none" fill="#000000" transform="matrix(0.1 0 0 0.1 651.583 513)" font-style="italic" font-weight="normal" font-size="200px" font-family="Arial" >
with </text>
<text x="0" y="0" stroke="none" fill="#000000" transform="matrix(0.1 0 0 0.1 692.706 513)" font-style="italic" font-weight="normal" font-size="200px" font-family="Arial" >
trisubstituted </text>
<text x="0" y="0" stroke="none" fill="#000000" transform="matrix(0.1 0 0 0.1 811.651 513)" font-style="italic" font-weight="normal" font-size="200px" font-family="Arial" >
allenes</text>
<path stroke="#000000" stroke-width="12" fill="none" transform="matrix(0.1 0 0 0.1 2 -154)" d="M 6283.35,2295 L 6356.4,2295 " />
<path stroke="#000000" stroke-width="12" fill="none" transform="matrix(0.1 0 0 0.1 2 -154)" d="M 6356.4,2295 L 6356.4,3300 " />
<path stroke="#000000" stroke-width="12" fill="none" transform="matrix(0.1 0 0 0.1 2 -154)" d="M 6356.4,3300 L 6283.35,3300 " />
<path stroke="#000000" stroke-width="12" fill="none" transform="matrix(0.1 0 0 0.1 2 -154)" d="M 4674.45,3285 L 4601.4,3285 " />
<path stroke="#000000" stroke-width="12" fill="none" transform="matrix(0.1 0 0 0.1 2 -154)" d="M 4601.4,3285 L 4601.4,2280 " />
<path stroke="#000000" stroke-width="12" fill="none" transform="matrix(0.1 0 0 0.1 2 -154)" d="M 4601.4,2280 L 4674.45,2280 " />
<path stroke="none" fill="#000000" transform="matrix(0.1 0 0 0.1 2 -154)" d="M 4925.6,8263.6 L 1807.8,8263.6 L 1807.8,8251.6 L 4925.6,8251.6 Z " />
<path stroke="none" fill="#000000" transform="matrix(0.1 0 0 0.1 2 -154)" d="M 5029.6,8257.6 C 5029.6,8257.6 4909.6,8288.6 4909.6,8288.6 C 4909.6,8288.6 4924.6,8271.16 4924.6,8257.6 C 4924.6,8243.6 4909.6,8225.6 4909.6,8225.6 C 4909.6,8225.6 5029.6,8257.6 5029.6,8257.6 C 5029.6,8257.6 5029.6,8257.6 5029.6,8257.6 " />
<path stroke="#000000" stroke-width="1" fill="none" transform="matrix(0.1 0 0 0.1 2 -154)" d="M 5029.6,8257.6 C 5029.6,8257.6 4909.6,8288.6 4909.6,8288.6 C 4909.6,8288.6 4924.6,8271.16 4924.6,8257.6 C 4924.6,8243.6 4909.6,8225.6 4909.6,8225.6 C 4909.6,8225.6 5029.6,8257.6 5029.6,8257.6 C 5029.6,8257.6 5029.6,8257.6 5029.6,8257.6 " />
<text x="0" y="0" stroke="none" fill="#000000" transform="matrix(0.1 0 0 0.1 297.18 636.6)" font-style="normal" font-weight="normal" font-size="200px" font-family="Arial" >
CuOAc/</text>
<text x="0" y="0" stroke="none" fill="#000000" transform="matrix(0.1 0 0 0.1 367.2 636.6)" font-style="normal" font-weight="bold" font-size="200px" font-family="Arial" >
L1</text>
<text x="0" y="0" stroke="none" fill="#000000" transform="matrix(0.1 0 0 0.1 277.752 660.1)" font-style="normal" font-weight="bold" font-size="200px" font-family="Arial" >
NF</text>
<text x="0" y="0" stroke="none" fill="#000000" transform="matrix(0.1 0 0 0.1 304.412 660.1)" font-style="normal" font-weight="bold" font-size="200px" font-family="Arial" >
-1</text>
<text x="0" y="0" stroke="none" fill="#000000" transform="matrix(0.1 0 0 0.1 322.195 660.1)" font-style="normal" font-weight="bold" font-size="200px" font-family="Arial" >
 </text>
<text x="0" y="0" stroke="none" fill="#000000" transform="matrix(0.1 0 0 0.1 327.752 660.1)" font-style="normal" font-weight="normal" font-size="200px" font-family="Arial" >
/ </text>
<text x="0" y="0" stroke="none" fill="#000000" transform="matrix(0.1 0 0 0.1 338.865 660.1)" font-style="normal" font-weight="normal" font-size="200px" font-family="Arial" >
TMS</text>
<text x="0" y="0" stroke="none" fill="#ff0000" transform="matrix(0.1 0 0 0.1 381.082 660.1)" font-style="normal" font-weight="bold" font-size="200px" font-family="Arial" >
CN</text>
<text x="0" y="0" stroke="none" fill="#000000" transform="matrix(0.1 0 0 0.1 208.113 694.75)" font-style="italic" font-weight="normal" font-size="150px" font-family="Arial" >
t</text>
<text x="0" y="0" stroke="none" fill="#000000" transform="matrix(0.1 0 0 0.1 212.28 702.6)" font-style="normal" font-weight="normal" font-size="200px" font-family="Arial" >
AmOH/Acetone/</text>
<text x="0" y="0" stroke="none" fill="#000000" transform="matrix(0.1 0 0 0.1 356.782 702.6)" font-style="normal" font-weight="normal" font-size="200px" font-family="Arial" >
PhCF</text>
<text x="0" y="0" stroke="none" fill="#000000" transform="matrix(0.1 0 0 0.1 407.905 707)" font-style="normal" font-weight="normal" font-size="150px" font-family="Arial" >
3</text>
<text x="0" y="0" stroke="none" fill="#000000" transform="matrix(0.1 0 0 0.1 416.248 702.6)" font-style="normal" font-weight="normal" font-size="200px" font-family="Arial" >
 </text>
<text x="0" y="0" stroke="none" fill="#000000" transform="matrix(0.1 0 0 0.1 421.804 702.6)" font-style="normal" font-weight="normal" font-size="200px" font-family="Arial" >
(1:1:1</text>
<text x="0" y="0" stroke="none" fill="#000000" transform="matrix(0.1 0 0 0.1 472.947 702.6)" font-style="normal" font-weight="normal" font-size="200px" font-family="Arial" >
)</text>
<text x="0" y="0" stroke="none" fill="#000000" transform="matrix(0.1 0 0 0.1 299.851 726.1)" font-style="normal" font-weight="normal" font-size="200px" font-family="Arial" >
Ar, </text>
<text x="0" y="0" stroke="none" fill="#000000" transform="matrix(0.1 0 0 0.1 330.964 726.1)" font-style="normal" font-weight="normal" font-size="200px" font-family="Arial" >
-40 </text>
<text x="0" y="0" stroke="none" fill="#000000" transform="matrix(0.1 0 0 0.1 365.427 726.1)" font-style="normal" font-weight="normal" font-size="200px" font-family="Arial" >
°C</text>
<path stroke="#000000" stroke-width="12" fill="none" transform="matrix(0.1 0 0 0.1 2 -154)" stroke-dasharray="50" d="M 7684,8947.6 L 7684,7612.4 " />
<text x="0" y="0" stroke="none" fill="#000000" transform="matrix(0.1 0 0 0.1 480.46 853.64)" font-style="normal" font-weight="normal" font-size="200px" font-family="Arial" >
Excellent </text>
<text x="0" y="0" stroke="none" fill="#000000" transform="matrix(0.1 0 0 0.1 567.169 853.64)" font-style="normal" font-weight="normal" font-size="200px" font-family="Arial" >
siteselective </text>
<text x="0" y="0" stroke="none" fill="#000000" transform="matrix(0.1 0 0 0.1 681.661 853.64)" font-style="normal" font-weight="normal" font-size="200px" font-family="Arial" >
HAA: </text>
<text x="0" y="0" stroke="none" fill="#000000" transform="matrix(0.1 0 0 0.1 733.897 853.64)" font-style="normal" font-weight="normal" font-size="200px" font-family="Arial" >
sp</text>
<text x="0" y="0" stroke="none" fill="#000000" transform="matrix(0.1 0 0 0.1 755.021 845.84)" font-style="normal" font-weight="normal" font-size="150px" font-family="Arial" >
2</text>
<text x="0" y="0" stroke="none" fill="#000000" transform="matrix(0.1 0 0 0.1 763.363 853.64)" font-style="normal" font-weight="normal" font-size="200px" font-family="Arial" >
 </text>
<text x="0" y="0" stroke="none" fill="#000000" transform="matrix(0.1 0 0 0.1 768.919 853.64)" font-style="normal" font-weight="normal" font-size="200px" font-family="Arial" >
C-H </text>
<text x="0" y="0" stroke="none" fill="#000000" transform="matrix(0.1 0 0 0.1 810.023 853.64)" font-style="normal" font-weight="normal" font-size="200px" font-family="Arial" >
&gt;&gt; </text>
<text x="0" y="0" stroke="none" fill="#000000" transform="matrix(0.1 0 0 0.1 838.939 853.64)" font-style="normal" font-weight="normal" font-size="200px" font-family="Arial" >
sp</text>
<text x="0" y="0" stroke="none" fill="#000000" transform="matrix(0.1 0 0 0.1 860.062 845.84)" font-style="normal" font-weight="normal" font-size="150px" font-family="Arial" >
3</text>
<text x="0" y="0" stroke="none" fill="#000000" transform="matrix(0.1 0 0 0.1 868.404 853.64)" font-style="normal" font-weight="normal" font-size="200px" font-family="Arial" >
 </text>
<text x="0" y="0" stroke="none" fill="#000000" transform="matrix(0.1 0 0 0.1 873.961 853.64)" font-style="normal" font-weight="normal" font-size="200px" font-family="Arial" >
C-H</text>
<text x="0" y="0" stroke="none" fill="#000000" transform="matrix(0.1 0 0 0.1 480.46 902.94)" font-style="normal" font-weight="normal" font-size="200px" font-family="Arial" >
Excellent </text>
<text x="0" y="0" stroke="none" fill="#000000" transform="matrix(0.1 0 0 0.1 567.169 902.94)" font-style="normal" font-weight="normal" font-size="200px" font-family="Arial" >
regio- </text>
<text x="0" y="0" stroke="none" fill="#000000" transform="matrix(0.1 0 0 0.1 623.858 902.94)" font-style="normal" font-weight="normal" font-size="200px" font-family="Arial" >
&amp; </text>
<text x="0" y="0" stroke="none" fill="#000000" transform="matrix(0.1 0 0 0.1 642.755 902.94)" font-style="normal" font-weight="normal" font-size="200px" font-family="Arial" >
enantioselectivity</text>
<text x="0" y="0" stroke="none" fill="#000000" transform="matrix(0.1 0 0 0.1 480.46 951.7)" font-style="normal" font-weight="normal" font-size="200px" font-family="Arial" >
Efficient </text>
<text x="0" y="0" stroke="none" fill="#000000" transform="matrix(0.1 0 0 0.1 557.159 951.7)" font-style="normal" font-weight="normal" font-size="200px" font-family="Arial" >
synthesis </text>
<text x="0" y="0" stroke="none" fill="#000000" transform="matrix(0.1 0 0 0.1 646.085 951.7)" font-style="normal" font-weight="normal" font-size="200px" font-family="Arial" >
of </text>
<text x="0" y="0" stroke="none" fill="#000000" transform="matrix(0.1 0 0 0.1 668.321 951.7)" font-style="normal" font-weight="normal" font-size="200px" font-family="Arial" >
chiral </text>
<text x="0" y="0" stroke="none" fill="#000000" transform="matrix(0.1 0 0 0.1 721.671 951.7)" font-style="normal" font-weight="normal" font-size="200px" font-family="Arial" >
tertrasubstituted </text>
<text x="0" y="0" stroke="none" fill="#000000" transform="matrix(0.1 0 0 0.1 870.636 951.7)" font-style="normal" font-weight="normal" font-size="200px" font-family="Arial" >
allenic </text>
<text x="0" y="0" stroke="none" fill="#000000" transform="matrix(0.1 0 0 0.1 932.892 951.7)" font-style="normal" font-weight="normal" font-size="200px" font-family="Arial" >
nitriles</text>
<text x="0" y="0" stroke="none" fill="#0000ff" transform="matrix(0.1 0 0 0.1 448.96 850.14)" font-style="normal" font-weight="normal" font-size="200px" font-family="Symbol" >
¨</text>
<text x="0" y="0" stroke="none" fill="#0000ff" transform="matrix(0.1 0 0 0.1 448.96 901.34)" font-style="normal" font-weight="normal" font-size="200px" font-family="Symbol" >
¨</text>
<text x="0" y="0" stroke="none" fill="#0000ff" transform="matrix(0.1 0 0 0.1 448.96 950.84)" font-style="normal" font-weight="normal" font-size="200px" font-family="Symbol" >
¨</text>
<text x="0" y="0" stroke="none" fill="#000000" transform="matrix(0.1 0 0 0.1 410.218 320.09)" font-style="normal" font-weight="bold" font-size="200px" font-family="Arial" >
Me</text>
<path stroke="none" fill="#000000" transform="matrix(0.1 0 0 0.1 2 -154)" d="M 4460.71,4904.45 L 4450.49,4910.75 L 4354.87,4755.67 L 4365.08,4749.37 L 4460.71,4904.45 Z " />
<path stroke="none" fill="#000000" transform="matrix(0.1 0 0 0.1 2 -154)" d="M 8942.55,4988.65 L 8937.2,4985 L 8936.68,4978.56 L 9106.66,4880.52 L 9114.4,4882.6 L 9114.4,4889.3 L 8942.55,4988.65 Z " />
<path stroke="none" fill="#000000" transform="matrix(0.1 0 0 0.1 2 -154)" d="M 9114.4,4889.3 L 9114.4,4882.6 L 9122.14,4880.52 L 9292.31,4978.56 L 9291.8,4985 L 9286.45,4988.65 L 9114.4,4889.3 Z " />
<text x="0" y="0" stroke="none" fill="#000000" transform="matrix(0.1 0 0 0.1 870.797 342.46)" font-style="normal" font-weight="normal" font-size="160px" font-family="Arial" >
O</text>
<text x="0" y="0" stroke="none" fill="#000000" transform="matrix(0.1 0 0 0.1 887.803 371.16)" font-style="normal" font-weight="normal" font-size="160px" font-family="Arial" >
N</text>
<path stroke="none" fill="#000000" transform="matrix(0.1 0 0 0.1 2 -154)" d="M 8936.68,4978.56 L 8937.2,4985 L 8931.2,4988.42 L 8830.87,4944.15 L 8835.75,4933.19 L 8936.68,4978.56 Z " />
<path stroke="none" fill="#000000" transform="matrix(0.1 0 0 0.1 2 -154)" d="M 8682.49,4967.85 L 8691.41,4975.88 L 8620.17,5054.34 L 8613.2,5053.8 L 8609.88,5048.77 L 8682.49,4967.85 Z " />
<path stroke="none" fill="#000000" transform="matrix(0.1 0 0 0.1 2 -154)" d="M 8609.99,5059.82 L 8613.2,5053.8 L 8620.17,5054.34 L 8718.4,5224.86 L 8715.4,5231.2 L 8708.58,5230.96 L 8609.99,5059.82 Z " />
<path stroke="none" fill="#000000" transform="matrix(0.1 0 0 0.1 2 -154)" d="M 8718.07,5236.61 L 8715.4,5231.2 L 8718.4,5224.86 L 8830.88,5200.52 L 8833.38,5212.26 L 8718.07,5236.61 Z " />
<path stroke="none" fill="#000000" transform="matrix(0.1 0 0 0.1 2 -154)" d="M 8930.31,5107.98 L 8918.37,5106.73 L 8931.2,4988.42 L 8937.2,4985 L 8942.55,4988.65 L 8930.31,5107.98 Z " />
<path stroke="none" fill="#000000" transform="matrix(0.1 0 0 0.1 2 -154)" d="M 8893.66,5104.13 L 8881.72,5102.88 L 8891.79,5007.13 L 8903.72,5008.38 L 8893.66,5104.13 Z " />
<text x="0" y="0" stroke="none" fill="#000000" transform="matrix(0.1 0 0 0.1 927.543 371.16)" font-style="normal" font-weight="normal" font-size="160px" font-family="Arial" >
N</text>
<text x="0" y="0" stroke="none" fill="#000000" transform="matrix(0.1 0 0 0.1 943.657 342.46)" font-style="normal" font-weight="normal" font-size="160px" font-family="Arial" >
O</text>
<path stroke="none" fill="#000000" transform="matrix(0.1 0 0 0.1 2 -154)" d="M 9286.45,4988.65 L 9291.8,4985 L 9297.8,4988.43 L 9310.63,5106.73 L 9298.69,5107.98 L 9286.45,4988.65 Z " />
<path stroke="none" fill="#000000" transform="matrix(0.1 0 0 0.1 2 -154)" d="M 9325.28,5008.38 L 9337.21,5007.13 L 9347.28,5102.88 L 9335.34,5104.13 L 9325.28,5008.38 Z " />
<path stroke="none" fill="#000000" transform="matrix(0.1 0 0 0.1 2 -154)" d="M 9395.1,5212.14 L 9397.6,5200.41 L 9510.6,5224.86 L 9516.67,5238.45 L 9395.1,5212.14 Z " />
<path stroke="none" fill="#000000" transform="matrix(0.1 0 0 0.1 2 -154)" d="M 9516.67,5238.45 L 9510.6,5224.86 L 9608.84,5054.33 L 9623.63,5052.79 L 9516.67,5238.45 Z " />
<path stroke="none" fill="#000000" transform="matrix(0.1 0 0 0.1 2 -154)" d="M 9623.63,5052.79 L 9608.84,5054.33 L 9538.18,4976.54 L 9547.1,4968.51 L 9623.63,5052.79 Z " />
<path stroke="none" fill="#000000" transform="matrix(0.1 0 0 0.1 2 -154)" d="M 9393.79,4932.94 L 9398.68,4943.9 L 9297.8,4988.43 L 9291.8,4985 L 9292.31,4978.56 L 9393.79,4932.94 Z " />
<path stroke="none" fill="#000000" transform="matrix(0.1 0 0 0.1 2 -154)" d="M 8609.88,5048.77 L 8613.2,5053.8 L 8609.99,5059.82 L 8413.65,5128.08 L 8408.17,5066.85 L 8609.88,5048.77 Z " />
<path stroke="none" fill="#000000" transform="matrix(0.1 0 0 0.1 2 -154)" d="M 8408.17,5066.85 L 8413.65,5128.08 L 8397.56,5296.45 L 8391.4,5300 L 8385.86,5296.8 L 8408.17,5066.85 Z " />
<path stroke="none" fill="#000000" transform="matrix(0.1 0 0 0.1 2 -154)" d="M 8392.1,5306.67 L 8391.4,5300 L 8397.56,5296.45 L 8551.41,5366.81 L 8578.4,5383.4 L 8572.98,5387.34 L 8392.1,5306.67 Z " />
<path stroke="none" fill="#000000" transform="matrix(0.1 0 0 0.1 2 -154)" d="M 8393.4,5347.82 L 8398.29,5336.86 L 8546.41,5402.92 L 8541.52,5413.88 L 8393.4,5347.82 Z " />
<path stroke="none" fill="#000000" transform="matrix(0.1 0 0 0.1 2 -154)" d="M 8586.39,5426.66 L 8578.4,5383.4 L 8551.41,5366.81 L 8708.58,5230.96 L 8715.4,5231.2 L 8718.07,5236.61 L 8586.39,5426.66 Z " />
<path stroke="none" fill="#000000" transform="matrix(0.1 0 0 0.1 2 -154)" d="M 9542.58,5272.37 L 9551.5,5264.34 L 9561.59,5271.41 L 9548.56,5283.14 L 9542.58,5272.37 Z " />
<path stroke="none" fill="#000000" transform="matrix(0.1 0 0 0.1 2 -154)" d="M 9588.77,5355.65 L 9629.48,5319.01 L 9639.56,5326.07 L 9594.75,5366.42 L 9588.77,5355.65 Z " />
<path stroke="none" fill="#000000" transform="matrix(0.1 0 0 0.1 2 -154)" d="M 9656.02,5387.34 L 9644.8,5379.19 L 9831.44,5296.45 L 9837.6,5300 L 9836.9,5306.67 L 9656.02,5387.34 Z " />
<path stroke="none" fill="#000000" transform="matrix(0.1 0 0 0.1 2 -154)" d="M 9687.48,5413.88 L 9682.59,5402.92 L 9830.71,5336.86 L 9835.6,5347.82 L 9687.48,5413.88 Z " />
<path stroke="none" fill="#000000" transform="matrix(0.1 0 0 0.1 2 -154)" d="M 9843.14,5296.8 L 9837.6,5300 L 9831.44,5296.45 L 9810.23,5097.03 L 9822.17,5095.77 L 9843.14,5296.8 Z " />
<path stroke="none" fill="#000000" transform="matrix(0.1 0 0 0.1 2 -154)" d="M 9773.55,5056.51 L 9761.01,5115.49 L 9749.85,5110.29 L 9761.24,5056.72 L 9773.55,5056.51 Z " />
<path stroke="none" fill="#000000" transform="matrix(0.1 0 0 0.1 2 -154)" d="M 9678.28,5058.12 L 9674.64,5075.27 L 9663.47,5070.07 L 9665.97,5058.33 L 9678.28,5058.12 Z " />
<path stroke="none" fill="#000000" transform="matrix(0.1 0 0 0.1 2 -154)" d="M 8385.86,5296.8 L 8391.4,5300 L 8392.1,5306.67 L 8231.92,5423.12 L 8219.25,5417.48 L 8385.86,5296.8 Z " />
<path stroke="none" fill="#000000" transform="matrix(0.1 0 0 0.1 2 -154)" d="M 8219.25,5417.48 L 8231.92,5423.12 L 8252.62,5620.06 L 8241.4,5628.21 L 8219.25,5417.48 Z " />
<path stroke="none" fill="#000000" transform="matrix(0.1 0 0 0.1 2 -154)" d="M 8258.7,5438.33 L 8270.64,5437.07 L 8287.59,5598.38 L 8275.66,5599.63 L 8258.7,5438.33 Z " />
<path stroke="none" fill="#000000" transform="matrix(0.1 0 0 0.1 2 -154)" d="M 8241.4,5628.21 L 8252.62,5620.06 L 8433.5,5700.73 L 8434.95,5714.53 L 8241.4,5628.21 Z " />
<path stroke="none" fill="#000000" transform="matrix(0.1 0 0 0.1 2 -154)" d="M 8434.95,5714.53 L 8433.5,5700.73 L 8593.68,5584.28 L 8606.35,5589.91 L 8434.95,5714.53 Z " />
<path stroke="none" fill="#000000" transform="matrix(0.1 0 0 0.1 2 -154)" d="M 8433.29,5669.92 L 8426.23,5660.21 L 8557.4,5564.85 L 8564.45,5574.55 L 8433.29,5669.92 Z " />
<path stroke="none" fill="#000000" transform="matrix(0.1 0 0 0.1 2 -154)" d="M 8606.35,5589.91 L 8593.68,5584.28 L 8572.98,5387.34 L 8578.4,5383.4 L 8586.39,5426.66 L 8606.35,5589.91 Z " />
<path stroke="none" fill="#000000" transform="matrix(0.1 0 0 0.1 2 -154)" d="M 9644.8,5379.19 L 9656.02,5387.34 L 9635.32,5584.28 L 9622.65,5589.91 L 9644.8,5379.19 Z " />
<path stroke="none" fill="#000000" transform="matrix(0.1 0 0 0.1 2 -154)" d="M 9622.65,5589.91 L 9635.32,5584.28 L 9795.5,5700.73 L 9794.05,5714.53 L 9622.65,5589.91 Z " />
<path stroke="none" fill="#000000" transform="matrix(0.1 0 0 0.1 2 -154)" d="M 9664.55,5574.55 L 9671.6,5564.85 L 9802.77,5660.21 L 9795.71,5669.92 L 9664.55,5574.55 Z " />
<path stroke="none" fill="#000000" transform="matrix(0.1 0 0 0.1 2 -154)" d="M 9794.05,5714.53 L 9795.5,5700.73 L 9976.38,5620.06 L 9987.6,5628.21 L 9794.05,5714.53 Z " />
<path stroke="none" fill="#000000" transform="matrix(0.1 0 0 0.1 2 -154)" d="M 9987.6,5628.21 L 9976.38,5620.06 L 9997.08,5423.12 L 10009.8,5417.48 L 9987.6,5628.21 Z " />
<path stroke="none" fill="#000000" transform="matrix(0.1 0 0 0.1 2 -154)" d="M 9953.34,5599.63 L 9941.41,5598.38 L 9958.36,5437.07 L 9970.3,5438.33 L 9953.34,5599.63 Z " />
<path stroke="none" fill="#000000" transform="matrix(0.1 0 0 0.1 2 -154)" d="M 10009.8,5417.48 L 9997.08,5423.12 L 9836.9,5306.67 L 9837.6,5300 L 9843.14,5296.8 L 10009.8,5417.48 Z " />
<path stroke="none" fill="#000000" transform="matrix(0.1 0 0 0.1 2 -154)" d="M 9122.14,4880.52 L 9114.4,4882.6 L 9114.4,4871.7 L 9212.9,4699.61 L 9220.65,4710.25 L 9122.14,4880.52 Z " />
<path stroke="none" fill="#000000" transform="matrix(0.1 0 0 0.1 2 -154)" d="M 9008.21,4710.04 L 9016.21,4699.83 L 9114.4,4871.7 L 9114.4,4882.6 L 9106.66,4880.52 L 9008.21,4710.04 Z " />
<text x="0" y="0" stroke="none" fill="#000000" transform="matrix(0.1 0 0 0.1 937.937 318.56)" font-style="normal" font-weight="normal" font-size="160px" font-family="Arial" >
OTMS</text>
<path stroke="none" fill="#000000" transform="matrix(0.1 0 0 0.1 2 -154)" d="M 9220.65,4710.25 L 9212.9,4699.61 L 9334.3,4674.63 L 9336.74,4686.38 L 9220.65,4710.25 Z " />
<text x="0" y="0" stroke="none" fill="#000000" transform="matrix(0.1 0 0 0.1 843.564 317.3)" font-style="normal" font-weight="normal" font-size="160px" font-family="Arial" >
TMSO</text>
<path stroke="none" fill="#000000" transform="matrix(0.1 0 0 0.1 2 -154)" d="M 9016.21,4699.83 L 9008.21,4710.04 L 8899.99,4679.93 L 8903.23,4668.37 L 9016.21,4699.83 Z " />
<path stroke="none" fill="#bfbfbf" transform="matrix(0.1 0 0 0.1 2 -154)" d="M 832,5165 A 172.8,172.8 0 1 0 1177.6,5165A 172.8,172.8 0 1 0 832,5165Z " />
<path stroke="none" fill="#c2c2c2" transform="matrix(0.1 0 0 0.1 2 -154)" d="M 834.003,5162.3 A 168.097,168.097 0 1 0 1170.2,5162.3A 168.097,168.097 0 1 0 834.003,5162.3Z " />
<path stroke="none" fill="#c6c6c6" transform="matrix(0.1 0 0 0.1 2 -154)" d="M 836.006,5159.6 A 163.394,163.394 0 1 0 1162.79,5159.6A 163.394,163.394 0 1 0 836.006,5159.6Z " />
<path stroke="none" fill="#cacaca" transform="matrix(0.1 0 0 0.1 2 -154)" d="M 838.009,5156.9 A 158.691,158.691 0 1 0 1155.39,5156.9A 158.691,158.691 0 1 0 838.009,5156.9Z " />
<path stroke="none" fill="#cecece" transform="matrix(0.1 0 0 0.1 2 -154)" d="M 840.012,5154.2 A 153.987,153.987 0 1 0 1147.99,5154.2A 153.987,153.987 0 1 0 840.012,5154.2Z " />
<path stroke="none" fill="#d1d1d1" transform="matrix(0.1 0 0 0.1 2 -154)" d="M 842.015,5151.5 A 149.284,149.284 0 1 0 1140.58,5151.5A 149.284,149.284 0 1 0 842.015,5151.5Z " />
<path stroke="none" fill="#d4d4d4" transform="matrix(0.1 0 0 0.1 2 -154)" d="M 844.019,5148.8 A 144.581,144.581 0 1 0 1133.18,5148.8A 144.581,144.581 0 1 0 844.019,5148.8Z " />
<path stroke="none" fill="#d7d7d7" transform="matrix(0.1 0 0 0.1 2 -154)" d="M 846.022,5146.1 A 139.878,139.878 0 1 0 1125.78,5146.1A 139.878,139.878 0 1 0 846.022,5146.1Z " />
<path stroke="none" fill="#dbdbdb" transform="matrix(0.1 0 0 0.1 2 -154)" d="M 848.025,5143.4 A 135.175,135.175 0 1 0 1118.37,5143.4A 135.175,135.175 0 1 0 848.025,5143.4Z " />
<path stroke="none" fill="#dddddd" transform="matrix(0.1 0 0 0.1 2 -154)" d="M 850.028,5140.7 A 130.472,130.472 0 1 0 1110.97,5140.7A 130.472,130.472 0 1 0 850.028,5140.7Z " />
<path stroke="none" fill="#e0e0e0" transform="matrix(0.1 0 0 0.1 2 -154)" d="M 852.031,5138 A 125.769,125.769 0 1 0 1103.57,5138A 125.769,125.769 0 1 0 852.031,5138Z " />
<path stroke="none" fill="#e3e3e3" transform="matrix(0.1 0 0 0.1 2 -154)" d="M 854.034,5135.3 A 121.066,121.066 0 1 0 1096.17,5135.3A 121.066,121.066 0 1 0 854.034,5135.3Z " />
<path stroke="none" fill="#e6e6e6" transform="matrix(0.1 0 0 0.1 2 -154)" d="M 856.037,5132.6 A 116.362,116.362 0 1 0 1088.76,5132.6A 116.362,116.362 0 1 0 856.037,5132.6Z " />
<path stroke="none" fill="#e8e8e8" transform="matrix(0.1 0 0 0.1 2 -154)" d="M 858.04,5129.9 A 111.659,111.659 0 1 0 1081.36,5129.9A 111.659,111.659 0 1 0 858.04,5129.9Z " />
<path stroke="none" fill="#eaeaea" transform="matrix(0.1 0 0 0.1 2 -154)" d="M 860.044,5127.2 A 106.956,106.956 0 1 0 1073.96,5127.2A 106.956,106.956 0 1 0 860.044,5127.2Z " />
<path stroke="none" fill="#ececec" transform="matrix(0.1 0 0 0.1 2 -154)" d="M 862.047,5124.5 A 102.253,102.253 0 1 0 1066.55,5124.5A 102.253,102.253 0 1 0 862.047,5124.5Z " />
<path stroke="none" fill="#efefef" transform="matrix(0.1 0 0 0.1 2 -154)" d="M 864.05,5121.8 A 97.55,97.55 0 1 0 1059.15,5121.8A 97.55,97.55 0 1 0 864.05,5121.8Z " />
<path stroke="none" fill="#f0f0f0" transform="matrix(0.1 0 0 0.1 2 -154)" d="M 866.053,5119.1 A 92.8469,92.8469 0 1 0 1051.75,5119.1A 92.8469,92.8469 0 1 0 866.053,5119.1Z " />
<path stroke="none" fill="#f2f2f2" transform="matrix(0.1 0 0 0.1 2 -154)" d="M 868.056,5116.4 A 88.1437,88.1437 0 1 0 1044.34,5116.4A 88.1437,88.1437 0 1 0 868.056,5116.4Z " />
<path stroke="none" fill="#f4f4f4" transform="matrix(0.1 0 0 0.1 2 -154)" d="M 870.059,5113.7 A 83.4406,83.4406 0 1 0 1036.94,5113.7A 83.4406,83.4406 0 1 0 870.059,5113.7Z " />
<path stroke="none" fill="#f6f6f6" transform="matrix(0.1 0 0 0.1 2 -154)" d="M 872.062,5111 A 78.7375,78.7375 0 1 0 1029.54,5111A 78.7375,78.7375 0 1 0 872.062,5111Z " />
<path stroke="none" fill="#f7f7f7" transform="matrix(0.1 0 0 0.1 2 -154)" d="M 874.065,5108.3 A 74.0344,74.0344 0 1 0 1022.13,5108.3A 74.0344,74.0344 0 1 0 874.065,5108.3Z " />
<path stroke="none" fill="#f8f8f8" transform="matrix(0.1 0 0 0.1 2 -154)" d="M 876.069,5105.6 A 69.3312,69.3312 0 1 0 1014.73,5105.6A 69.3312,69.3312 0 1 0 876.069,5105.6Z " />
<path stroke="none" fill="#f9f9f9" transform="matrix(0.1 0 0 0.1 2 -154)" d="M 878.072,5102.9 A 64.6281,64.6281 0 1 0 1007.33,5102.9A 64.6281,64.6281 0 1 0 878.072,5102.9Z " />
<path stroke="none" fill="#fbfbfb" transform="matrix(0.1 0 0 0.1 2 -154)" d="M 880.075,5100.2 A 59.925,59.925 0 1 0 999.925,5100.2A 59.925,59.925 0 1 0 880.075,5100.2Z " />
<path stroke="none" fill="#fbfbfb" transform="matrix(0.1 0 0 0.1 2 -154)" d="M 882.078,5097.5 A 55.2219,55.2219 0 1 0 992.522,5097.5A 55.2219,55.2219 0 1 0 882.078,5097.5Z " />
<path stroke="none" fill="#fcfcfc" transform="matrix(0.1 0 0 0.1 2 -154)" d="M 884.081,5094.8 A 50.5187,50.5187 0 1 0 985.119,5094.8A 50.5187,50.5187 0 1 0 884.081,5094.8Z " />
<path stroke="none" fill="#fdfdfd" transform="matrix(0.1 0 0 0.1 2 -154)" d="M 886.084,5092.1 A 45.8156,45.8156 0 1 0 977.715,5092.1A 45.8156,45.8156 0 1 0 886.084,5092.1Z " />
<path stroke="none" fill="#fefefe" transform="matrix(0.1 0 0 0.1 2 -154)" d="M 888.087,5089.4 A 41.1125,41.1125 0 1 0 970.312,5089.4A 41.1125,41.1125 0 1 0 888.087,5089.4Z " />
<path stroke="none" fill="#fefefe" transform="matrix(0.1 0 0 0.1 2 -154)" d="M 890.09,5086.7 A 36.4094,36.4094 0 1 0 962.909,5086.7A 36.4094,36.4094 0 1 0 890.09,5086.7Z " />
<path stroke="none" fill="#fefefe" transform="matrix(0.1 0 0 0.1 2 -154)" d="M 892.094,5084 A 31.7062,31.7062 0 1 0 955.506,5084A 31.7062,31.7062 0 1 0 892.094,5084Z " />
<path stroke="none" fill="#fefefe" transform="matrix(0.1 0 0 0.1 2 -154)" d="M 894.097,5081.3 A 27.0031,27.0031 0 1 0 948.103,5081.3A 27.0031,27.0031 0 1 0 894.097,5081.3Z " />
<path stroke="#bfbfbf" stroke-width="12" fill="none" transform="matrix(0.1 0 0 0.1 2 -154)" d="M 832,5165 A 172.8,172.8 0 1 0 1177.6,5165A 172.8,172.8 0 1 0 832,5165Z " />
<text x="0" y="0" stroke="none" fill="#000000" transform="matrix(0.1 0 0 0.1 147.459 344.56)" font-style="normal" font-weight="normal" font-size="200px" font-family="Arial" >
•</text>
<path stroke="none" fill="#000000" transform="matrix(0.1 0 0 0.1 2 -154)" d="M 1185.64,4887.68 L 1185.64,4875.68 L 1433.79,4875.68 L 1433.79,4887.68 L 1185.64,4887.68 Z " />
<path stroke="none" fill="#000000" transform="matrix(0.1 0 0 0.1 2 -154)" d="M 1188.57,4939.52 L 1188.57,4927.52 L 1433.79,4927.52 L 1433.79,4939.52 L 1188.57,4939.52 Z " />
<path stroke="none" fill="#000000" transform="matrix(0.1 0 0 0.1 2 -154)" d="M 1546.39,4887.68 L 1546.39,4875.68 L 1792.57,4875.68 L 1792.57,4887.68 L 1546.39,4887.68 Z " />
<path stroke="none" fill="#000000" transform="matrix(0.1 0 0 0.1 2 -154)" d="M 1546.39,4939.52 L 1546.39,4927.52 L 1792.57,4927.52 L 1792.57,4939.52 L 1546.39,4939.52 Z " />
<text x="0" y="0" stroke="none" fill="#000000" transform="matrix(0.1 0 0 0.1 92.55 370.3)" font-style="normal" font-weight="normal" font-size="200px" font-family="Arial" >
Ar</text>
<path stroke="none" fill="#000000" transform="matrix(0.1 0 0 0.1 2 -154)" d="M 1173.79,4949.57 L 1184.51,4954.96 L 1180.62,4966.44 L 1166.89,4959.53 L 1173.79,4949.57 Z " />
<path stroke="none" fill="#000000" transform="matrix(0.1 0 0 0.1 2 -154)" d="M 1143.16,4993.81 L 1167.27,5005.93 L 1163.38,5017.4 L 1136.27,5003.77 L 1143.16,4993.81 Z " />
<path stroke="none" fill="#000000" transform="matrix(0.1 0 0 0.1 2 -154)" d="M 1112.54,5038.05 L 1150.02,5056.89 L 1146.14,5068.37 L 1105.65,5048.02 L 1112.54,5038.05 Z " />
<path stroke="none" fill="#000000" transform="matrix(0.1 0 0 0.1 2 -154)" d="M 1081.92,5082.29 L 1132.78,5107.86 L 1128.9,5119.34 L 1075.02,5092.26 L 1081.92,5082.29 Z " />
<text x="0" y="0" stroke="none" fill="#ff0000" transform="matrix(0.1 0 0 0.1 186.938 319.67)" font-style="normal" font-weight="bold" font-size="200px" font-family="Arial" >
CN</text>
<path stroke="none" fill="#000000" transform="matrix(0.1 0 0 0.1 2 -154)" d="M 1784.03,4906.96 L 1770.2,4907.12 L 1842.33,4735.19 L 1894.55,4765.34 L 1784.03,4906.96 Z " />
<path stroke="none" fill="#000000" transform="matrix(0.1 0 0 0.1 2 -154)" d="M 1770.2,4907.12 L 1784.03,4906.96 L 1925.21,5151.5 L 1918.09,5163.21 L 1770.2,4907.12 Z " />
<text x="0" y="0" stroke="none" fill="#000000" transform="matrix(0.1 0 0 0.1 207.928 362.79)" font-style="italic" font-weight="normal" font-size="150px" font-family="Arial" >
n</text>
<text x="0" y="0" stroke="none" fill="#000000" transform="matrix(0.1 0 0 0.1 216.27 370.64)" font-style="normal" font-weight="normal" font-size="200px" font-family="Arial" >
Bu</text>
<path stroke="none" fill="#000000" transform="matrix(0.1 0 0 0.1 2 -154)" d="M 1918.09,5163.21 L 1925.21,5151.5 L 2033.97,5155.45 L 2033.49,5167.44 L 1918.09,5163.21 Z " />
<text x="0" y="0" stroke="none" fill="#000000" transform="matrix(0.1 0 0 0.1 94.1565 416)" font-style="normal" font-weight="normal" font-size="200px" font-family="Arial" >
Ar </text>
<text x="0" y="0" stroke="none" fill="#000000" transform="matrix(0.1 0 0 0.1 119.713 416)" font-style="normal" font-weight="normal" font-size="200px" font-family="Arial" >
= </text>
<text x="0" y="0" stroke="none" fill="#000000" transform="matrix(0.1 0 0 0.1 136.949 416)" font-style="normal" font-weight="normal" font-size="200px" font-family="Arial" >
2-Ph</text>
<text x="0" y="0" stroke="none" fill="#000000" transform="matrix(0.1 0 0 0.1 179.196 416)" font-style="normal" font-weight="normal" font-size="200px" font-family="Arial" >
OC</text>
<text x="0" y="0" stroke="none" fill="#000000" transform="matrix(0.1 0 0 0.1 209.196 420.4)" font-style="normal" font-weight="normal" font-size="150px" font-family="Arial" >
6</text>
<text x="0" y="0" stroke="none" fill="#000000" transform="matrix(0.1 0 0 0.1 217.538 416)" font-style="normal" font-weight="normal" font-size="200px" font-family="Arial" >
H</text>
<text x="0" y="0" stroke="none" fill="#000000" transform="matrix(0.1 0 0 0.1 231.981 420.4)" font-style="normal" font-weight="normal" font-size="150px" font-family="Arial" >
4</text>
<text x="0" y="0" stroke="none" fill="#000000" transform="matrix(0.1 0 0 0.1 84.408 439)" font-style="normal" font-weight="normal" font-size="200px" font-family="Arial" >
62% </text>
<text x="0" y="0" stroke="none" fill="#000000" transform="matrix(0.1 0 0 0.1 129.994 439)" font-style="normal" font-weight="normal" font-size="200px" font-family="Arial" >
yield, </text>
<text x="0" y="0" stroke="none" fill="#000000" transform="matrix(0.1 0 0 0.1 182.24 439)" font-style="normal" font-weight="normal" font-size="200px" font-family="Arial" >
92% </text>
<text x="0" y="0" stroke="none" fill="#000000" transform="matrix(0.1 0 0 0.1 227.826 439)" font-style="normal" font-weight="normal" font-size="200px" font-family="Arial" >
ee</text>
<text x="0" y="0" stroke="none" fill="#000000" transform="matrix(0.1 0 0 0.1 99.8383 320.09)" font-style="normal" font-weight="bold" font-size="200px" font-family="Arial" >
H</text>
<path stroke="none" fill="#000000" transform="matrix(0.1 0 0 0.1 2 -154)" d="M 1206.71,4904.45 L 1196.49,4910.75 L 1110.67,4771.39 L 1120.89,4765.1 L 1206.71,4904.45 Z " />
<text x="0" y="0" stroke="none" fill="#000000" transform="matrix(0.1 0 0 0.1 701.55 350.16)" font-style="normal" font-weight="normal" font-size="200px" font-family="Arial" >
S</text>
<text x="0" y="0" stroke="none" fill="#000000" transform="matrix(0.1 0 0 0.1 725.938 364.56)" font-style="normal" font-weight="normal" font-size="200px" font-family="Arial" >
N</text>
<path stroke="none" fill="#000000" transform="matrix(0.1 0 0 0.1 2 -154)" d="M 7150.42,5021.46 L 7156.42,5011.07 L 7217.69,5046.45 L 7211.69,5056.84 L 7150.42,5021.46 Z " />
<path stroke="none" fill="#000000" transform="matrix(0.1 0 0 0.1 2 -154)" d="M 6968.47,5010.79 L 6974.47,5021.18 L 6818.66,5110.88 L 6812.8,5107.6 L 6812.89,5100.88 L 6968.47,5010.79 Z " />
<text x="0" y="0" stroke="none" fill="#000000" transform="matrix(0.1 0 0 0.1 686.042 325.22)" font-style="normal" font-weight="normal" font-size="200px" font-family="Arial" >
O</text>
<path stroke="none" fill="#000000" transform="matrix(0.1 0 0 0.1 2 -154)" d="M 6995.61,4888.11 L 6985.22,4894.11 L 6947.05,4828 L 6957.44,4822 L 6995.61,4888.11 Z " />
<path stroke="none" fill="#000000" transform="matrix(0.1 0 0 0.1 2 -154)" d="M 7040.51,4862.19 L 7030.11,4868.19 L 6991.94,4802.08 L 7002.33,4796.08 L 7040.51,4862.19 Z " />
<text x="0" y="0" stroke="none" fill="#000000" transform="matrix(0.1 0 0 0.1 714.842 325.22)" font-style="normal" font-weight="normal" font-size="200px" font-family="Arial" >
O</text>
<path stroke="none" fill="#000000" transform="matrix(0.1 0 0 0.1 2 -154)" d="M 7093.69,4869.23 L 7083.29,4863.23 L 7122.24,4795.77 L 7132.64,4801.77 L 7093.69,4869.23 Z " />
<path stroke="none" fill="#000000" transform="matrix(0.1 0 0 0.1 2 -154)" d="M 7138.58,4895.15 L 7128.19,4889.15 L 7167.14,4821.69 L 7177.53,4827.69 L 7138.58,4895.15 Z " />
<path stroke="none" fill="#000000" transform="matrix(0.1 0 0 0.1 2 -154)" d="M 6812.89,5100.88 L 6812.8,5107.6 L 6806.94,5110.98 L 6563.4,4970.37 L 6563.4,4956.5 L 6812.89,5100.88 Z " />
<path stroke="none" fill="#000000" transform="matrix(0.1 0 0 0.1 2 -154)" d="M 6763.96,5132.33 L 6757.96,5142.72 L 6560.4,5028.65 L 6566.4,5018.26 L 6763.96,5132.33 Z " />
<path stroke="none" fill="#000000" transform="matrix(0.1 0 0 0.1 2 -154)" d="M 6563.4,4956.5 L 6563.4,4970.37 L 6319.86,5110.98 L 6307.85,5104.05 L 6563.4,4956.5 Z " />
<path stroke="none" fill="#000000" transform="matrix(0.1 0 0 0.1 2 -154)" d="M 6307.85,5104.05 L 6319.86,5110.98 L 6319.86,5392.22 L 6307.85,5399.15 L 6307.85,5104.05 Z " />
<path stroke="none" fill="#000000" transform="matrix(0.1 0 0 0.1 2 -154)" d="M 6359.84,5137.53 L 6371.84,5137.53 L 6371.84,5365.67 L 6359.84,5365.67 L 6359.84,5137.53 Z " />
<path stroke="none" fill="#000000" transform="matrix(0.1 0 0 0.1 2 -154)" d="M 6307.85,5399.15 L 6319.86,5392.22 L 6563.4,5532.83 L 6563.4,5546.7 L 6307.85,5399.15 Z " />
<path stroke="none" fill="#000000" transform="matrix(0.1 0 0 0.1 2 -154)" d="M 6563.4,5546.7 L 6563.4,5532.83 L 6806.94,5392.22 L 6812.8,5395.6 L 6812.87,5402.33 L 6563.4,5546.7 Z " />
<path stroke="none" fill="#000000" transform="matrix(0.1 0 0 0.1 2 -154)" d="M 6566.4,5484.94 L 6560.4,5474.55 L 6757.96,5360.48 L 6763.96,5370.87 L 6566.4,5484.94 Z " />
<path stroke="none" fill="#000000" transform="matrix(0.1 0 0 0.1 2 -154)" d="M 6818.66,5392.3 L 6812.8,5395.6 L 6806.94,5392.22 L 6806.94,5110.98 L 6812.8,5107.6 L 6818.66,5110.88 L 6818.66,5392.3 Z " />
<path stroke="none" fill="#000000" transform="matrix(0.1 0 0 0.1 2 -154)" d="M 7411.13,5056.81 L 7405.11,5046.43 L 7557.14,4958.53 L 7563,4961.8 L 7562.92,4968.52 L 7411.13,5056.81 Z " />
<text x="0" y="0" stroke="none" fill="#000000" transform="matrix(0.1 0 0 0.1 727.092 393.36)" font-style="normal" font-weight="normal" font-size="200px" font-family="Arial" >
F</text>
<path stroke="none" fill="#000000" transform="matrix(0.1 0 0 0.1 2 -154)" d="M 7305.75,5216.57 L 7317.75,5216.56 L 7317.87,5300.96 L 7305.87,5300.98 L 7305.75,5216.57 Z " />
<path stroke="none" fill="#000000" transform="matrix(0.1 0 0 0.1 2 -154)" d="M 7562.92,4968.52 L 7563,4961.8 L 7573.97,4961.64 L 7815.59,5100.2 L 7809.61,5110.6 L 7562.92,4968.52 Z " />
<path stroke="none" fill="#000000" transform="matrix(0.1 0 0 0.1 2 -154)" d="M 7568.61,4952.39 L 7563,4961.8 L 7557.14,4958.53 L 7557,4673.8 L 7569,4673.8 L 7568.61,4952.39 Z " />
<text x="0" y="0" stroke="none" fill="#000000" transform="matrix(0.1 0 0 0.1 776.57 335.58)" font-style="normal" font-weight="normal" font-size="200px" font-family="Arial" >
Ph</text>
<path stroke="none" fill="#000000" transform="matrix(0.1 0 0 0.1 2 -154)" d="M 7573.97,4961.64 L 7563,4961.8 L 7568.61,4952.39 L 7712.59,4868.5 L 7718.59,4878.89 L 7573.97,4961.64 Z " />
<text x="0" y="0" stroke="none" fill="#000000" transform="matrix(0.1 0 0 0.1 727.01 431.31)" font-style="normal" font-weight="bold" font-size="200px" font-family="Arial" >
N</text>
<text x="0" y="0" stroke="none" fill="#000000" transform="matrix(0.1 0 0 0.1 741.453 431.31)" font-style="normal" font-weight="bold" font-size="200px" font-family="Arial" >
F</text>
<text x="0" y="0" stroke="none" fill="#000000" transform="matrix(0.1 0 0 0.1 700.998 407.76)" font-style="normal" font-weight="normal" font-size="200px" font-family="Arial" >
Cl</text>
<path stroke="none" fill="#000000" transform="matrix(0.1 0 0 0.1 2 -154)" d="M 6812.87,5402.33 L 6812.8,5395.6 L 6818.66,5392.3 L 6983.95,5487.49 L 6977.95,5497.88 L 6812.87,5402.33 Z " />
<text x="0" y="0" stroke="none" fill="#000000" transform="matrix(0.1 0 0 0.1 870.02 440)" font-style="normal" font-weight="bold" font-size="200px" font-family="Arial" >
chiral </text>
<text x="0" y="0" stroke="none" fill="#000000" transform="matrix(0.1 0 0 0.1 928.936 440)" font-style="normal" font-weight="bold" font-size="200px" font-family="Arial" >
Box</text>
<path stroke="#000000" stroke-width="12" fill="none" transform="matrix(0.1 0 0 0.1 2 -154)" stroke-dasharray="50" d="M 6150.2,5958 C 6150.2,5958 6150.2,4420.8 6150.2,4420.8 C 6150.2,4381.06 6182.46,4348.8 6222.2,4348.8 C 6222.2,4348.8 10188.2,4348.8 10188.2,4348.8 C 10227.9,4348.8 10260.2,4381.06 10260.2,4420.8 C 10260.2,4420.8 10260.2,5958 10260.2,5958 C 10260.2,5997.74 10227.9,6030 10188.2,6030 C 10188.2,6030 6222.2,6030 6222.2,6030 C 6182.46,6030 6150.2,5997.74 6150.2,5958 " />
<path stroke="none" fill="#000000" transform="matrix(0.1 0 0 0.1 2 -154)" d="M 9046.46,8157.23 L 9041,8153.6 L 9040.57,8147.06 L 9280.06,8009.06 L 9290.4,8009.6 L 9290.4,8016.37 L 9046.46,8157.23 Z " />
<path stroke="none" fill="#000000" transform="matrix(0.1 0 0 0.1 2 -154)" d="M 9290.4,8016.37 L 9290.4,8009.6 L 9300.74,8009.06 L 9540.23,8147.06 L 9539.8,8153.6 L 9534.34,8157.24 L 9290.4,8016.37 Z " />
<text x="0" y="0" stroke="none" fill="#000000" transform="matrix(0.1 0 0 0.1 872.022 657.44)" font-style="normal" font-weight="normal" font-size="200px" font-family="Arial" >
O</text>
<text x="0" y="0" stroke="none" fill="#000000" transform="matrix(0.1 0 0 0.1 895.878 697.8)" font-style="normal" font-weight="normal" font-size="200px" font-family="Arial" >
N</text>
<path stroke="none" fill="#000000" transform="matrix(0.1 0 0 0.1 2 -154)" d="M 9040.57,8147.06 L 9041,8153.6 L 9034.86,8157.13 L 8872.29,8084.98 L 8877.17,8074.02 L 9040.57,8147.06 Z " />
<path stroke="none" fill="#000000" transform="matrix(0.1 0 0 0.1 2 -154)" d="M 8699.44,8114.64 L 8708.35,8122.67 L 8592.3,8251.05 L 8585.2,8250.4 L 8582.54,8244.64 L 8699.44,8114.64 Z " />
<path stroke="none" fill="#000000" transform="matrix(0.1 0 0 0.1 2 -154)" d="M 8581.31,8255.46 L 8585.2,8250.4 L 8592.3,8251.05 L 8732.18,8493.31 L 8729.2,8499.8 L 8722.88,8500.66 L 8581.31,8255.46 Z " />
<path stroke="none" fill="#000000" transform="matrix(0.1 0 0 0.1 2 -154)" d="M 8732.83,8505 L 8729.2,8499.8 L 8732.18,8493.31 L 8914.67,8454.31 L 8917.16,8466.05 L 8732.83,8505 Z " />
<path stroke="none" fill="#000000" transform="matrix(0.1 0 0 0.1 2 -154)" d="M 9026.79,8346.85 L 9014.86,8345.6 L 9034.86,8157.13 L 9041,8153.6 L 9046.46,8157.23 L 9026.79,8346.85 Z " />
<path stroke="none" fill="#000000" transform="matrix(0.1 0 0 0.1 2 -154)" d="M 8975.24,8341.45 L 8963.3,8340.2 L 8979.56,8185 L 8991.49,8186.25 L 8975.24,8341.45 Z " />
<text x="0" y="0" stroke="none" fill="#000000" transform="matrix(0.1 0 0 0.1 951.778 697.8)" font-style="normal" font-weight="normal" font-size="200px" font-family="Arial" >
N</text>
<text x="0" y="0" stroke="none" fill="#000000" transform="matrix(0.1 0 0 0.1 974.522 657.44)" font-style="normal" font-weight="normal" font-size="200px" font-family="Arial" >
O</text>
<path stroke="none" fill="#000000" transform="matrix(0.1 0 0 0.1 2 -154)" d="M 9534.34,8157.24 L 9539.8,8153.6 L 9545.95,8157.13 L 9566.08,8345.6 L 9554.15,8346.86 L 9534.34,8157.24 Z " />
<path stroke="none" fill="#000000" transform="matrix(0.1 0 0 0.1 2 -154)" d="M 9589.34,8186.26 L 9601.27,8185 L 9617.63,8340.17 L 9605.7,8341.43 L 9589.34,8186.26 Z " />
<path stroke="none" fill="#000000" transform="matrix(0.1 0 0 0.1 2 -154)" d="M 9663.43,8465.97 L 9665.92,8454.24 L 9848.62,8493.31 L 9854.67,8506.87 L 9663.43,8465.97 Z " />
<path stroke="none" fill="#000000" transform="matrix(0.1 0 0 0.1 2 -154)" d="M 9854.67,8506.87 L 9848.62,8493.31 L 9988.5,8251.04 L 10003.3,8249.5 L 9854.67,8506.87 Z " />
<path stroke="none" fill="#000000" transform="matrix(0.1 0 0 0.1 2 -154)" d="M 10003.3,8249.5 L 9988.5,8251.04 L 9873.1,8123.26 L 9882.02,8115.23 L 10003.3,8249.5 Z " />
<path stroke="none" fill="#000000" transform="matrix(0.1 0 0 0.1 2 -154)" d="M 9704.56,8073.67 L 9709.44,8084.63 L 9545.95,8157.13 L 9539.8,8153.6 L 9540.23,8147.06 L 9704.56,8073.67 Z " />
<text x="0" y="0" stroke="none" fill="#000000" transform="matrix(0.1 0 0 0.1 844.299 730.1)" font-style="normal" font-weight="normal" font-size="200px" font-family="Arial" >
Ph</text>
<path stroke="none" fill="#000000" transform="matrix(0.1 0 0 0.1 2 -154)" d="M 8722.88,8500.66 L 8729.2,8499.8 L 8732.83,8505 L 8671.69,8703.07 L 8616.6,8678.54 L 8722.88,8500.66 Z " />
<text x="0" y="0" stroke="none" fill="#000000" transform="matrix(0.1 0 0 0.1 992.21 730.1)" font-style="normal" font-weight="normal" font-size="200px" font-family="Arial" >
Ph</text>
<path stroke="none" fill="#000000" transform="matrix(0.1 0 0 0.1 2 -154)" d="M 9866.41,8547.81 L 9877.37,8542.93 L 9884.31,8552.97 L 9869.23,8559.69 L 9866.41,8547.81 Z " />
<path stroke="none" fill="#000000" transform="matrix(0.1 0 0 0.1 2 -154)" d="M 9880.09,8605.43 L 9911.05,8591.65 L 9917.99,8601.69 L 9882.91,8617.31 L 9880.09,8605.43 Z " />
<path stroke="none" fill="#000000" transform="matrix(0.1 0 0 0.1 2 -154)" d="M 9893.76,8663.06 L 9944.73,8640.36 L 9951.67,8650.41 L 9896.58,8674.94 L 9893.76,8663.06 Z " />
<path stroke="none" fill="#000000" transform="matrix(0.1 0 0 0.1 2 -154)" d="M 9300.74,8009.06 L 9290.4,8009.6 L 9290.4,8002.4 L 9516.55,7837.98 L 9530.67,7842.56 L 9300.74,8009.06 Z " />
<path stroke="none" fill="#000000" transform="matrix(0.1 0 0 0.1 2 -154)" d="M 9530.67,7842.56 L 9516.55,7837.98 L 9430.17,7572.22 L 9438.89,7560.21 L 9530.67,7842.56 Z " />
<path stroke="none" fill="#000000" transform="matrix(0.1 0 0 0.1 2 -154)" d="M 9438.89,7560.21 L 9430.17,7572.22 L 9150.63,7572.22 L 9141.91,7560.21 L 9438.89,7560.21 Z " />
<path stroke="none" fill="#000000" transform="matrix(0.1 0 0 0.1 2 -154)" d="M 9141.91,7560.21 L 9150.63,7572.22 L 9064.25,7837.98 L 9050.13,7842.56 L 9141.91,7560.21 Z " />
<path stroke="none" fill="#000000" transform="matrix(0.1 0 0 0.1 2 -154)" d="M 9050.13,7842.56 L 9064.25,7837.98 L 9290.4,8002.4 L 9290.4,8009.6 L 9280.06,8009.06 L 9050.13,7842.56 Z " />
<text x="0" y="0" stroke="none" fill="#000000" transform="matrix(0.1 0 0 0.1 812.979 675.84)" font-style="normal" font-weight="normal" font-size="200px" font-family="Arial" >
Ph</text>
<path stroke="none" fill="#000000" transform="matrix(0.1 0 0 0.1 2 -154)" d="M 8582.54,8244.64 L 8585.2,8250.4 L 8581.31,8255.46 L 8368.82,8258.05 L 8375.1,8198.08 L 8582.54,8244.64 Z " />
<text x="0" y="0" stroke="none" fill="#000000" transform="matrix(0.1 0 0 0.1 1023.53 675.84)" font-style="normal" font-weight="normal" font-size="200px" font-family="Arial" >
Ph</text>
<path stroke="none" fill="#000000" transform="matrix(0.1 0 0 0.1 2 -154)" d="M 10045.9,8251.16 L 10044.7,8239.23 L 10056.4,8236.13 L 10058.1,8251.76 L 10045.9,8251.16 Z " />
<path stroke="none" fill="#000000" transform="matrix(0.1 0 0 0.1 2 -154)" d="M 10118.6,8254.76 L 10115,8220.65 L 10126.8,8217.55 L 10130.7,8255.36 L 10118.6,8254.76 Z " />
<path stroke="none" fill="#000000" transform="matrix(0.1 0 0 0.1 2 -154)" d="M 10191.2,8258.35 L 10185.3,8202.08 L 10197.1,8198.98 L 10203.4,8258.95 L 10191.2,8258.35 Z " />
<text x="0" y="0" stroke="none" fill="#000000" transform="matrix(0.1 0 0 0.1 918.82 751.66)" font-style="normal" font-weight="bold" font-size="200px" font-family="Arial" >
L1</text>
<text x="0" y="0" stroke="none" fill="#000000" transform="matrix(0.1 0 0 0.1 87.52 250.24)" font-style="normal" font-weight="normal" font-size="200px" font-family="Arial" >
Examples </text>
<text x="0" y="0" stroke="none" fill="#000000" transform="matrix(0.1 0 0 0.1 180.889 250.24)" font-style="normal" font-weight="normal" font-size="200px" font-family="Arial" >
of </text>
<text x="0" y="0" stroke="none" fill="#000000" transform="matrix(0.1 0 0 0.1 203.125 250.24)" font-style="normal" font-weight="normal" font-size="200px" font-family="Arial" >
enantioselective </text>
<text x="0" y="0" stroke="none" fill="#000000" transform="matrix(0.1 0 0 0.1 352.11 250.24)" font-style="normal" font-weight="normal" font-size="200px" font-family="Arial" >
cyanation</text>
<text x="0" y="0" stroke="none" fill="#000000" transform="matrix(0.1 0 0 0.1 290.78 355.24)" font-style="italic" font-weight="normal" font-size="200px" font-family="Arial" >
versus</text>
<text x="0" y="0" stroke="none" fill="#000000" transform="matrix(0.1 0 0 0.1 252.52 154.24)" font-style="normal" font-weight="normal" font-size="200px" font-family="Arial" >
from </text>
<text x="0" y="0" stroke="none" fill="#000000" transform="matrix(0.1 0 0 0.1 298.077 154.24)" font-style="normal" font-weight="normal" font-size="200px" font-family="Arial" >
NF </text>
<text x="0" y="0" stroke="none" fill="#000000" transform="matrix(0.1 0 0 0.1 330.293 154.24)" font-style="normal" font-weight="normal" font-size="200px" font-family="Arial" >
reagent</text>
</svg>
