<svg xmlns="http://www.w3.org/2000/svg" width="454.79" height="231.5" viewBox="1.14 205.11 454.79 231.5">
  <polyline points="172.12,240.11 291.61,240.11" fill="none" stroke="#000000" stroke-width="0.6" stroke-linecap="butt" stroke-linejoin="miter" />
  <path d="M 296.86,240.11 C 296.86,240.11 290.86,241.66000000000003 290.86,241.66000000000003 C 290.86,241.66000000000003 291.61,240.76625 291.61,240.11 C 291.61,239.45375 290.86,238.56 290.86,238.56 C 290.86,238.56 296.86,240.11 296.86,240.11" fill="#000000" stroke="none" />
  <text x="234.5" y="223.11" font-size="10" dominant-baseline="alphabetic" text-anchor="middle" fill="#000000" font-family="Arial"><tspan font-size="10" font-family="Arial" fill="#000000" font-weight="400" font-style="normal">CuOAc (10 mol%)</tspan></text>
  <text x="234.5" y="234.86" font-size="10" dominant-baseline="alphabetic" text-anchor="middle" fill="#000000" font-family="Arial"><tspan font-size="10" font-family="Arial" fill="#000000" font-weight="700" font-style="normal">L1</tspan><tspan font-size="10" font-family="Arial" fill="#000000" font-weight="400" font-style="normal"> (15 mol%)</tspan></text>
  <text x="234.5" y="254.61" font-size="10" dominant-baseline="alphabetic" text-anchor="middle" fill="#000000" font-family="Arial"><tspan font-size="10" font-family="Arial" fill="#000000" font-weight="700" font-style="normal">NF-1</tspan><tspan font-size="10" font-family="Arial" fill="#000000" font-weight="400" font-style="normal"> / </tspan><tspan font-size="10" font-family="Arial" fill="#ff0000" font-weight="700" font-style="normal">TMSCN</tspan></text>
  <text x="234.5" y="266.36" font-size="10" dominant-baseline="alphabetic" text-anchor="middle" fill="#000000" font-family="Arial"><tspan font-size="7.5" font-family="Arial" fill="#000000" font-weight="400" font-style="italic" baseline-shift="3.92">t</tspan><tspan font-size="10" font-family="Arial" fill="#000000" font-weight="400" font-style="normal">AmOH/Acetone/</tspan><tspan font-size="10" font-family="Arial" fill="#000000" font-weight="400" font-style="normal">PhCF</tspan><tspan font-size="7.5" font-family="Arial" fill="#000000" font-weight="400" font-style="normal" baseline-shift="-2.2">3</tspan><tspan font-size="10" font-family="Arial" fill="#000000" font-weight="400" font-style="normal"> </tspan><tspan font-size="10" font-family="Arial" fill="#000000" font-weight="400" font-style="normal">(1:1:1</tspan><tspan font-size="10" font-family="Arial" fill="#000000" font-weight="400" font-style="normal">)</tspan></text>
  <text x="234.5" y="278.11" font-size="10" dominant-baseline="alphabetic" text-anchor="middle" fill="#000000" font-family="Arial"><tspan font-size="10" font-family="Arial" fill="#000000" font-weight="400" font-style="normal">Ar, -40 °C, 7 d</tspan></text>
  <text x="379.57" y="267.72" font-size="10" dominant-baseline="alphabetic" text-anchor="middle" fill="#000000" font-family="Arial"><tspan font-size="10" font-family="Arial" fill="#000000" font-weight="700" font-style="normal">2a</tspan></text>
  <polygon points="57.572437,358.553341 69.76,351.516415 69.76,351.17 69.210084,351.141098 57.272428,358.03373 57.29,358.37" fill="#000000" stroke="none" stroke-width="0" />
  <polygon points="69.76,351.516415 81.947676,358.553406 82.23,358.37 82.247618,358.033757 70.309916,351.141098 69.76,351.17" fill="#000000" stroke="none" stroke-width="0" />
  <text x="40.23" y="356.41" font-size="10" dominant-baseline="alphabetic" text-anchor="start" fill="#000000" font-family="Arial"><tspan font-size="10" font-family="Arial" fill="#000000" font-weight="400" font-style="normal">O</tspan></text>
  <text x="52.21" y="376.59" font-size="10" dominant-baseline="alphabetic" text-anchor="start" fill="#000000" font-family="Arial"><tspan font-size="10" font-family="Arial" fill="#000000" font-weight="400" font-style="normal">N</tspan></text>
  <polygon points="57.272428,358.03373 49.042598,354.366292 48.798373,354.914338 56.968942,358.555367 57.29,358.37" fill="#000000" stroke="none" stroke-width="0" />
  <polygon points="40.249911,356.37964 34.389413,362.88455 34.5,363.21 34.868827,363.248815 40.695681,356.781249" fill="#000000" stroke="none" stroke-width="0" />
  <polygon points="34.324045,363.505229 41.356307,375.684714 41.7,375.68 41.850859,375.341306 34.868827,363.248815 34.5,363.21" fill="#000000" stroke="none" stroke-width="0" />
  <polygon points="41.926433,375.93863 51.38,373.932514 51.255449,373.345584 41.850859,375.341306 41.7,375.68" fill="#000000" stroke="none" stroke-width="0" />
  <polygon points="56.591634,367.916737 57.572437,358.553341 57.29,358.37 56.968942,358.555367 55.994899,367.85423" fill="#000000" stroke="none" stroke-width="0" />
  <polygon points="54.014034,367.646737 54.854883,359.619432 54.258148,359.556924 53.417299,367.58423" fill="#000000" stroke="none" stroke-width="0" />
  <text x="87.36" y="376.59" font-size="10" dominant-baseline="alphabetic" text-anchor="end" fill="#000000" font-family="Arial"><tspan font-size="10" font-family="Arial" fill="#000000" font-weight="400" font-style="normal">N</tspan></text>
  <text x="91.48" y="356.41" font-size="10" dominant-baseline="alphabetic" text-anchor="start" fill="#000000" font-family="Arial"><tspan font-size="10" font-family="Arial" fill="#000000" font-weight="400" font-style="normal">O</tspan></text>
  <polygon points="81.947676,358.553406 82.935097,367.917551 83.531789,367.854632 82.55121,358.555367 82.23,358.37" fill="#000000" stroke="none" stroke-width="0" />
  <polygon points="84.666178,359.617838 85.512697,367.645751 86.109389,367.582832 85.26287,359.554918" fill="#000000" stroke="none" stroke-width="0" />
  <polygon points="88.15,373.933188 97.970842,376.018722 97.82,375.68 97.669158,375.341278 88.274635,373.346276" fill="#000000" stroke="none" stroke-width="0" />
  <polygon points="97.970842,376.018722 105.388768,363.171288 105.02,363.21 104.651232,363.248712 97.669158,375.341278 97.82,375.68" fill="#000000" stroke="none" stroke-width="0" />
  <polygon points="105.388768,363.171288 99.283505,356.387663 98.837529,356.789042 104.651232,363.248712 105.02,363.21" fill="#000000" stroke="none" stroke-width="0" />
  <polygon points="90.487356,354.364694 82.247618,358.033757 82.23,358.37 82.55121,358.555367 90.731425,354.912809" fill="#000000" stroke="none" stroke-width="0" />
  <text x="38.7" y="392.74" font-size="10" dominant-baseline="alphabetic" text-anchor="end" fill="#000000" font-family="Arial"><tspan font-size="10" font-family="Arial" fill="#000000" font-weight="400" font-style="normal">Ph</tspan></text>
  <polygon points="41.356307,375.684714 36.330438,384.038841 39.080148,385.263256 41.926433,375.93863 41.7,375.68" fill="#000000" stroke="none" stroke-width="0" />
  <text x="100.18" y="392.74" font-size="10" dominant-baseline="alphabetic" text-anchor="start" fill="#000000" font-family="Arial"><tspan font-size="10" font-family="Arial" fill="#000000" font-weight="400" font-style="normal">Ph</tspan></text>
  <path d="M 98.5588 378.0767 L 98.6976 378.6717 L 99.4563 378.3339 L 99.1069 377.8326 Z" fill="#000000" stroke="none" />
  <path d="M 99.2153 380.8905 L 99.3541 381.4855 L 101.1083 380.7044 L 100.7590 380.2032 Z" fill="#000000" stroke="none" />
  <path d="M 99.8718 383.7044 L 100.0106 384.2994 L 102.7604 383.0749 L 102.4110 382.5737 Z" fill="#000000" stroke="none" />
  <text x="403.53" y="344.14" font-size="10" dominant-baseline="alphabetic" text-anchor="start" fill="#000000" font-family="Arial"><tspan font-size="10" font-family="Arial" fill="#000000" font-weight="400" font-style="normal">S</tspan></text>
  <text x="415.72" y="351.34" font-size="10" dominant-baseline="alphabetic" text-anchor="start" fill="#000000" font-family="Arial"><tspan font-size="10" font-family="Arial" fill="#000000" font-weight="400" font-style="normal">N</tspan></text>
  <polygon points="411.17856,343.097212 414.354621,344.931024 414.654635,344.411417 411.478574,342.577605" fill="#000000" stroke="none" stroke-width="0" />
  <polygon points="402.245307,342.540721 394.36,347.093585 394.36,347.44 394.66,347.6132 402.545321,343.060328" fill="#000000" stroke="none" stroke-width="0" />
  <text x="395.72" y="331.67" font-size="10" dominant-baseline="alphabetic" text-anchor="start" fill="#000000" font-family="Arial"><tspan font-size="10" font-family="Arial" fill="#000000" font-weight="400" font-style="normal">O</tspan></text>
  <polygon points="403.514617,336.489729 401.515308,333.027037 400.995701,333.327051 402.995009,336.789743" fill="#000000" stroke="none" stroke-width="0" />
  <polygon points="405.759217,335.193729 403.759908,331.731037 403.240301,332.031051 405.239609,335.493743" fill="#000000" stroke="none" stroke-width="0" />
  <text x="410.12" y="331.67" font-size="10" dominant-baseline="alphabetic" text-anchor="start" fill="#000000" font-family="Arial"><tspan font-size="10" font-family="Arial" fill="#000000" font-weight="400" font-style="normal">O</tspan></text>
  <polygon points="408.410364,335.511109 410.416075,332.037329 409.896468,331.737315 407.890756,335.211095" fill="#000000" stroke="none" stroke-width="0" />
  <polygon points="410.654964,336.807109 412.660675,333.333329 412.141068,333.033315 410.135356,336.507095" fill="#000000" stroke="none" stroke-width="0" />
  <polygon points="394.36,347.093585 381.89,339.893585 381.89,340.586415 394.06,347.6132 394.36,347.44" fill="#000000" stroke="none" stroke-width="0" />
  <polygon points="391.918086,348.67655 382.039927,342.973042 381.739914,343.49265 391.618073,349.196158" fill="#000000" stroke="none" stroke-width="0" />
  <polygon points="381.89,339.893585 369.42,347.093585 369.42,347.44 369.72,347.6132 381.89,340.586415" fill="#000000" stroke="none" stroke-width="0" />
  <polygon points="369.12,347.6132 369.12,362.0132 369.72,361.6668 369.72,347.6132 369.42,347.44" fill="#000000" stroke="none" stroke-width="0" />
  <polygon points="371.712,348.936492 371.712,360.343508 372.312,360.343508 372.312,348.936492" fill="#000000" stroke="none" stroke-width="0" />
  <polygon points="369.12,362.0132 381.59,369.2132 381.89,369.04 381.89,368.693585 369.72,361.6668" fill="#000000" stroke="none" stroke-width="0" />
  <polygon points="382.19,369.2132 394.66,362.0132 394.06,361.6668 381.89,368.693585 381.89,369.04" fill="#000000" stroke="none" stroke-width="0" />
  <polygon points="382.039927,366.306958 391.918086,360.60345 391.618073,360.083842 381.739914,365.78735" fill="#000000" stroke="none" stroke-width="0" />
  <polygon points="394.66,362.0132 394.66,347.6132 394.36,347.44 394.06,347.6132 394.06,361.6668" fill="#000000" stroke="none" stroke-width="0" />
  <text x="427.93" y="344.05" font-size="10" dominant-baseline="alphabetic" text-anchor="start" fill="#000000" font-family="Arial"><tspan font-size="10" font-family="Arial" fill="#000000" font-weight="400" font-style="normal">R</tspan></text>
  <polygon points="424.249652,344.916239 426.867866,343.3978 426.566853,342.878771 423.948639,344.39721" fill="#000000" stroke="none" stroke-width="0" />
  <text x="416.09" y="365.74" font-size="10" dominant-baseline="alphabetic" text-anchor="start" fill="#000000" font-family="Arial"><tspan font-size="10" font-family="Arial" fill="#000000" font-weight="400" font-style="normal">F</tspan></text>
  <polygon points="419.007611,352.920417 419.013264,356.99 419.613263,356.989167 419.607611,352.919583" fill="#000000" stroke="none" stroke-width="0" />
  <text x="378.23" y="387.34" font-size="10" dominant-baseline="alphabetic" text-anchor="start" fill="#000000" font-family="Arial"><tspan font-size="10" font-family="Arial" fill="#000000" font-weight="400" font-style="normal">CF</tspan><tspan font-size="7.5" font-family="Arial" fill="#000000" font-weight="400" font-style="normal" baseline-shift="-2.2">3</tspan></text>
  <polygon points="381.59,369.2132 381.59,378.47 382.19,378.47 382.19,369.2132 381.89,369.04" fill="#000000" stroke="none" stroke-width="0" />
  <text x="360.51" y="344.14" font-size="10" dominant-baseline="alphabetic" text-anchor="end" fill="#000000" font-family="Arial"><tspan font-size="10" font-family="Arial" fill="#000000" font-weight="400" font-style="normal">F</tspan><tspan font-size="7.5" font-family="Arial" fill="#000000" font-weight="400" font-style="normal" baseline-shift="-2.2">3</tspan><tspan font-size="10" font-family="Arial" fill="#000000" font-weight="400" font-style="normal">C</tspan></text>
  <polygon points="369.42,347.093585 361.66087,342.613574 361.360856,343.133181 369.12,347.6132 369.42,347.44" fill="#000000" stroke="none" stroke-width="0" />
  <polygon points="70.309916,351.141098 81.762671,342.814503 81.41,342.7 81.057329,342.585497 69.76,350.799092 69.76,351.17" fill="#000000" stroke="none" stroke-width="0" />
  <polygon points="81.762671,342.814503 77.177935,328.71 76.96,329.01 76.742065,329.31 81.057329,342.585497 81.41,342.7" fill="#000000" stroke="none" stroke-width="0" />
  <polygon points="77.177935,328.71 62.342065,328.71 62.56,329.01 62.777935,329.31 76.742065,329.31 76.96,329.01" fill="#000000" stroke="none" stroke-width="0" />
  <polygon points="62.342065,328.71 57.757329,342.814503 58.11,342.7 58.462671,342.585497 62.777935,329.31 62.56,329.01" fill="#000000" stroke="none" stroke-width="0" />
  <polygon points="57.757329,342.814503 69.210084,351.141098 69.76,351.17 69.76,350.799092 58.462671,342.585497 58.11,342.7" fill="#000000" stroke="none" stroke-width="0" />
  <text x="23.04" y="365.6" font-size="10" dominant-baseline="alphabetic" text-anchor="end" fill="#000000" font-family="Arial"><tspan font-size="10" font-family="Arial" fill="#000000" font-weight="400" font-style="normal">Ph</tspan></text>
  <polygon points="34.389413,362.88455 24.195645,360.610093 23.88,363.603498 34.324045,363.505229 34.5,363.21" fill="#000000" stroke="none" stroke-width="0" />
  <text x="115.84" y="365.6" font-size="10" dominant-baseline="alphabetic" text-anchor="start" fill="#000000" font-family="Arial"><tspan font-size="10" font-family="Arial" fill="#000000" font-weight="400" font-style="normal">Ph</tspan></text>
  <path d="M 107.5277 363.2472 L 108.1347 363.2814 L 108.0513 362.4905 L 107.4648 362.6505 Z" fill="#000000" stroke="none" />
  <path d="M 110.9704 363.4410 L 111.5773 363.4751 L 111.3778 361.5830 L 110.7914 361.7430 Z" fill="#000000" stroke="none" />
  <path d="M 114.4131 363.6347 L 115.0200 363.6689 L 114.7044 360.6755 L 114.1179 360.8355 Z" fill="#000000" stroke="none" />
  <polygon points="37.15,236.656731 37.15,251.0568 37.45,251.23 37.75,251.056731 37.75,237.003269" fill="#000000" stroke="none" stroke-width="0" />
  <polygon points="39.742,238.326492 39.742,249.733508 40.342,249.733508 40.342,238.326492" fill="#000000" stroke="none" stroke-width="0" />
  <polygon points="37.45006,251.576381 49.93006,258.776381 49.92994,258.083619 37.75,251.056731 37.45,251.23" fill="#000000" stroke="none" stroke-width="0" />
  <polygon points="49.93006,258.776381 62.7,251.4032 62.1,251.0568 49.92994,258.083619" fill="#000000" stroke="none" stroke-width="0" />
  <polygon points="50.079927,255.696958 59.958086,249.99345 59.658073,249.473842 49.779914,255.17735" fill="#000000" stroke="none" stroke-width="0" />
  <polygon points="62.7,251.4032 62.7,237.0032 62.4,236.83 62.1,237.0032 62.1,251.0568" fill="#000000" stroke="none" stroke-width="0" />
  <polygon points="62.4,236.483585 49.93006,229.283619 49.92994,229.976381 62.1,237.0032 62.4,236.83" fill="#000000" stroke="none" stroke-width="0" />
  <polygon points="59.958086,238.06655 50.079927,232.363042 49.779914,232.88265 59.658073,238.586158" fill="#000000" stroke="none" stroke-width="0" />
  <polygon points="49.93006,229.283619 37.15,236.656731 37.75,237.003269 49.92994,229.976381" fill="#000000" stroke="none" stroke-width="0" />
  <polygon points="62.7,237.0032 75.17,229.8032 74.87,229.63 74.57,229.4568 62.4,236.483585 62.4,236.83" fill="#000000" stroke="none" stroke-width="0" />
  <text x="85.57" y="240.73" font-size="10" dominant-baseline="alphabetic" text-anchor="start" fill="#000000" font-family="Arial"><tspan font-size="10" font-family="Arial" fill="#000000" font-weight="400" font-style="normal">•</tspan></text>
  <polygon points="74.57,228.306754 85.583168,234.6656 85.883181,234.145992 75.17,227.960354" fill="#000000" stroke="none" stroke-width="0" />
  <polygon points="73.574119,230.724638 84.287168,236.9102 84.587181,236.390592 73.574119,230.031807" fill="#000000" stroke="none" stroke-width="0" />
  <polygon points="90.389998,237.440995 101.105881,243.628193 101.105881,242.935362 90.690012,236.921388" fill="#000000" stroke="none" stroke-width="0" />
  <polygon points="89.093998,239.685595 99.51,245.699646 100.11,245.353246 89.394012,239.165988" fill="#000000" stroke="none" stroke-width="0" />
  <text x="108.69" y="240.73" font-size="10" dominant-baseline="alphabetic" text-anchor="start" fill="#ff0000" font-family="Arial"><tspan font-size="10" font-family="Arial" fill="#ff0000" font-weight="700" font-style="normal">H</tspan></text>
  <polygon points="100.11,244.2032 107.564173,239.899267 107.264159,239.379659 99.51,243.8568 99.81,244.03" fill="#000000" stroke="none" stroke-width="0" />
  <polygon points="75.17,229.8032 75.17,215.23 74.57,215.23 74.57,229.4568 74.87,229.63" fill="#000000" stroke="none" stroke-width="0" />
  <text x="27.84" y="262.33" font-size="10" dominant-baseline="alphabetic" text-anchor="end" fill="#000000" font-family="Arial"><tspan font-size="10" font-family="Arial" fill="#000000" font-weight="400" font-style="normal">Ph</tspan></text>
  <polygon points="37.15,251.0568 27.8918,256.402353 28.191814,256.92196 37.45006,251.576381 37.45,251.23" fill="#000000" stroke="none" stroke-width="0" />
  <polygon points="334.03,236.406731 334.03,250.8068 334.33,250.98 334.63,250.806731 334.63,236.753269" fill="#000000" stroke="none" stroke-width="0" />
  <polygon points="336.622,238.076492 336.622,249.483508 337.222,249.483508 337.222,238.076492" fill="#000000" stroke="none" stroke-width="0" />
  <polygon points="334.33006,251.326381 346.81006,258.526381 346.80994,257.833619 334.63,250.806731 334.33,250.98" fill="#000000" stroke="none" stroke-width="0" />
  <polygon points="346.81006,258.526381 359.58,251.1532 358.98,250.8068 346.80994,257.833619" fill="#000000" stroke="none" stroke-width="0" />
  <polygon points="346.959927,255.446958 356.838086,249.74345 356.538073,249.223842 346.659914,254.92735" fill="#000000" stroke="none" stroke-width="0" />
  <polygon points="359.58,251.1532 359.58,236.7532 359.28,236.58 358.98,236.7532 358.98,250.8068" fill="#000000" stroke="none" stroke-width="0" />
  <polygon points="359.28,236.233585 346.81006,229.033619 346.80994,229.726381 358.98,236.7532 359.28,236.58" fill="#000000" stroke="none" stroke-width="0" />
  <polygon points="356.838086,237.81655 346.959927,232.113042 346.659914,232.63265 356.538073,238.336158" fill="#000000" stroke="none" stroke-width="0" />
  <polygon points="346.81006,229.033619 334.03,236.406731 334.63,236.753269 346.80994,229.726381" fill="#000000" stroke="none" stroke-width="0" />
  <polygon points="359.58,236.7532 372.05,229.5532 371.75,229.38 371.45,229.2068 359.28,236.233585 359.28,236.58" fill="#000000" stroke="none" stroke-width="0" />
  <text x="382.45" y="240.48" font-size="10" dominant-baseline="alphabetic" text-anchor="start" fill="#000000" font-family="Arial"><tspan font-size="10" font-family="Arial" fill="#000000" font-weight="400" font-style="normal">•</tspan></text>
  <polygon points="371.45,228.056754 382.463168,234.4156 382.763181,233.895992 372.05,227.710354" fill="#000000" stroke="none" stroke-width="0" />
  <polygon points="370.454119,230.474638 381.167168,236.6602 381.467181,236.140592 370.454119,229.781807" fill="#000000" stroke="none" stroke-width="0" />
  <polygon points="387.269998,237.190995 397.187993,242.917504 397.488007,242.397896 387.570012,236.671388" fill="#000000" stroke="none" stroke-width="0" />
  <polygon points="385.973998,239.435595 396.256723,245.372693 397.106352,245.170426 386.274012,238.915988" fill="#000000" stroke="none" stroke-width="0" />
  <text x="405.57" y="240.48" font-size="10" dominant-baseline="alphabetic" text-anchor="start" fill="#ff0000" font-family="Arial"><tspan font-size="10" font-family="Arial" fill="#ff0000" font-weight="700" font-style="normal">CN</tspan></text>
  <path d="M 398.9964 242.7947 L 399.5687 242.5861 L 399.1632 241.8837 L 398.6964 242.2751 Z" fill="#000000" stroke="none" />
  <path d="M 401.9782 241.7079 L 402.5506 241.4993 L 401.5953 239.8447 L 401.1284 240.2361 Z" fill="#000000" stroke="none" />
  <path d="M 404.9600 240.6210 L 405.5324 240.4124 L 404.0273 237.8057 L 403.5605 238.1971 Z" fill="#000000" stroke="none" />
  <polygon points="372.05,229.5532 372.05,214.98 371.45,214.98 371.45,229.2068 371.75,229.38" fill="#000000" stroke="none" stroke-width="0" />
  <text x="324.72" y="262.08" font-size="10" dominant-baseline="alphabetic" text-anchor="end" fill="#000000" font-family="Arial"><tspan font-size="10" font-family="Arial" fill="#000000" font-weight="400" font-style="normal">Ph</tspan></text>
  <polygon points="334.03,250.8068 324.7718,256.152353 325.071814,256.67196 334.33006,251.326381 334.33,250.98" fill="#000000" stroke="none" stroke-width="0" />
  <polygon points="396.39,243.78 395.226712,257.681534 398.240947,258.729079 396.99,243.78" fill="#000000" stroke="none" stroke-width="0" />
  <text x="63.9" y="407.76" font-size="10" dominant-baseline="alphabetic" text-anchor="start" fill="#000000" font-family="Arial"><tspan font-size="10" font-family="Arial" fill="#000000" font-weight="700" font-style="normal">L1</tspan></text>
  <text x="378.4" y="405.7" font-size="10" dominant-baseline="alphabetic" text-anchor="middle" fill="#000000" font-family="Arial"><tspan font-size="10" font-family="Arial" fill="#000000" font-weight="700" font-style="normal">N</tspan><tspan font-size="10" font-family="Arial" fill="#000000" font-weight="700" font-style="normal">F-1 </tspan><tspan font-size="10" font-family="Arial" fill="#000000" font-weight="400" font-style="normal">R =</tspan></text>
  <polygon points="99.51,243.8568 99.51,258.6032 99.81,258.43 100.11,258.2568 100.11,244.2032 99.81,244.03" fill="#000000" stroke="none" stroke-width="0" />
  <polygon points="99.51,258.6032 112.28,265.976415 112.28,265.63 112.28,265.283585 100.11,258.2568 99.81,258.43" fill="#000000" stroke="none" stroke-width="0" />
  <polygon points="112.28,265.976415 124.75,258.776415 124.75,258.43 124.75,258.083585 112.28,265.283585 112.28,265.63" fill="#000000" stroke="none" stroke-width="0" />
  <polygon points="124.75,258.776415 137.22,265.976415 137.22,265.63 137.22,265.283585 124.75,258.083585 124.75,258.43" fill="#000000" stroke="none" stroke-width="0" />
  <polygon points="137.22,265.976415 149.840007,258.689804 149.539993,258.170196 137.22,265.283585 137.22,265.63" fill="#000000" stroke="none" stroke-width="0" />
  <polygon points="395.226712,257.681534 409.16,265.726415 409.16,265.38 409.16,265.033585 398.240947,258.729079" fill="#000000" stroke="none" stroke-width="0" />
  <polygon points="409.16,265.726415 421.63,258.526415 421.63,258.18 421.63,257.833585 409.16,265.033585 409.16,265.38" fill="#000000" stroke="none" stroke-width="0" />
  <polygon points="421.63,258.526415 434.1,265.726415 434.1,265.38 434.1,265.033585 421.63,257.833585 421.63,258.18" fill="#000000" stroke="none" stroke-width="0" />
  <polygon points="434.1,265.726415 446.720007,258.439804 446.419993,257.920196 434.1,265.033585 434.1,265.38" fill="#000000" stroke="none" stroke-width="0" />
  <text x="76.69" y="271.97" font-size="10" dominant-baseline="alphabetic" text-anchor="middle" fill="#000000" font-family="Arial"><tspan font-size="10" font-family="Arial" fill="#000000" font-weight="700" font-style="normal">1a</tspan></text>
  <text x="187.58" y="288.1" font-size="10" dominant-baseline="alphabetic" text-anchor="start" fill="#800080" font-family="Arial"><tspan font-size="10" font-family="Arial" fill="#800080" font-weight="400" font-style="normal">"standard conditions"</tspan></text>
  <polygon points="194.462437,346.673341 206.65,339.636415 206.65,339.29 206.240189,339.180203 194.162325,346.15379 194.18,346.49" fill="#000000" stroke="none" stroke-width="0" />
  <polygon points="206.65,339.636415 218.837676,346.673406 219.12,346.49 219.137722,346.153817 207.059811,339.180203 206.65,339.29" fill="#000000" stroke="none" stroke-width="0" />
  <text x="177.12" y="344.54" font-size="10" dominant-baseline="alphabetic" text-anchor="start" fill="#000000" font-family="Arial"><tspan font-size="10" font-family="Arial" fill="#000000" font-weight="400" font-style="normal">O</tspan></text>
  <text x="189.1" y="364.71" font-size="10" dominant-baseline="alphabetic" text-anchor="start" fill="#000000" font-family="Arial"><tspan font-size="10" font-family="Arial" fill="#000000" font-weight="400" font-style="normal">N</tspan></text>
  <polygon points="194.162325,346.15379 185.933418,342.493022 185.689542,343.041223 193.858927,346.675512 194.18,346.49" fill="#000000" stroke="none" stroke-width="0" />
  <polygon points="177.139911,344.50964 171.240681,351.05754 171.39,351.34 171.758827,351.378815 177.585681,344.911249" fill="#000000" stroke="none" stroke-width="0" />
  <polygon points="171.248496,351.694895 178.211896,363.755116 178.59,363.81 178.740781,363.471172 171.758827,351.378815 171.39,351.34" fill="#000000" stroke="none" stroke-width="0" />
  <polygon points="178.759968,364.080536 188.27,362.055688 188.145051,361.468843 178.740781,363.471172 178.59,363.81" fill="#000000" stroke="none" stroke-width="0" />
  <polygon points="193.481634,356.036737 194.462437,346.673341 194.18,346.49 193.858927,346.675512 192.884899,355.97423" fill="#000000" stroke="none" stroke-width="0" />
  <polygon points="190.904034,355.766737 191.744883,347.739432 191.148148,347.676924 190.307299,355.70423" fill="#000000" stroke="none" stroke-width="0" />
  <text x="217.05" y="364.71" font-size="10" dominant-baseline="alphabetic" text-anchor="start" fill="#000000" font-family="Arial"><tspan font-size="10" font-family="Arial" fill="#000000" font-weight="400" font-style="normal">N</tspan></text>
  <text x="228.37" y="344.54" font-size="10" dominant-baseline="alphabetic" text-anchor="start" fill="#000000" font-family="Arial"><tspan font-size="10" font-family="Arial" fill="#000000" font-weight="400" font-style="normal">O</tspan></text>
  <polygon points="218.837676,346.673406 219.825097,356.037551 220.421789,355.974632 219.441225,346.675512 219.12,346.49" fill="#000000" stroke="none" stroke-width="0" />
  <polygon points="221.556178,347.737838 222.402697,355.765751 222.999389,355.702832 222.15287,347.674918" fill="#000000" stroke="none" stroke-width="0" />
  <polygon points="225.04,362.056365 234.860764,364.148857 234.71,363.81 234.559236,363.471143 225.165034,361.469537" fill="#000000" stroke="none" stroke-width="0" />
  <polygon points="234.860764,364.148857 242.278768,351.301288 241.91,351.34 241.541232,351.378712 234.559236,363.471143 234.71,363.81" fill="#000000" stroke="none" stroke-width="0" />
  <polygon points="242.278768,351.301288 236.173505,344.517663 235.727529,344.919042 241.541232,351.378712 241.91,351.34" fill="#000000" stroke="none" stroke-width="0" />
  <polygon points="227.376251,342.491552 219.137722,346.153817 219.12,346.49 219.441225,346.675512 227.619973,343.039822" fill="#000000" stroke="none" stroke-width="0" />
  <polygon points="171.240681,351.05754 157.165818,352.836538 157.450971,355.853914 171.248496,351.694895 171.39,351.34" fill="#000000" stroke="none" stroke-width="0" />
  <polygon points="157.165818,352.836538 155.515648,368.485827 155.8,368.65 156.12121,368.464633 157.450971,355.853914" fill="#000000" stroke="none" stroke-width="0" />
  <polygon points="155.836261,368.994545 168.679683,374.713576 168.96,374.51 167.71121,373.62553 156.12121,368.464633 155.8,368.65" fill="#000000" stroke="none" stroke-width="0" />
  <polygon points="155.990793,371.901847 166.415538,376.543868 166.659607,375.995753 156.234862,371.353732" fill="#000000" stroke="none" stroke-width="0" />
  <polygon points="178.211896,363.755116 167.71121,373.62553 168.96,374.51 169.453383,376.340493 178.759968,364.080536 178.59,363.81" fill="#000000" stroke="none" stroke-width="0" />
  <path d="M 236.1538 365.8607 L 236.4984 366.3579 L 237.0582 365.8535 L 236.5996 365.4591 Z" fill="#000000" stroke="none" />
  <path d="M 237.8427 368.2973 L 238.1873 368.7944 L 239.3059 367.7866 L 238.8473 367.3922 Z" fill="#000000" stroke="none" />
  <path d="M 239.5317 370.7338 L 239.8763 371.2309 L 241.5537 369.7196 L 241.0951 369.3252 Z" fill="#000000" stroke="none" />
  <path d="M 241.2206 373.1703 L 241.5652 373.6674 L 243.8015 371.6527 L 243.3428 371.2583 Z" fill="#000000" stroke="none" />
  <polygon points="244.630197,374.713576 257.463785,368.994578 257.5,368.65 257.178942,368.464633 244.069803,374.306424" fill="#000000" stroke="none" stroke-width="0" />
  <polygon points="246.8935,376.542034 257.310324,371.900012 257.0661,371.351966 246.649276,375.993988" fill="#000000" stroke="none" stroke-width="0" />
  <polygon points="257.784452,368.4859 256.298368,354.298746 255.701632,354.361254 257.178942,368.464633 257.5,368.65" fill="#000000" stroke="none" stroke-width="0" />
  <path d="M 244.2835 352.1504 L 244.8545 352.3500 L 245.0109 351.6129 L 244.4080 351.5634 Z" fill="#000000" stroke="none" />
  <path d="M 247.0826 353.1288 L 247.6536 353.3284 L 247.9661 351.8556 L 247.3633 351.8061 Z" fill="#000000" stroke="none" />
  <path d="M 249.8817 354.1073 L 250.4527 354.3069 L 250.9214 352.0982 L 250.3185 352.0487 Z" fill="#000000" stroke="none" />
  <path d="M 252.6808 355.0857 L 253.2518 355.2853 L 253.8767 352.3409 L 253.2738 352.2914 Z" fill="#000000" stroke="none" />
  <polygon points="155.515648,368.485827 143.833491,376.979207 144.466509,377.260793 155.836261,368.994545 155.8,368.65" fill="#000000" stroke="none" stroke-width="0" />
  <polygon points="143.833491,376.979207 145.379817,391.643702 145.940183,391.236298 144.466509,377.260793" fill="#000000" stroke="none" stroke-width="0" />
  <polygon points="146.586178,378.367838 147.78233,389.711482 148.379022,389.648562 147.18287,378.304918" fill="#000000" stroke="none" stroke-width="0" />
  <polygon points="145.379817,391.643702 158.846215,397.634458 158.773785,396.945542 145.940183,391.236298" fill="#000000" stroke="none" stroke-width="0" />
  <polygon points="158.846215,397.634458 170.776409,388.970986 170.143591,388.689014 158.773785,396.945542" fill="#000000" stroke="none" stroke-width="0" />
  <polygon points="158.674182,394.556558 167.902774,387.854936 167.550218,387.369442 158.321626,394.071064" fill="#000000" stroke="none" stroke-width="0" />
  <polygon points="170.776409,388.970986 169.453383,376.340493 168.96,374.51 168.679683,374.713576 170.143591,388.689014" fill="#000000" stroke="none" stroke-width="0" />
  <polygon points="244.069803,374.306424 242.523479,388.970905 243.156521,388.689095 244.630197,374.713576" fill="#000000" stroke="none" stroke-width="0" />
  <polygon points="242.523479,388.970905 254.453739,397.634425 254.526261,396.945575 243.156521,388.689095" fill="#000000" stroke="none" stroke-width="0" />
  <polygon points="245.397226,387.854936 254.625818,394.556558 254.978374,394.071064 245.749782,387.369442" fill="#000000" stroke="none" stroke-width="0" />
  <polygon points="254.453739,397.634425 267.930304,391.643702 267.369696,391.236298 254.526261,396.945575" fill="#000000" stroke="none" stroke-width="0" />
  <polygon points="267.930304,391.643702 269.466398,376.979125 268.833602,377.260875 267.369696,391.236298" fill="#000000" stroke="none" stroke-width="0" />
  <polygon points="265.526652,389.713076 266.714883,378.369432 266.118148,378.306924 264.929917,389.650568" fill="#000000" stroke="none" stroke-width="0" />
  <polygon points="269.466398,376.979125 257.784452,368.4859 257.5,368.65 257.463785,368.994578 268.833602,377.260875" fill="#000000" stroke="none" stroke-width="0" />
  <text x="209.91" y="330.72" font-size="10" dominant-baseline="alphabetic" text-anchor="start" fill="#000000" font-family="Arial"><tspan font-size="10" font-family="Arial" fill="#000000" font-weight="400" font-style="normal">R</tspan></text>
  <text x="195.51" y="330.72" font-size="10" dominant-baseline="alphabetic" text-anchor="start" fill="#000000" font-family="Arial"><tspan font-size="10" font-family="Arial" fill="#000000" font-weight="400" font-style="normal">R</tspan></text>
  <polygon points="207.059811,339.180203 210.851274,332.6136 210.331667,332.313586 206.65,338.690028 206.65,339.29" fill="#000000" stroke="none" stroke-width="0" />
  <polygon points="202.448726,332.6136 206.240189,339.180203 206.65,339.29 206.65,338.690028 202.968333,332.313586" fill="#000000" stroke="none" stroke-width="0" />
  <text x="172.57" y="409.26" font-size="10" dominant-baseline="alphabetic" text-anchor="start" fill="#000000" font-family="Arial"><tspan font-size="10" font-family="Arial" fill="#000000" font-weight="700" font-style="normal">L2</tspan><tspan font-size="10" font-family="Arial" fill="#000000" font-weight="400" font-style="normal"> R = (CH</tspan><tspan font-size="7.5" font-family="Arial" fill="#000000" font-weight="400" font-style="normal" baseline-shift="-2.2">2</tspan><tspan font-size="10" font-family="Arial" fill="#000000" font-weight="400" font-style="normal">)</tspan><tspan font-size="7.5" font-family="Arial" fill="#000000" font-weight="400" font-style="normal" baseline-shift="-2.2">2</tspan></text>
  <text x="172.57" y="422.71" font-size="10" dominant-baseline="alphabetic" text-anchor="start" fill="#000000" font-family="Arial"><tspan font-size="10" font-family="Arial" fill="#000000" font-weight="700" font-style="normal">L3 </tspan><tspan font-size="10" font-family="Arial" fill="#000000" font-weight="400" font-style="normal">R = CH</tspan><tspan font-size="7.5" font-family="Arial" fill="#000000" font-weight="400" font-style="normal" baseline-shift="-2.2">2</tspan><tspan font-size="10" font-family="Arial" fill="#000000" font-weight="400" font-style="normal">OH</tspan></text>
  <polyline points="10.12,309.48 447.63,309.48" fill="none" stroke="#000000" stroke-width="0.6" stroke-dasharray="2.49" stroke-linecap="butt" stroke-linejoin="miter" />
  <polygon points="405.180075,403.579765 415.000075,397.906424 415,397.56 414.590274,397.450245 404.879925,403.060235" fill="#000000" stroke="none" stroke-width="0" />
  <text x="422.18" y="406.44" font-size="8" dominant-baseline="alphabetic" text-anchor="start" fill="#000000" font-family="Arial"><tspan font-size="8" font-family="Arial" fill="#000000" font-weight="400" font-style="normal">Ph</tspan></text>
  <polygon points="415.000075,397.906424 420.699353,401.195787 420.999277,400.676128 415.409791,397.450132 415,397.56" fill="#000000" stroke="none" stroke-width="0" />
  <polygon points="415,396.959847 409.49983,387.430038 408.98017,387.729962 414.590274,397.450245 415,397.56" fill="#000000" stroke="none" stroke-width="0" />
  <polygon points="415.409791,397.450132 421.01983,387.729962 420.50017,387.430038 415,396.959847 415,397.56" fill="#000000" stroke="none" stroke-width="0" />
  <polygon points="406.526699,402.859519 406.176525,402.253402 410.670452,399.657112 411.020626,400.263229" fill="#ffffff" stroke="none" stroke-width="0" />
  <path d="M 405.6300 396.1200 C 405.2312,396.3504 404.9902,397.0216 405.2206,397.4204 C 405.4511,397.8193 406.1529,397.9458 406.5517,397.7154 C 406.9506,397.4850 407.6523,397.6115 407.8828,398.0103 C 408.1132,398.4092 407.8723,399.0803 407.4734,399.3108 C 407.0746,399.5412 406.8336,400.2124 407.0641,400.6112 C 407.2945,401.0101 407.9963,401.1366 408.3951,400.9062 C 408.7940,400.6757 409.4958,400.8023 409.7262,401.2011 C 409.9566,401.6000 409.7157,402.2711 409.3168,402.5015 C 408.9180,402.7320 408.6770,403.4031 408.9075,403.8020 C 409.1379,404.2008 409.8397,404.3274 410.2385,404.0969 C 410.6374,403.8665 411.3392,403.9930 411.5696,404.3919 C 411.8000,404.7907 411.5591,405.4619 411.1602,405.6923" fill="none" stroke="#000000" stroke-width="0.6" stroke-linejoin="bevel" />
  <text x="385.41" y="420.7" font-size="10" dominant-baseline="alphabetic" text-anchor="middle" fill="#000000" font-family="Arial"><tspan font-size="10" font-family="Arial" fill="#000000" font-weight="700" font-style="normal">N</tspan><tspan font-size="10" font-family="Arial" fill="#000000" font-weight="700" font-style="normal">F-2 </tspan><tspan font-size="10" font-family="Arial" fill="#000000" font-weight="400" font-style="normal">R = Ad</tspan></text>
  <polyline points="311.12,323.75 311.12,425.25" fill="none" stroke="#808080" stroke-width="0.6" stroke-linecap="butt" stroke-linejoin="miter" />
</svg>
