<svg xmlns="http://www.w3.org/2000/svg" width="541.117" height="496.68" viewBox="-8.437 70.07 541.117 496.68">
  <path d="M 204.29000000000002,258.25 C 204.29000000000002,263.02174023853803 208.15825976146195,266.89 212.93,266.89 C 217.70174023853806,266.89 221.57,263.02174023853803 221.57,258.25 C 221.57,253.47825976146194 217.70174023853806,249.61 212.93,249.61 C 208.15825976146195,249.61 204.29000000000002,253.47825976146194 204.29000000000002,258.25" fill="#c0c0c0" stroke="none" />
  <path d="M 204.39121409107938,258.11499940236627 C 204.39121409107938,262.75628187064206 208.15371693409048,266.51878471365313 212.79499940236627,266.51878471365313 C 217.43628187064206,266.51878471365313 221.19878471365317,262.75628187064206 221.19878471365317,258.11499940236627 C 221.19878471365317,253.47371693409048 217.43628187064206,249.71121409107937 212.79499940236627,249.71121409107937 C 208.15371693409048,249.71121409107937 204.39121409107938,253.47371693409048 204.39121409107938,258.11499940236627" fill="#c2c2c2" stroke="none" />
  <path d="M 204.4924281821588,257.97999880473253 C 204.4924281821588,262.490823502746 208.14917410671907,266.14756942730634 212.65999880473257,266.14756942730634 C 217.17082350274606,266.14756942730634 220.82756942730634,262.490823502746 220.82756942730634,257.97999880473253 C 220.82756942730634,253.46917410671904 217.17082350274606,249.81242818215875 212.65999880473257,249.81242818215875 C 208.14917410671907,249.81242818215875 204.4924281821588,253.46917410671904 204.4924281821588,257.97999880473253" fill="#c4c4c4" stroke="none" />
  <path d="M 204.59364227323815,257.84499820709885 C 204.59364227323815,262.2253651348501 208.1446312793476,265.77635414095954 212.52499820709883,265.77635414095954 C 216.90536513485006,265.77635414095954 220.45635414095952,262.2253651348501 220.45635414095952,257.84499820709885 C 220.45635414095952,253.46463127934763 216.90536513485006,249.91364227323817 212.52499820709883,249.91364227323817 C 208.1446312793476,249.91364227323817 204.59364227323815,253.46463127934763 204.59364227323815,257.84499820709885" fill="#c6c6c6" stroke="none" />
  <path d="M 204.69485636431753,257.7099976094651 C 204.69485636431753,261.9599067669541 208.14008845197617,265.4051388546127 212.38999760946513,265.4051388546127 C 216.63990676695408,265.4051388546127 220.08513885461272,261.9599067669541 220.08513885461272,257.7099976094651 C 220.08513885461272,253.46008845197616 216.63990676695408,250.01485636431752 212.38999760946513,250.01485636431752 C 208.14008845197617,250.01485636431752 204.69485636431753,253.46008845197616 204.69485636431753,257.7099976094651" fill="#c8c8c8" stroke="none" />
  <path d="M 204.79607045539692,257.5749970118314 C 204.79607045539692,261.69444839905805 208.1355456246047,265.0339235682659 212.2549970118314,265.0339235682659 C 216.37444839905808,265.0339235682659 219.71392356826587,261.69444839905805 219.71392356826587,257.5749970118314 C 219.71392356826587,253.4555456246047 216.37444839905808,250.1160704553969 212.2549970118314,250.1160704553969 C 208.1355456246047,250.1160704553969 204.79607045539692,253.4555456246047 204.79607045539692,257.5749970118314" fill="#cacaca" stroke="none" />
  <path d="M 204.8972845464763,257.43999641419765 C 204.8972845464763,261.4289900311621 208.13100279723326,264.66270828191904 212.1199964141977,264.66270828191904 C 216.1089900311621,264.66270828191904 219.34270828191907,261.4289900311621 219.34270828191907,257.43999641419765 C 219.34270828191907,253.45100279723323 216.1089900311621,250.21728454647626 212.1199964141977,250.21728454647626 C 208.13100279723326,250.21728454647626 204.8972845464763,253.45100279723323 204.8972845464763,257.43999641419765" fill="#cccccc" stroke="none" />
  <path d="M 204.99849863755566,257.304995816564 C 204.99849863755566,261.1635316632661 208.12645996986183,264.29149299557224 211.98499581656395,264.29149299557224 C 215.84353166326608,264.29149299557224 218.97149299557225,261.1635316632661 218.97149299557225,257.304995816564 C 218.97149299557225,253.44645996986185 215.84353166326608,250.31849863755568 211.98499581656395,250.31849863755568 C 208.12645996986183,250.31849863755568 204.99849863755566,253.44645996986185 204.99849863755566,257.304995816564" fill="#cecece" stroke="none" />
  <path d="M 205.09971272863507,257.16999521893024 C 205.09971272863507,260.8980732953701 208.1219171424904,263.92027770922545 211.84999521893025,263.92027770922545 C 215.5780732953701,263.92027770922545 218.60027770922542,260.8980732953701 218.60027770922542,257.16999521893024 C 218.60027770922542,253.44191714249038 215.5780732953701,250.41971272863506 211.84999521893025,250.41971272863506 C 208.1219171424904,250.41971272863506 205.09971272863507,253.44191714249038 205.09971272863507,257.16999521893024" fill="#d0d0d0" stroke="none" />
  <path d="M 205.20092681971443,257.0349946212965 C 205.20092681971443,260.6326149274741 208.11737431511892,263.5490624228786 211.7149946212965,263.5490624228786 C 215.3126149274741,263.5490624228786 218.2290624228786,260.6326149274741 218.2290624228786,257.0349946212965 C 218.2290624228786,253.43737431511892 215.3126149274741,250.52092681971442 211.7149946212965,250.52092681971442 C 208.11737431511892,250.52092681971442 205.20092681971443,253.43737431511892 205.20092681971443,257.0349946212965" fill="#d2d2d2" stroke="none" />
  <path d="M 205.3021409107938,256.89999402366277 C 205.3021409107938,260.36715655957806 208.11283148774748,263.17784713653174 211.5799940236628,263.17784713653174 C 215.04715655957813,263.17784713653174 217.8578471365318,260.36715655957806 217.8578471365318,256.89999402366277 C 217.8578471365318,253.43283148774745 215.04715655957813,250.62214091079377 211.5799940236628,250.62214091079377 C 208.11283148774748,250.62214091079377 205.3021409107938,253.43283148774745 205.3021409107938,256.89999402366277" fill="#d4d4d4" stroke="none" />
  <path d="M 205.40335500187317,256.7649934260291 C 205.40335500187317,260.10169819168215 208.10828866037602,262.806631850185 211.44499342602907,262.806631850185 C 214.78169819168212,262.806631850185 217.48663185018498,260.10169819168215 217.48663185018498,256.7649934260291 C 217.48663185018498,253.42828866037604 214.78169819168212,250.7233550018732 211.44499342602907,250.7233550018732 C 208.10828866037602,250.7233550018732 205.40335500187317,253.42828866037604 205.40335500187317,256.7649934260291" fill="#d6d6d6" stroke="none" />
  <path d="M 205.50456909295258,256.62999282839536 C 205.50456909295258,259.8362398237861 208.10374583300458,262.43541656383815 211.30999282839537,262.43541656383815 C 214.51623982378615,262.43541656383815 217.11541656383815,259.8362398237861 217.11541656383815,256.62999282839536 C 217.11541656383815,253.42374583300457 214.51623982378615,250.82456909295257 211.30999282839537,250.82456909295257 C 208.10374583300458,250.82456909295257 205.50456909295258,253.42374583300457 205.50456909295258,256.62999282839536" fill="#d8d8d8" stroke="none" />
  <path d="M 205.60578318403194,256.4949922307616 C 205.60578318403194,259.57078145589014 208.09920300563314,262.0642012774913 211.17499223076163,262.0642012774913 C 214.25078145589012,262.0642012774913 216.74420127749133,259.57078145589014 216.74420127749133,256.4949922307616 C 216.74420127749133,253.41920300563314 214.25078145589012,250.92578318403193 211.17499223076163,250.92578318403193 C 208.09920300563314,250.92578318403193 205.60578318403194,253.41920300563314 205.60578318403194,256.4949922307616" fill="#dadada" stroke="none" />
  <path d="M 205.70699727511132,256.3599916331279 C 205.70699727511132,259.3053230879941 208.0946601782617,261.6929859911445 211.03999163312793,261.6929859911445 C 213.98532308799415,261.6929859911445 216.37298599114453,259.3053230879941 216.37298599114453,256.3599916331279 C 216.37298599114453,253.41466017826167 213.98532308799415,251.02699727511128 211.03999163312793,251.02699727511128 C 208.0946601782617,251.02699727511128 205.70699727511132,253.41466017826167 205.70699727511132,256.3599916331279" fill="#dcdcdc" stroke="none" />
  <path d="M 205.8082113661907,256.2249910354942 C 205.8082113661907,259.0398647200982 208.09011735089024,261.3217707047977 210.9049910354942,261.3217707047977 C 213.71986472009814,261.3217707047977 216.00177070479768,259.0398647200982 216.00177070479768,256.2249910354942 C 216.00177070479768,253.41011735089026 213.71986472009814,251.12821136619073 210.9049910354942,251.12821136619073 C 208.09011735089024,251.12821136619073 205.8082113661907,253.41011735089026 205.8082113661907,256.2249910354942" fill="#dedede" stroke="none" />
  <path d="M 205.9094254572701,256.0899904378605 C 205.9094254572701,258.77440635220216 208.0855745235188,260.95055541845085 210.76999043786049,260.95055541845085 C 213.45440635220217,260.95055541845085 215.63055541845088,258.77440635220216 215.63055541845088,256.0899904378605 C 215.63055541845088,253.4055745235188 213.45440635220217,251.22942545727008 210.76999043786049,251.22942545727008 C 208.0855745235188,251.22942545727008 205.9094254572701,253.4055745235188 205.9094254572701,256.0899904378605" fill="#e1e1e1" stroke="none" />
  <path d="M 206.01063954834945,255.95498984022674 C 206.01063954834945,258.50894798430613 208.08103169614733,260.57934013210405 210.63498984022675,260.57934013210405 C 213.18894798430617,260.57934013210405 215.25934013210406,258.50894798430613 215.25934013210406,255.95498984022674 C 215.25934013210406,253.40103169614733 213.18894798430617,251.33063954834944 210.63498984022675,251.33063954834944 C 208.08103169614733,251.33063954834944 206.01063954834945,253.40103169614733 206.01063954834945,255.95498984022674" fill="#e3e3e3" stroke="none" />
  <path d="M 206.11185363942886,255.81998924259304 C 206.11185363942886,258.24348961641016 208.0764888687759,260.20812484575725 210.49998924259305,260.20812484575725 C 212.9234896164102,260.20812484575725 214.88812484575723,258.24348961641016 214.88812484575723,255.81998924259304 C 214.88812484575723,253.3964888687759 212.9234896164102,251.43185363942885 210.49998924259305,251.43185363942885 C 208.0764888687759,251.43185363942885 206.11185363942886,253.3964888687759 206.11185363942886,255.81998924259304" fill="#e5e5e5" stroke="none" />
  <path d="M 206.21306773050821,255.6849886449593 C 206.21306773050821,257.9780312485142 208.07194604140446,259.8369095594104 210.3649886449593,259.8369095594104 C 212.65803124851416,259.8369095594104 214.5169095594104,257.9780312485142 214.5169095594104,255.6849886449593 C 214.5169095594104,253.39194604140445 212.65803124851416,251.5330677305082 210.3649886449593,251.5330677305082 C 208.07194604140446,251.5330677305082 206.21306773050821,253.39194604140445 206.21306773050821,255.6849886449593" fill="#e7e7e7" stroke="none" />
  <path d="M 206.3142818215876,255.5499880473256 C 206.3142818215876,257.7125728806182 208.06740321403302,259.4656942730636 210.2299880473256,259.4656942730636 C 212.3925728806182,259.4656942730636 214.1456942730636,257.7125728806182 214.1456942730636,255.5499880473256 C 214.1456942730636,253.38740321403301 212.3925728806182,251.6342818215876 210.2299880473256,251.6342818215876 C 208.06740321403302,251.6342818215876 206.3142818215876,253.38740321403301 206.3142818215876,255.5499880473256" fill="#e9e9e9" stroke="none" />
  <path d="M 206.41549591266698,255.41498744969186 C 206.41549591266698,257.4471145127222 208.06286038666155,259.09447898671675 210.09498744969187,259.09447898671675 C 212.1271145127222,259.09447898671675 213.77447898671676,257.4471145127222 213.77447898671676,255.41498744969186 C 213.77447898671676,253.38286038666155 212.1271145127222,251.73549591266698 210.09498744969187,251.73549591266698 C 208.06286038666155,251.73549591266698 206.41549591266698,253.38286038666155 206.41549591266698,255.41498744969186" fill="#ebebeb" stroke="none" />
  <path d="M 206.51671000374637,255.27998685205816 C 206.51671000374637,257.1816561448262 208.05831755929012,258.72326370036996 209.95998685205817,258.72326370036996 C 211.8616561448262,258.72326370036996 213.40326370036996,257.1816561448262 213.40326370036996,255.27998685205816 C 213.40326370036996,253.3783175592901 211.8616561448262,251.83671000374636 209.95998685205817,251.83671000374636 C 208.05831755929012,251.83671000374636 206.51671000374637,253.3783175592901 206.51671000374637,255.27998685205816" fill="#ededed" stroke="none" />
  <path d="M 206.61792409482572,255.14498625442442 C 206.61792409482572,256.9161977769302 208.05377473191865,258.3520484140231 209.82498625442443,258.3520484140231 C 211.5961977769302,258.3520484140231 213.03204841402314,256.9161977769302 213.03204841402314,255.14498625442442 C 213.03204841402314,253.37377473191864 211.5961977769302,251.93792409482572 209.82498625442443,251.93792409482572 C 208.05377473191865,251.93792409482572 206.61792409482572,253.37377473191864 206.61792409482572,255.14498625442442" fill="#efefef" stroke="none" />
  <path d="M 206.71913818590514,255.00998565679072 C 206.71913818590514,256.6507394090342 208.0492319045472,257.9808331276763 209.68998565679072,257.9808331276763 C 211.33073940903424,257.9808331276763 212.6608331276763,256.6507394090342 212.6608331276763,255.00998565679072 C 212.6608331276763,253.3692319045472 211.33073940903424,252.03913818590513 209.68998565679072,252.03913818590513 C 208.0492319045472,252.03913818590513 206.71913818590514,253.3692319045472 206.71913818590514,255.00998565679072" fill="#f1f1f1" stroke="none" />
  <path d="M 206.8203522769845,254.87498505915698 C 206.8203522769845,256.3852810411382 208.04468907717578,257.6096178413295 209.554985059157,257.6096178413295 C 211.0652810411382,257.6096178413295 212.2896178413295,256.3852810411382 212.2896178413295,254.87498505915698 C 212.2896178413295,253.36468907717577 211.0652810411382,252.1403522769845 209.554985059157,252.1403522769845 C 208.04468907717578,252.1403522769845 206.8203522769845,253.36468907717577 206.8203522769845,254.87498505915698" fill="#f3f3f3" stroke="none" />
  <path d="M 206.92156636806388,254.73998446152328 C 206.92156636806388,256.11982267324225 208.04014624980434,257.23840255498266 209.41998446152328,257.23840255498266 C 210.79982267324223,257.23840255498266 211.9184025549827,256.11982267324225 211.9184025549827,254.73998446152328 C 211.9184025549827,253.36014624980433 210.79982267324223,252.24156636806387 209.41998446152328,252.24156636806387 C 208.04014624980434,252.24156636806387 206.92156636806388,253.36014624980433 206.92156636806388,254.73998446152328" fill="#f5f5f5" stroke="none" />
  <path d="M 207.02278045914323,254.60498386388954 C 207.02278045914323,255.85436430534622 208.03560342243287,256.86718726863586 209.28498386388955,256.86718726863586 C 210.53436430534623,256.86718726863586 211.54718726863587,255.85436430534622 211.54718726863587,254.60498386388954 C 211.54718726863587,253.35560342243286 210.53436430534623,252.34278045914323 209.28498386388955,252.34278045914323 C 208.03560342243287,252.34278045914323 207.02278045914323,253.35560342243286 207.02278045914323,254.60498386388954" fill="#f7f7f7" stroke="none" />
  <path d="M 207.12399455022265,254.46998326625584 C 207.12399455022265,255.58890593745025 208.03106059506143,256.49597198228906 209.14998326625584,256.49597198228906 C 210.26890593745026,256.49597198228906 211.17597198228904,255.58890593745025 211.17597198228904,254.46998326625584 C 211.17597198228904,253.35106059506143 210.26890593745026,252.44399455022264 209.14998326625584,252.44399455022264 C 208.03106059506143,252.44399455022264 207.12399455022265,253.35106059506143 207.12399455022265,254.46998326625584" fill="#f9f9f9" stroke="none" />
  <path d="M 207.225208641302,254.3349826686221 C 207.225208641302,255.32344756955425 208.02651776768997,256.1247566959422 209.0149826686221,256.1247566959422 C 210.00344756955425,256.1247566959422 210.80475669594222,255.32344756955425 210.80475669594222,254.3349826686221 C 210.80475669594222,253.34651776768996 210.00344756955425,252.545208641302 209.0149826686221,252.545208641302 C 208.02651776768997,252.545208641302 207.225208641302,253.34651776768996 207.225208641302,254.3349826686221" fill="#fbfbfb" stroke="none" />
  <path d="M 207.3264227323814,254.1999820709884 C 207.3264227323814,255.05798920165827 208.02197494031853,255.7535414095954 208.8799820709884,255.7535414095954 C 209.73798920165828,255.7535414095954 210.43354140959542,255.05798920165827 210.43354140959542,254.1999820709884 C 210.43354140959542,253.34197494031852 209.73798920165828,252.64642273238138 208.8799820709884,252.64642273238138 C 208.02197494031853,252.64642273238138 207.3264227323814,253.34197494031852 207.3264227323814,254.1999820709884" fill="#fdfdfd" stroke="none" />
  <path d="M 207.42763682346077,254.06498147335466 C 207.42763682346077,254.79253083376224 208.0174321129471,255.38232612324856 208.74498147335467,255.38232612324856 C 209.47253083376225,255.38232612324856 210.06232612324857,254.79253083376224 210.06232612324857,254.06498147335466 C 210.06232612324857,253.33743211294708 209.47253083376225,252.74763682346077 208.74498147335467,252.74763682346077 C 208.0174321129471,252.74763682346077 207.42763682346077,253.33743211294708 207.42763682346077,254.06498147335466" fill="#ffffff" stroke="none" />
  <path d="M 204.29000000000002,258.25 C 204.29000000000002,263.02174023853803 208.15825976146195,266.89 212.93,266.89 C 217.70174023853806,266.89 221.57,263.02174023853803 221.57,258.25 C 221.57,253.47825976146194 217.70174023853806,249.61 212.93,249.61 C 208.15825976146195,249.61 204.29000000000002,253.47825976146194 204.29000000000002,258.25" fill="none" stroke="#c0c0c0" stroke-width="0.6" stroke-linecap="round" stroke-linejoin="round" />
  <text x="1.4" y="88.07" font-size="10" dominant-baseline="alphabetic" text-anchor="start" fill="#000000" font-family="Arial"><tspan font-size="10" font-family="Arial" fill="#000000" font-weight="400" font-style="normal">a) Site-selective C-H functionalization of allenes (Previous study)</tspan></text>
  <text x="235.45" y="249.28" font-size="10" dominant-baseline="alphabetic" text-anchor="start" fill="#000000" font-family="Arial"><tspan font-size="10" font-family="Arial" fill="#000000" font-weight="400" font-style="normal">•</tspan></text>
  <polygon points="221.813376,244.384 232.841312,244.384 232.841312,243.784 222.148295,243.784" fill="#000000" stroke="none" stroke-width="0" />
  <polygon points="222.78,246.976 232.841312,246.976 232.841312,246.376 222.78,246.376" fill="#000000" stroke="none" stroke-width="0" />
  <polygon points="241.529497,244.384 252.635858,244.384 252.001181,243.784 241.529497,243.784" fill="#000000" stroke="none" stroke-width="0" />
  <polygon points="241.529497,246.976 252.155092,246.976 252.501492,246.376 241.529497,246.376" fill="#000000" stroke="none" stroke-width="0" />
  <text x="217.95" y="262.15" font-size="10" dominant-baseline="alphabetic" text-anchor="end" fill="#000000" font-family="Arial"><tspan font-size="10" font-family="Arial" fill="#000000" font-weight="400" font-style="normal">Ar</tspan></text>
  <path d="M 221.3936 247.4700 L 220.9100 248.1536 L 221.6694 248.5353 L 221.9296 247.7394 Z" fill="#000000" stroke="none" />
  <path d="M 219.8671 249.6283 L 219.5167 250.1237 L 220.9193 250.8288 L 221.1079 250.2521 Z" fill="#000000" stroke="none" />
  <path d="M 218.4737 251.5983 L 218.1233 252.0938 L 220.1693 253.1223 L 220.3579 252.5456 Z" fill="#000000" stroke="none" />
  <path d="M 217.0804 253.5684 L 216.7300 254.0638 L 219.4193 255.4158 L 219.6079 254.8390 Z" fill="#000000" stroke="none" />
  <text x="255.01" y="236.81" font-size="10" dominant-baseline="alphabetic" text-anchor="start" fill="#ff0000" font-family="Arial"><tspan font-size="10" font-family="Arial" fill="#ff0000" font-weight="700" font-style="normal">CN</tspan></text>
  <polygon points="251.934399,245.393827 257.038531,238.93599 254.431834,237.43092 251.242378,245.395231" fill="#000000" stroke="none" stroke-width="0" />
  <polygon points="251.242378,245.395231 258.602885,258.14322 258.78,257.85 258.957115,257.55678 251.934399,245.393827" fill="#000000" stroke="none" stroke-width="0" />
  <text x="268.2" y="262.32" font-size="10" dominant-baseline="alphabetic" text-anchor="start" fill="#000000" font-family="Arial"><tspan font-size="7.5" font-family="Arial" fill="#000000" font-weight="400" font-style="italic" baseline-shift="3.92">i</tspan><tspan font-size="10" font-family="Arial" fill="#000000" font-weight="400" font-style="normal">Pr</tspan></text>
  <polygon points="258.602885,258.14322 266.656252,258.46222 266.68,257.86269 258.957115,257.55678 258.78,257.85" fill="#000000" stroke="none" stroke-width="0" />
  <text x="44.19" y="129.31" font-size="10" dominant-baseline="alphabetic" text-anchor="end" fill="#000000" font-family="Arial"><tspan font-size="10" font-family="Arial" fill="#000000" font-weight="400" font-style="normal">R'</tspan></text>
  <polygon points="43.845594,126.244813 50.563585,137.88 50.91,137.88 51.256415,137.88 44.365201,125.944799" fill="#000000" stroke="none" stroke-width="0" />
  <text x="63.58" y="141.78" font-size="10" dominant-baseline="alphabetic" text-anchor="start" fill="#000000" font-family="Arial"><tspan font-size="10" font-family="Arial" fill="#000000" font-weight="400" font-style="normal">•</tspan></text>
  <polygon points="49.988508,136.884 61.381158,136.884 61.381158,136.284 50.334908,136.284" fill="#000000" stroke="none" stroke-width="0" />
  <polygon points="50.334908,139.476 61.381158,139.476 61.381158,138.876 49.988508,138.876" fill="#000000" stroke="none" stroke-width="0" />
  <polygon points="69.249438,136.884 80.631492,136.884 80.285092,136.284 69.249438,136.284" fill="#000000" stroke="none" stroke-width="0" />
  <polygon points="69.249438,139.476 80.285092,139.476 80.631492,138.876 69.249438,138.876" fill="#000000" stroke="none" stroke-width="0" />
  <text x="44.19" y="154.25" font-size="10" dominant-baseline="alphabetic" text-anchor="end" fill="#000000" font-family="Arial"><tspan font-size="10" font-family="Arial" fill="#000000" font-weight="400" font-style="normal">R''</tspan></text>
  <polygon points="50.563585,137.88 45.3,146.996236 45.819607,147.29625 51.256415,137.88 50.91,137.88" fill="#000000" stroke="none" stroke-width="0" />
  <text x="83.33" y="129.31" font-size="10" dominant-baseline="alphabetic" text-anchor="start" fill="#0000ff" font-family="Arial"><tspan font-size="10" font-family="Arial" fill="#0000ff" font-weight="700" font-style="normal">H</tspan></text>
  <polygon points="80.056415,137.88 84.000987,131.048221 83.48138,130.748207 79.363585,137.88 79.71,137.88" fill="#000000" stroke="none" stroke-width="0" />
  <polygon points="79.363585,137.88 86.563585,150.35 86.91,150.35 87.0832,150.05 80.056415,137.88 79.71,137.88" fill="#000000" stroke="none" stroke-width="0" />
  <text x="76.01" y="166.72" font-size="10" dominant-baseline="alphabetic" text-anchor="start" fill="#000000" font-family="Arial"><tspan font-size="10" font-family="Arial" fill="#000000" font-weight="400" font-style="normal">R</tspan></text>
  <polygon points="86.563585,150.35 81.99901,158.255589 82.518618,158.555602 87.0832,150.65 86.91,150.35" fill="#000000" stroke="none" stroke-width="0" />
  <text x="97.73" y="154.25" font-size="10" dominant-baseline="alphabetic" text-anchor="start" fill="#000000" font-family="Arial"><tspan font-size="10" font-family="Arial" fill="#000000" font-weight="700" font-style="normal">H</tspan></text>
  <polygon points="87.0832,150.65 96.85,150.65 96.85,150.05 87.0832,150.05 86.91,150.35" fill="#000000" stroke="none" stroke-width="0" />
  <polyline points="118.45,139.95 200.74,139.95" fill="none" stroke="#000000" stroke-width="0.6" stroke-linecap="butt" stroke-linejoin="miter" />
  <path d="M 205.99,139.95 C 205.99,139.95 199.99,141.5 199.99,141.5 C 199.99,141.5 200.74,140.62812499999998 200.74,139.95 C 200.74,139.271875 199.99,138.39999999999998 199.99,138.39999999999998 C 199.99,138.39999999999998 205.99,139.95 205.99,139.95" fill="#000000" stroke="none" />
  <text x="268.72" y="143.6" font-size="10" dominant-baseline="alphabetic" text-anchor="start" fill="#000000" font-family="Arial"><tspan font-size="10" font-family="Arial" fill="#000000" font-weight="400" font-style="normal">•</tspan></text>
  <polygon points="255.128508,138.704 266.521158,138.704 266.521158,138.104 255.474908,138.104" fill="#000000" stroke="none" stroke-width="0" />
  <polygon points="255.474908,141.296 266.521158,141.296 266.521158,140.696 255.128508,140.696" fill="#000000" stroke="none" stroke-width="0" />
  <polygon points="274.389438,138.704 284.85,138.704 284.85,138.104 274.389438,138.104" fill="#000000" stroke="none" stroke-width="0" />
  <polygon points="274.389438,141.296 284.85,141.296 284.85,140.696 274.389438,140.696" fill="#000000" stroke="none" stroke-width="0" />
  <polygon points="284.85,140 299.0768,140 299.25,139.7 299.0768,139.4 284.85,139.4" fill="#000000" stroke="none" stroke-width="0" />
  <text x="302.87" y="131.13" font-size="10" dominant-baseline="alphabetic" text-anchor="start" fill="#000000" font-family="Arial"><tspan font-size="10" font-family="Arial" fill="#000000" font-weight="700" font-style="normal">H</tspan></text>
  <polygon points="299.596415,139.7 303.540987,132.868221 303.02138,132.568207 299.0768,139.4 299.25,139.7" fill="#000000" stroke="none" stroke-width="0" />
  <text x="302.75" y="156.07" font-size="10" dominant-baseline="alphabetic" text-anchor="start" fill="#000000" font-family="Arial"><tspan font-size="10" font-family="Arial" fill="#000000" font-weight="400" font-style="normal">R</tspan></text>
  <polygon points="299.0768,140 303.210882,147.16 303.730489,146.859986 299.596415,139.7 299.25,139.7" fill="#000000" stroke="none" stroke-width="0" />
  <text x="249.33" y="131.13" font-size="10" dominant-baseline="alphabetic" text-anchor="end" fill="#000000" font-family="Arial"><tspan font-size="10" font-family="Arial" fill="#000000" font-weight="400" font-style="normal">R'</tspan></text>
  <polygon points="256.396415,139.7 249.505201,127.764799 248.985594,128.064813 255.703585,139.7 256.05,139.7" fill="#000000" stroke="none" stroke-width="0" />
  <text x="249.33" y="156.07" font-size="10" dominant-baseline="alphabetic" text-anchor="end" fill="#000000" font-family="Arial"><tspan font-size="10" font-family="Arial" fill="#000000" font-weight="400" font-style="normal">R''</tspan></text>
  <polygon points="255.703585,139.7 250.44,148.816236 250.959607,149.11625 256.396415,139.7 256.05,139.7" fill="#000000" stroke="none" stroke-width="0" />
  <text x="354.57" y="136.95" font-size="10" dominant-baseline="alphabetic" text-anchor="start" fill="#000000" font-family="Arial"><tspan font-size="10" font-family="Arial" fill="#000000" font-weight="400" font-style="normal">LCu</tspan><tspan font-size="7.5" font-family="Arial" fill="#000000" font-weight="400" font-style="normal" baseline-shift="3.92">II</tspan><tspan font-size="10" font-family="Arial" fill="#000000" font-weight="400" font-style="normal">-</tspan><tspan font-size="10" font-family="Arial" fill="#ff0000" font-weight="700" font-style="normal">FG</tspan></text>
  <text x="455.92" y="127.48" font-size="10" dominant-baseline="alphabetic" text-anchor="end" fill="#000000" font-family="Arial"><tspan font-size="10" font-family="Arial" fill="#000000" font-weight="400" font-style="normal">R'</tspan></text>
  <polygon points="455.575594,124.414813 462.293585,136.05 462.64,136.05 462.986415,136.05 456.095201,124.114799" fill="#000000" stroke="none" stroke-width="0" />
  <text x="475.31" y="139.95" font-size="10" dominant-baseline="alphabetic" text-anchor="start" fill="#000000" font-family="Arial"><tspan font-size="10" font-family="Arial" fill="#000000" font-weight="400" font-style="normal">•</tspan></text>
  <polygon points="461.718508,135.054 473.111158,135.054 473.111158,134.454 462.064908,134.454" fill="#000000" stroke="none" stroke-width="0" />
  <polygon points="462.064908,137.646 473.111158,137.646 473.111158,137.046 461.718508,137.046" fill="#000000" stroke="none" stroke-width="0" />
  <polygon points="480.979438,135.054 492.361492,135.054 492.015092,134.454 480.979438,134.454" fill="#000000" stroke="none" stroke-width="0" />
  <polygon points="480.979438,137.646 492.015092,137.646 492.361492,137.046 480.979438,137.046" fill="#000000" stroke="none" stroke-width="0" />
  <text x="455.92" y="152.42" font-size="10" dominant-baseline="alphabetic" text-anchor="end" fill="#000000" font-family="Arial"><tspan font-size="10" font-family="Arial" fill="#000000" font-weight="400" font-style="normal">R''</tspan></text>
  <polygon points="462.293585,136.05 457.03,145.166236 457.549607,145.46625 462.986415,136.05 462.64,136.05" fill="#000000" stroke="none" stroke-width="0" />
  <text x="495.61" y="127.48" font-size="10" dominant-baseline="alphabetic" text-anchor="start" fill="#ff0000" font-family="Arial"><tspan font-size="10" font-family="Arial" fill="#ff0000" font-weight="700" font-style="normal">FG</tspan></text>
  <polygon points="491.786415,136.05 495.817675,129.068082 495.298068,128.768068 491.093585,136.05 491.44,136.05" fill="#000000" stroke="none" stroke-width="0" />
  <polygon points="491.093585,136.05 498.464248,148.81558 498.64,148.52 498.815752,148.22442 491.786415,136.05 491.44,136.05" fill="#000000" stroke="none" stroke-width="0" />
  <text x="509.33" y="152.79" font-size="10" dominant-baseline="alphabetic" text-anchor="start" fill="#000000" font-family="Arial"><tspan font-size="10" font-family="Arial" fill="#000000" font-weight="400" font-style="normal">R</tspan></text>
  <polygon points="498.464248,148.81558 508.094578,149.063198 508.11,148.463396 498.815752,148.22442 498.64,148.52" fill="#000000" stroke="none" stroke-width="0" />
  <text x="443.63" y="167.7" font-size="10" dominant-baseline="alphabetic" text-anchor="start" fill="#ff0000" font-family="Arial"><tspan font-size="10" font-family="Arial" fill="#ff0000" font-weight="700" font-style="normal">FG = CN, Ar, Ay</tspan></text>
  <text x="2.15" y="365.7" font-size="10" dominant-baseline="alphabetic" text-anchor="start" fill="#000000" font-family="Arial"><tspan font-size="10" font-family="Arial" fill="#000000" font-weight="400" font-style="normal">b) Site- and enantio-selective cyanation of trisubstituted allenes (</tspan><tspan font-size="10" font-family="Arial" fill="#000000" font-weight="400" font-style="italic">this work</tspan><tspan font-size="10" font-family="Arial" fill="#000000" font-weight="400" font-style="normal">)</tspan></text>
  <text x="10.28" y="400.94" font-size="10" dominant-baseline="alphabetic" text-anchor="end" fill="#000000" font-family="Arial"><tspan font-size="10" font-family="Arial" fill="#000000" font-weight="400" font-style="normal">R'</tspan></text>
  <polygon points="9.935594,397.874813 16.653585,409.51 17,409.51 17.346415,409.51 10.455201,397.574799" fill="#000000" stroke="none" stroke-width="0" />
  <text x="29.67" y="413.41" font-size="10" dominant-baseline="alphabetic" text-anchor="start" fill="#000000" font-family="Arial"><tspan font-size="10" font-family="Arial" fill="#000000" font-weight="400" font-style="normal">•</tspan></text>
  <polygon points="16.078508,408.514 27.471158,408.514 27.471158,407.914 16.424908,407.914" fill="#000000" stroke="none" stroke-width="0" />
  <polygon points="16.424908,411.106 27.471158,411.106 27.471158,410.506 16.078508,410.506" fill="#000000" stroke="none" stroke-width="0" />
  <polygon points="35.339437,408.514 46.721492,408.514 46.375092,407.914 35.339437,407.914" fill="#000000" stroke="none" stroke-width="0" />
  <polygon points="35.339437,411.106 46.375092,411.106 46.721492,410.506 35.339437,410.506" fill="#000000" stroke="none" stroke-width="0" />
  <text x="11.46" y="425.88" font-size="10" dominant-baseline="alphabetic" text-anchor="end" fill="#000000" font-family="Arial"><tspan font-size="10" font-family="Arial" fill="#000000" font-weight="400" font-style="normal">Ar</tspan></text>
  <polygon points="16.653585,409.51 11.21258,418.933517 11.732188,419.233531 17.346415,409.51 17,409.51" fill="#000000" stroke="none" stroke-width="0" />
  <text x="49.42" y="400.94" font-size="10" dominant-baseline="alphabetic" text-anchor="start" fill="#0000ff" font-family="Arial"><tspan font-size="10" font-family="Arial" fill="#0000ff" font-weight="700" font-style="normal">H</tspan></text>
  <polygon points="46.146415,409.51 50.090987,402.678221 49.57138,402.378207 45.453585,409.51 45.8,409.51" fill="#000000" stroke="none" stroke-width="0" />
  <text x="291.7" y="396.1" font-size="10" dominant-baseline="alphabetic" text-anchor="end" fill="#000000" font-family="Arial"><tspan font-size="10" font-family="Arial" fill="#000000" font-weight="400" font-style="normal">R'</tspan></text>
  <polygon points="291.355594,393.034813 298.073585,404.67 298.42,404.67 298.766415,404.67 291.875201,392.734799" fill="#000000" stroke="none" stroke-width="0" />
  <text x="311.09" y="408.57" font-size="10" dominant-baseline="alphabetic" text-anchor="start" fill="#000000" font-family="Arial"><tspan font-size="10" font-family="Arial" fill="#000000" font-weight="400" font-style="normal">•</tspan></text>
  <polygon points="297.498508,403.674 308.891158,403.674 308.891158,403.074 297.844908,403.074" fill="#000000" stroke="none" stroke-width="0" />
  <polygon points="297.844908,406.266 308.891158,406.266 308.891158,405.666 297.498508,405.666" fill="#000000" stroke="none" stroke-width="0" />
  <polygon points="316.759438,403.674 327.22,403.674 327.22,403.074 316.759438,403.074" fill="#000000" stroke="none" stroke-width="0" />
  <polygon points="316.759438,406.266 327.641181,406.266 328.275858,405.666 316.759438,405.666" fill="#000000" stroke="none" stroke-width="0" />
  <text x="292.88" y="421.04" font-size="10" dominant-baseline="alphabetic" text-anchor="end" fill="#000000" font-family="Arial"><tspan font-size="10" font-family="Arial" fill="#000000" font-weight="400" font-style="normal">Ar</tspan></text>
  <polygon points="298.073585,404.67 292.63258,414.093517 293.152188,414.393531 298.766415,404.67 298.42,404.67" fill="#000000" stroke="none" stroke-width="0" />
  <text x="330.73" y="396.1" font-size="10" dominant-baseline="alphabetic" text-anchor="start" fill="#ff0000" font-family="Arial"><tspan font-size="10" font-family="Arial" fill="#ff0000" font-weight="700" font-style="normal">CN</tspan></text>
  <path d="M 328.7249 402.6636 L 329.2767 402.0262 L 328.4814 401.5670 L 328.2053 402.3636 Z" fill="#000000" stroke="none" />
  <path d="M 330.6899 400.3937 L 331.0898 399.9317 L 329.3889 398.9496 L 329.1887 399.5269 Z" fill="#000000" stroke="none" />
  <path d="M 332.5031 398.2992 L 332.9030 397.8373 L 330.2963 396.3322 L 330.0961 396.9095 Z" fill="#000000" stroke="none" />
  <polygon points="326.960196,404.820007 332.906009,417.445259 336.0338,416.834395 327.479804,404.519993" fill="#000000" stroke="none" stroke-width="0" />
  <text x="260.52" y="444.32" font-size="10" dominant-baseline="alphabetic" text-anchor="start" fill="#000000" font-family="Arial"><tspan font-size="10" font-family="Arial" fill="#000000" font-weight="400" font-style="normal">up to 97% yield, 91% ee</tspan></text>
  <polygon points="45.453585,409.51 52.653585,421.98 53,421.98 53.1732,421.68 46.146415,409.51 45.8,409.51" fill="#000000" stroke="none" stroke-width="0" />
  <path d="M 284.56 137.33 C 286.65196000000003 137.33 288.46231 130.4909 288.46231 128.38553000000002 C 288.46231 125.79740000000001 287.9125 123.92 284.56 123.92 C 281.2075 123.92 280.65769 125.79740000000001 280.65769 128.38553000000002 C 280.65769 130.4909 282.46804 137.33 284.56 137.33 Z" fill="#ffffff" stroke="none" fill-rule="evenodd" />
  <path d="M 284.56 137.33 C 286.65196000000003 137.33 288.46231 130.4909 288.46231 128.38553000000002 C 288.46231 125.79740000000001 287.9125 123.92 284.56 123.92 C 281.2075 123.92 280.65769 125.79740000000001 280.65769 128.38553000000002 C 280.65769 130.4909 282.46804 137.33 284.56 137.33 Z" fill="none" stroke="#ff0000" stroke-width="0.6" stroke-linejoin="bevel" />
  <path d="M 283.9,130.295 A 1.295,1.295 0 1 0 286.49,130.295 A 1.295,1.295 0 1 0 283.9,130.295 Z" fill="#ff0000" stroke="none" />
  <text x="121.93" y="133.95" font-size="10" dominant-baseline="alphabetic" text-anchor="start" fill="#000000" font-family="Arial"><tspan font-size="10" font-family="Arial" fill="#000000" font-weight="400" font-style="normal">Cu(II)-bound NCR</tspan></text>
  <polyline points="340.38,142.2 409.2,142.2" fill="none" stroke="#000000" stroke-width="0.6" stroke-linecap="butt" stroke-linejoin="miter" />
  <path d="M 414.45,142.2 C 414.45,142.2 408.45,143.75 408.45,143.75 C 408.45,143.75 409.2,142.87812499999998 409.2,142.2 C 409.2,141.521875 408.45,140.64999999999998 408.45,140.64999999999998 C 408.45,140.64999999999998 414.45,142.2 414.45,142.2" fill="#000000" stroke="none" />
  <text x="42.1" y="438.35" font-size="10" dominant-baseline="alphabetic" text-anchor="start" fill="#000000" font-family="Arial"><tspan font-size="10" font-family="Arial" fill="#000000" font-weight="400" font-style="normal">R</tspan></text>
  <polygon points="52.653585,421.98 48.08901,429.885589 48.608618,430.185602 53.1732,422.28 53,421.98" fill="#000000" stroke="none" stroke-width="0" />
  <text x="63.82" y="425.88" font-size="10" dominant-baseline="alphabetic" text-anchor="start" fill="#000000" font-family="Arial"><tspan font-size="10" font-family="Arial" fill="#000000" font-weight="700" font-style="normal">H</tspan></text>
  <polygon points="53.1732,422.28 62.94,422.28 62.94,421.68 53.1732,421.68 53,421.98" fill="#000000" stroke="none" stroke-width="0" />
  <text x="345.12" y="420.99" font-size="10" dominant-baseline="alphabetic" text-anchor="start" fill="#000000" font-family="Arial"><tspan font-size="10" font-family="Arial" fill="#000000" font-weight="400" font-style="normal">R</tspan></text>
  <polygon points="332.906009,417.445259 343.9,417.407085 343.897917,416.807089 336.0338,416.834395" fill="#000000" stroke="none" stroke-width="0" />
  <text x="86.09" y="533.81" font-size="10" dominant-baseline="alphabetic" text-anchor="start" fill="#000000" font-family="Arial"><tspan font-size="10" font-family="Arial" fill="#000000" font-weight="400" font-style="normal">•</tspan></text>
  <polygon points="72.498508,528.914 83.891158,528.914 83.891158,528.314 72.844908,528.314" fill="#000000" stroke="none" stroke-width="0" />
  <polygon points="72.844908,531.506 83.891158,531.506 83.891158,530.906 72.498508,530.906" fill="#000000" stroke="none" stroke-width="0" />
  <polygon points="91.759438,528.914 102.22,528.914 102.22,528.314 91.759438,528.314" fill="#000000" stroke="none" stroke-width="0" />
  <polygon points="91.759438,531.506 102.22,531.506 102.22,530.906 91.759438,530.906" fill="#000000" stroke="none" stroke-width="0" />
  <polygon points="102.22,530.21 116.4468,530.21 116.62,529.91 116.4468,529.61 102.22,529.61" fill="#000000" stroke="none" stroke-width="0" />
  <text x="120.24" y="521.34" font-size="10" dominant-baseline="alphabetic" text-anchor="start" fill="#000000" font-family="Arial"><tspan font-size="10" font-family="Arial" fill="#000000" font-weight="700" font-style="normal">H</tspan></text>
  <polygon points="116.966415,529.91 120.910987,523.078221 120.39138,522.778207 116.4468,529.61 116.62,529.91" fill="#000000" stroke="none" stroke-width="0" />
  <text x="120.12" y="546.28" font-size="10" dominant-baseline="alphabetic" text-anchor="start" fill="#000000" font-family="Arial"><tspan font-size="10" font-family="Arial" fill="#000000" font-weight="400" font-style="normal">R</tspan></text>
  <polygon points="116.4468,530.21 120.580882,537.37 121.100489,537.069986 116.966415,529.91 116.62,529.91" fill="#000000" stroke="none" stroke-width="0" />
  <path d="M 102.6 526.91 C 104.69351999999999 526.91 106.50521999999998 520.0658 106.50521999999998 517.95886 C 106.50521999999998 515.3688 105.95499999999998 513.49 102.6 513.49 C 99.245 513.49 98.69478000000001 515.3688 98.69478000000001 517.95886 C 98.69478000000001 520.0658 100.50648 526.91 102.6 526.91 Z" fill="#ffffff" stroke="none" fill-rule="evenodd" />
  <path d="M 102.6 526.91 C 104.69351999999999 526.91 106.50521999999998 520.0658 106.50521999999998 517.95886 C 106.50521999999998 515.3688 105.95499999999998 513.49 102.6 513.49 C 99.245 513.49 98.69478000000001 515.3688 98.69478000000001 517.95886 C 98.69478000000001 520.0658 100.50648 526.91 102.6 526.91 Z" fill="none" stroke="#ff0000" stroke-width="0.6" stroke-linejoin="bevel" />
  <path d="M 101.37,518.8449999999999 A 1.295,1.295 0 1 0 103.96000000000001,518.8449999999999 A 1.295,1.295 0 1 0 101.37,518.8449999999999 Z" fill="#ff0000" stroke="none" />
  <text x="66.7" y="521.34" font-size="10" dominant-baseline="alphabetic" text-anchor="end" fill="#000000" font-family="Arial"><tspan font-size="10" font-family="Arial" fill="#000000" font-weight="400" font-style="normal">R'</tspan></text>
  <polygon points="73.766415,529.91 66.875201,517.974799 66.355594,518.274813 73.073585,529.91 73.42,529.91" fill="#000000" stroke="none" stroke-width="0" />
  <text x="67.88" y="546.28" font-size="10" dominant-baseline="alphabetic" text-anchor="end" fill="#000000" font-family="Arial"><tspan font-size="10" font-family="Arial" fill="#000000" font-weight="400" font-style="normal">Ar</tspan></text>
  <polygon points="73.073585,529.91 67.63258,539.333517 68.152188,539.633531 73.766415,529.91 73.42,529.91" fill="#000000" stroke="none" stroke-width="0" />
  <text x="110.68" y="490.07" font-size="10" dominant-baseline="alphabetic" text-anchor="start" fill="#000000" font-family="Arial"><tspan font-size="10" font-family="Arial" fill="#000000" font-weight="400" font-style="normal">L*Cu(</tspan><tspan font-size="10" font-family="Arial" fill="#ff0000" font-weight="700" font-style="normal">CN</tspan><tspan font-size="10" font-family="Arial" fill="#000000" font-weight="400" font-style="normal">)</tspan><tspan font-size="7.5" font-family="Arial" fill="#000000" font-weight="400" font-style="normal" baseline-shift="-2.2">2</tspan></text>
  <path d="M 125.69757187767352 489.9401863631151 C 125.98336147180197 493.62883886974265, 123.98985627379416 497.1163176766681, 120.66854630395915 498.73806666226955" fill="none" stroke="#ff0000" stroke-width="0.6" stroke-linecap="butt" stroke-linejoin="round" />
  <path d="M 117.3186896306995,499.33423363308776 L 122.34750334779741,499.30209955884084 C 121.20866417037932,498.87233528859764 121.31941876747048,498.0558884628807 121.31941876747048,498.0558884628807 Z" fill="#ff0000" stroke="none" />
  <path d="M 107.37252051889605 513.7406163492224 C 107.06874402702299 510.0542475694654, 109.04686024499344 506.5561749045211, 112.36244292301353 504.9165083400652" fill="none" stroke="#ff0000" stroke-width="0.6" stroke-linecap="butt" stroke-linejoin="round" />
  <path d="M 115.71320590225683,504.29515374762485 L 110.68471642897526,504.3606794456098 C 111.82638422010945,504.78287212044773 111.72105343550906,505.6000363792204 111.72105343550906,505.6000363792204 Z" fill="#ff0000" stroke="none" />
  <path d="M 205.76000000000002,555.8199999999999 C 205.76000000000002,555.8199999999999 205.76000000000002,467.27 205.76000000000002,467.27 C 205.76000000000002,467.27 38.46,467.27 38.46,467.27 C 38.46,467.27 38.46,555.8199999999999 38.46,555.8199999999999 C 38.46,555.8199999999999 205.76000000000002,555.8199999999999 205.76000000000002,555.8199999999999" fill="none" stroke="#000000" stroke-width="0.6" stroke-dasharray="2.49" stroke-linecap="butt" stroke-linejoin="miter" />
  <text x="173.51" y="519.07" font-size="10" dominant-baseline="alphabetic" text-anchor="middle" fill="#000000" font-family="Arial"><tspan font-size="10" font-family="Arial" fill="#000000" font-weight="400" font-style="normal">exclusive</tspan></text>
  <text x="173.51" y="530.57" font-size="10" dominant-baseline="alphabetic" text-anchor="middle" fill="#000000" font-family="Arial"><tspan font-size="10" font-family="Arial" fill="#000000" font-weight="400" font-style="normal">radical</tspan></text>
  <text x="173.51" y="542.07" font-size="10" dominant-baseline="alphabetic" text-anchor="middle" fill="#000000" font-family="Arial"><tspan font-size="10" font-family="Arial" fill="#000000" font-weight="400" font-style="normal">cyanation</tspan></text>
  <text x="243.07" y="285" font-size="10" dominant-baseline="alphabetic" text-anchor="middle" fill="#000000" font-family="Arial"><tspan font-size="10" font-family="Arial" fill="#000000" font-weight="400" font-style="normal">Ar = 4-F</tspan><tspan font-size="10" font-family="Arial" fill="#000000" font-weight="400" font-style="normal">C</tspan><tspan font-size="7.5" font-family="Arial" fill="#000000" font-weight="400" font-style="normal" baseline-shift="-2.2">6</tspan><tspan font-size="10" font-family="Arial" fill="#000000" font-weight="400" font-style="normal">H</tspan><tspan font-size="7.5" font-family="Arial" fill="#000000" font-weight="400" font-style="normal" baseline-shift="-2.2">4</tspan></text>
  <text x="243.07" y="296.5" font-size="10" dominant-baseline="alphabetic" text-anchor="middle" fill="#000000" font-family="Arial"><tspan font-size="10" font-family="Arial" fill="#000000" font-weight="400" font-style="normal">68% yield, 37% ee</tspan></text>
  <text x="156.94" y="333.5" font-size="10" dominant-baseline="alphabetic" text-anchor="start" fill="#000000" font-family="Arial"><tspan font-size="10" font-family="Arial" fill="#000000" font-weight="700" font-style="normal">Challenges:</tspan><tspan font-size="10" font-family="Arial" fill="#000000" font-weight="400" font-style="italic"> Enantioselective control with trisubstituted allenes</tspan></text>
  <path d="M 314.12,114 L 317.82,114 L 317.82,165 L 314.12,165" fill="none" stroke="#000000" stroke-width="1" stroke-linecap="butt" stroke-linejoin="miter" />
  <path d="M 233.76999999999998,114 L 230.07,114 L 230.07,165 L 233.76999999999998,165" fill="none" stroke="#000000" stroke-width="1" stroke-linecap="butt" stroke-linejoin="miter" />
  <polyline points="90.39,412.88 246.23,412.88" fill="none" stroke="#000000" stroke-width="0.6" stroke-linecap="butt" stroke-linejoin="miter" />
  <path d="M 251.48,412.88 C 251.48,412.88 245.48,414.43 245.48,414.43 C 245.48,414.43 246.23,413.558125 246.23,412.88 C 246.23,412.201875 245.48,411.33 245.48,411.33 C 245.48,411.33 251.48,412.88 251.48,412.88" fill="#000000" stroke="none" />
  <text x="170.94" y="395.3" font-size="10" dominant-baseline="alphabetic" text-anchor="middle" fill="#000000" font-family="Arial"><tspan font-size="10" font-family="Arial" fill="#000000" font-weight="400" font-style="normal">CuOAc/</tspan><tspan font-size="10" font-family="Arial" fill="#000000" font-weight="700" font-style="normal">L1</tspan></text>
  <text x="170.94" y="407.05" font-size="10" dominant-baseline="alphabetic" text-anchor="middle" fill="#000000" font-family="Arial"><tspan font-size="10" font-family="Arial" fill="#000000" font-weight="700" font-style="normal">NF</tspan><tspan font-size="10" font-family="Arial" fill="#000000" font-weight="700" font-style="normal">-1</tspan><tspan font-size="10" font-family="Arial" fill="#000000" font-weight="700" font-style="normal"> </tspan><tspan font-size="10" font-family="Arial" fill="#000000" font-weight="400" font-style="normal">/ TMS</tspan><tspan font-size="10" font-family="Arial" fill="#ff0000" font-weight="700" font-style="normal">CN</tspan></text>
  <text x="170.94" y="428.3" font-size="10" dominant-baseline="alphabetic" text-anchor="middle" fill="#000000" font-family="Arial"><tspan font-size="7.5" font-family="Arial" fill="#000000" font-weight="400" font-style="italic" baseline-shift="3.92">t</tspan><tspan font-size="10" font-family="Arial" fill="#000000" font-weight="400" font-style="normal">AmOH/Acetone/</tspan><tspan font-size="10" font-family="Arial" fill="#000000" font-weight="400" font-style="normal">PhCF</tspan><tspan font-size="7.5" font-family="Arial" fill="#000000" font-weight="400" font-style="normal" baseline-shift="-2.2">3</tspan><tspan font-size="10" font-family="Arial" fill="#000000" font-weight="400" font-style="normal"> </tspan><tspan font-size="10" font-family="Arial" fill="#000000" font-weight="400" font-style="normal">(1:1:1</tspan><tspan font-size="10" font-family="Arial" fill="#000000" font-weight="400" font-style="normal">)</tspan></text>
  <text x="170.94" y="440.05" font-size="10" dominant-baseline="alphabetic" text-anchor="middle" fill="#000000" font-family="Arial"><tspan font-size="10" font-family="Arial" fill="#000000" font-weight="400" font-style="normal">Ar, -40 °C</tspan></text>
  <polyline points="384.2,380.62 384.2,447.38" fill="none" stroke="#000000" stroke-width="0.6" stroke-dasharray="2.49" stroke-linecap="butt" stroke-linejoin="miter" />
  <text x="239.23" y="503.82" font-size="10" dominant-baseline="alphabetic" text-anchor="start" fill="#000000" font-family="Arial"><tspan font-size="10" font-family="Arial" fill="#000000" font-weight="400" font-style="normal">Excellent siteselective HAA: sp</tspan><tspan font-size="7.5" font-family="Arial" fill="#000000" font-weight="400" font-style="normal" baseline-shift="3.92">2</tspan><tspan font-size="10" font-family="Arial" fill="#000000" font-weight="400" font-style="normal"> C-H &gt;&gt; sp</tspan><tspan font-size="7.5" font-family="Arial" fill="#000000" font-weight="400" font-style="normal" baseline-shift="3.92">3</tspan><tspan font-size="10" font-family="Arial" fill="#000000" font-weight="400" font-style="normal"> C-H</tspan></text>
  <text x="239.23" y="528.47" font-size="10" dominant-baseline="alphabetic" text-anchor="start" fill="#000000" font-family="Arial"><tspan font-size="10" font-family="Arial" fill="#000000" font-weight="400" font-style="normal">Excellent regio- &amp; enantioselectivity</tspan></text>
  <text x="239.23" y="552.85" font-size="10" dominant-baseline="alphabetic" text-anchor="start" fill="#000000" font-family="Arial"><tspan font-size="10" font-family="Arial" fill="#000000" font-weight="400" font-style="normal">Efficient synthesis of chiral tertrasubstituted allenic nitriles</tspan></text>
  <text x="223.48" y="502.07" font-size="10" dominant-baseline="alphabetic" text-anchor="start" fill="#0000ff" font-family="Symbol"><tspan font-size="10" font-family="Symbol" fill="#0000ff" font-weight="400" font-style="normal">¨</tspan></text>
  <text x="223.48" y="527.67" font-size="10" dominant-baseline="alphabetic" text-anchor="start" fill="#0000ff" font-family="Symbol"><tspan font-size="10" font-family="Symbol" fill="#0000ff" font-weight="400" font-style="normal">¨</tspan></text>
  <text x="223.48" y="552.42" font-size="10" dominant-baseline="alphabetic" text-anchor="start" fill="#0000ff" font-family="Symbol"><tspan font-size="10" font-family="Symbol" fill="#0000ff" font-weight="400" font-style="normal">¨</tspan></text>
  <text x="217.94" y="237.02" font-size="10" dominant-baseline="alphabetic" text-anchor="end" fill="#000000" font-family="Arial"><tspan font-size="10" font-family="Arial" fill="#000000" font-weight="700" font-style="normal">Me</tspan></text>
  <polygon points="223.035354,245.222538 218.526014,237.909772 218.015305,238.224695 222.524646,245.537462" fill="#000000" stroke="none" stroke-width="0" />
  <polygon points="447.142386,249.433305 455.720085,244.47644 455.72,244.13 455.310495,244.020154 446.842414,248.913673 446.86,249.25" fill="#000000" stroke="none" stroke-width="0" />
  <polygon points="455.720085,244.47644 464.307624,249.433397 464.59,249.25 464.607502,248.913711 456.129797,244.020154 455.72,244.13" fill="#000000" stroke="none" stroke-width="0" />
  <text x="434.41" y="248.2" font-size="8" dominant-baseline="alphabetic" text-anchor="start" fill="#000000" font-family="Arial"><tspan font-size="8" font-family="Arial" fill="#000000" font-weight="400" font-style="normal">O</tspan></text>
  <text x="442.93" y="262.55" font-size="8" dominant-baseline="alphabetic" text-anchor="start" fill="#000000" font-family="Arial"><tspan font-size="8" font-family="Arial" fill="#000000" font-weight="400" font-style="normal">N</tspan></text>
  <polygon points="446.842414,248.913673 441.755477,246.644953 441.511087,247.192926 446.538875,249.435265 446.86,249.25" fill="#000000" stroke="none" stroke-width="0" />
  <polygon points="434.225717,248.280253 430.513488,252.40435 430.66,252.69 431.028628,252.728891 434.671664,248.681664" fill="#000000" stroke="none" stroke-width="0" />
  <polygon points="430.521938,253.051327 435.388416,261.498619 435.77,261.56 435.921035,261.22119 431.028628,252.728891 430.66,252.69" fill="#000000" stroke="none" stroke-width="0" />
  <polygon points="435.944176,261.829678 441.89,260.565745 441.765243,259.978859 435.921035,261.22119 435.77,261.56" fill="#000000" stroke="none" stroke-width="0" />
  <polygon points="446.520791,255.347166 447.142386,249.433305 446.86,249.25 446.538875,249.435265 445.924078,255.284446" fill="#000000" stroke="none" stroke-width="0" />
  <polygon points="444.688391,255.154566 445.214759,250.146696 444.618046,250.083977 444.091678,255.091846" fill="#000000" stroke="none" stroke-width="0" />
  <text x="462.8" y="262.55" font-size="8" dominant-baseline="alphabetic" text-anchor="start" fill="#000000" font-family="Arial"><tspan font-size="8" font-family="Arial" fill="#000000" font-weight="400" font-style="normal">N</tspan></text>
  <text x="470.84" y="248.2" font-size="8" dominant-baseline="alphabetic" text-anchor="start" fill="#000000" font-family="Arial"><tspan font-size="8" font-family="Arial" fill="#000000" font-weight="400" font-style="normal">O</tspan></text>
  <polygon points="464.307624,249.433397 464.929139,255.346502 465.525852,255.283783 464.911125,249.435265 464.59,249.25" fill="#000000" stroke="none" stroke-width="0" />
  <polygon points="466.235241,250.146696 466.761539,255.153902 467.358252,255.091183 466.831954,250.083977" fill="#000000" stroke="none" stroke-width="0" />
  <polygon points="469.56,260.565745 475.831035,261.89881 475.68,261.56 475.528965,261.22119 469.684757,259.978859" fill="#000000" stroke="none" stroke-width="0" />
  <polygon points="475.831035,261.89881 481.158628,252.651109 480.79,252.69 480.421372,252.728891 475.528965,261.22119 475.68,261.56" fill="#000000" stroke="none" stroke-width="0" />
  <polygon points="481.158628,252.651109 477.230539,248.287203 476.784592,248.688614 480.421372,252.728891 480.79,252.69" fill="#000000" stroke="none" stroke-width="0" />
  <polygon points="469.682336,246.650389 464.607502,248.913711 464.59,249.25 464.911125,249.435265 469.926726,247.198361" fill="#000000" stroke="none" stroke-width="0" />
  <polygon points="430.513488,252.40435 420.49471,253.332365 420.780795,256.350406 430.521938,253.051327 430.66,252.69" fill="#000000" stroke="none" stroke-width="0" />
  <polygon points="420.49471,253.332365 419.285599,264.835864 419.57,265 419.891125,264.814735 420.780795,256.350406" fill="#000000" stroke="none" stroke-width="0" />
  <polygon points="419.606168,265.344614 428.639736,269.373489 428.92,269.17 427.665873,268.282189 419.891125,264.814735 419.57,265" fill="#000000" stroke="none" stroke-width="0" />
  <polygon points="419.668886,267.390345 427.075525,270.693627 427.319914,270.145655 419.913275,266.842373" fill="#000000" stroke="none" stroke-width="0" />
  <polygon points="435.388416,261.498619 427.665873,268.282189 428.92,269.17 429.419462,271.051965 435.944176,261.829678 435.77,261.56" fill="#000000" stroke="none" stroke-width="0" />
  <path d="M 477.1229 263.6114 L 477.5358 264.3537 L 478.2638 263.6985 L 477.5688 263.2100 Z" fill="#000000" stroke="none" />
  <path d="M 478.3415 265.8020 L 478.6407 266.3400 L 480.1233 265.0054 L 479.6197 264.6515 Z" fill="#000000" stroke="none" />
  <path d="M 479.4463 267.7883 L 479.7456 268.3262 L 481.9827 266.3124 L 481.4791 265.9585 Z" fill="#000000" stroke="none" />
  <polygon points="482.810264,269.373489 491.843832,265.344614 491.88,265 491.558875,264.814735 482.249736,268.966511" fill="#000000" stroke="none" stroke-width="0" />
  <polygon points="484.374475,270.693627 491.781114,267.390345 491.536725,266.842373 484.130086,270.145655" fill="#000000" stroke="none" stroke-width="0" />
  <polygon points="492.164401,264.835864 491.108356,254.78864 490.511644,254.85136 491.558875,264.814735 491.88,265" fill="#000000" stroke="none" stroke-width="0" />
  <path d="M 483.1632 253.5012 L 483.9337 253.8588 L 484.1373 252.9011 L 483.2880 252.9143 Z" fill="#000000" stroke="none" />
  <path d="M 485.4393 254.5575 L 485.9976 254.8166 L 486.4123 252.8656 L 485.7969 252.8752 Z" fill="#000000" stroke="none" />
  <path d="M 487.5032 255.5153 L 488.0615 255.7744 L 488.6874 252.8302 L 488.0719 252.8397 Z" fill="#000000" stroke="none" />
  <polygon points="419.285599,264.835864 410.973545,270.879169 411.606455,271.160831 419.606168,265.344614 419.57,265" fill="#000000" stroke="none" stroke-width="0" />
  <polygon points="410.973545,270.879169 412.079736,281.403489 412.640264,280.996511 411.606455,271.160831" fill="#000000" stroke="none" stroke-width="0" />
  <polygon points="412.935241,271.916696 413.782846,279.980823 414.379559,279.918104 413.531954,271.853977" fill="#000000" stroke="none" stroke-width="0" />
  <polygon points="412.079736,281.403489 421.746168,285.714614 421.673832,285.025386 412.640264,280.996511" fill="#000000" stroke="none" stroke-width="0" />
  <polygon points="421.746168,285.714614 430.306455,279.490831 429.673545,279.209169 421.673832,285.025386" fill="#000000" stroke="none" stroke-width="0" />
  <polygon points="421.663299,283.496629 428.222334,278.727863 427.869501,278.242571 421.310466,283.011337" fill="#000000" stroke="none" stroke-width="0" />
  <polygon points="430.306455,279.490831 429.419462,271.051965 428.92,269.17 428.639736,269.373489 429.673545,279.209169" fill="#000000" stroke="none" stroke-width="0" />
  <polygon points="482.249736,268.966511 481.143545,279.490831 481.776455,279.209169 482.810264,269.373489" fill="#000000" stroke="none" stroke-width="0" />
  <polygon points="481.143545,279.490831 489.703832,285.714614 489.776168,285.025386 481.776455,279.209169" fill="#000000" stroke="none" stroke-width="0" />
  <polygon points="483.227666,278.727863 489.786701,283.496629 490.139534,283.011337 483.580499,278.242571" fill="#000000" stroke="none" stroke-width="0" />
  <polygon points="489.703832,285.714614 499.370264,281.403489 498.809736,280.996511 489.776168,285.025386" fill="#000000" stroke="none" stroke-width="0" />
  <polygon points="499.370264,281.403489 500.476455,270.879169 499.843545,271.160831 498.809736,280.996511" fill="#000000" stroke="none" stroke-width="0" />
  <polygon points="497.667154,279.980823 498.514759,271.916696 497.918046,271.853977 497.070441,279.918104" fill="#000000" stroke="none" stroke-width="0" />
  <polygon points="500.476455,270.879169 492.164401,264.835864 491.88,265 491.843832,265.344614 499.843545,271.160831" fill="#000000" stroke="none" stroke-width="0" />
  <polygon points="456.129797,244.020154 461.032648,235.526349 460.84,235.26 460.647352,234.993651 455.720254,243.529463 455.72,244.13" fill="#000000" stroke="none" stroke-width="0" />
  <polygon points="450.411121,235.515761 455.310495,244.020154 455.72,244.13 455.720254,243.529463 450.808879,235.004239 450.61,235.26" fill="#000000" stroke="none" stroke-width="0" />
  <text x="467.98" y="236.25" font-size="8" dominant-baseline="alphabetic" text-anchor="start" fill="#000000" font-family="Arial"><tspan font-size="8" font-family="Arial" fill="#000000" font-weight="400" font-style="normal">OTMS</tspan></text>
  <polygon points="461.032648,235.526349 466.711095,234.345188 466.588905,233.757761 460.647352,234.993651 460.84,235.26" fill="#000000" stroke="none" stroke-width="0" />
  <text x="443.92" y="235.62" font-size="8" dominant-baseline="alphabetic" text-anchor="end" fill="#000000" font-family="Arial"><tspan font-size="8" font-family="Arial" fill="#000000" font-weight="400" font-style="normal">TMSO</tspan></text>
  <polygon points="450.808879,235.004239 445.179232,233.423585 445.01704,234.001248 450.411121,235.515761 450.61,235.26" fill="#000000" stroke="none" stroke-width="0" />
  <path d="M 41.6,258.25 C 41.6,263.02174023853803 45.468259761461944,266.89 50.24,266.89 C 55.01174023853806,266.89 58.88,263.02174023853803 58.88,258.25 C 58.88,253.47825976146194 55.01174023853806,249.61 50.24,249.61 C 45.468259761461944,249.61 41.6,253.47825976146194 41.6,258.25" fill="#c0c0c0" stroke="none" />
  <path d="M 41.70121409107938,258.11499940236627 C 41.70121409107938,262.75628187064206 45.4637169340905,266.51878471365313 50.10499940236628,266.51878471365313 C 54.746281870642065,266.51878471365313 58.508784713653185,262.75628187064206 58.508784713653185,258.11499940236627 C 58.508784713653185,253.47371693409048 54.746281870642065,249.71121409107937 50.10499940236628,249.71121409107937 C 45.4637169340905,249.71121409107937 41.70121409107938,253.47371693409048 41.70121409107938,258.11499940236627" fill="#c2c2c2" stroke="none" />
  <path d="M 41.80242818215876,257.97999880473253 C 41.80242818215876,262.490823502746 45.459174106719054,266.14756942730634 49.96999880473256,266.14756942730634 C 54.48082350274607,266.14756942730634 58.13756942730636,262.490823502746 58.13756942730636,257.97999880473253 C 58.13756942730636,253.46917410671904 54.48082350274607,249.81242818215875 49.96999880473256,249.81242818215875 C 45.459174106719054,249.81242818215875 41.80242818215876,253.46917410671904 41.80242818215876,257.97999880473253" fill="#c4c4c4" stroke="none" />
  <path d="M 41.90364227323814,257.84499820709885 C 41.90364227323814,262.2253651348501 45.4546312793476,265.77635414095954 49.83499820709884,265.77635414095954 C 54.21536513485008,265.77635414095954 57.76635414095954,262.2253651348501 57.76635414095954,257.84499820709885 C 57.76635414095954,253.46463127934763 54.21536513485008,249.91364227323817 49.83499820709884,249.91364227323817 C 45.4546312793476,249.91364227323817 41.90364227323814,253.46463127934763 41.90364227323814,257.84499820709885" fill="#c6c6c6" stroke="none" />
  <path d="M 42.00485636431752,257.7099976094651 C 42.00485636431752,261.9599067669541 45.45008845197616,265.4051388546127 49.69999760946512,265.4051388546127 C 53.949906766954086,265.4051388546127 57.395138854612725,261.9599067669541 57.395138854612725,257.7099976094651 C 57.395138854612725,253.46008845197616 53.949906766954086,250.01485636431752 49.69999760946512,250.01485636431752 C 45.45008845197616,250.01485636431752 42.00485636431752,253.46008845197616 42.00485636431752,257.7099976094651" fill="#c8c8c8" stroke="none" />
  <path d="M 42.1060704553969,257.5749970118314 C 42.1060704553969,261.69444839905805 45.44554562460471,265.0339235682659 49.5649970118314,265.0339235682659 C 53.68444839905809,265.0339235682659 57.0239235682659,261.69444839905805 57.0239235682659,257.5749970118314 C 57.0239235682659,253.4555456246047 53.68444839905809,250.1160704553969 49.5649970118314,250.1160704553969 C 45.44554562460471,250.1160704553969 42.1060704553969,253.4555456246047 42.1060704553969,257.5749970118314" fill="#cacaca" stroke="none" />
  <path d="M 42.20728454647628,257.43999641419765 C 42.20728454647628,261.4289900311621 45.44100279723327,264.66270828191904 49.42999641419768,264.66270828191904 C 53.418990031162096,264.66270828191904 56.65270828191908,261.4289900311621 56.65270828191908,257.43999641419765 C 56.65270828191908,253.45100279723323 53.418990031162096,250.21728454647626 49.42999641419768,250.21728454647626 C 45.44100279723327,250.21728454647626 42.20728454647628,253.45100279723323 42.20728454647628,257.43999641419765" fill="#cccccc" stroke="none" />
  <path d="M 42.30849863755566,257.304995816564 C 42.30849863755566,261.1635316632661 45.436459969861815,264.29149299557224 49.29499581656396,264.29149299557224 C 53.15353166326611,264.29149299557224 56.281492995572265,261.1635316632661 56.281492995572265,257.304995816564 C 56.281492995572265,253.44645996986185 53.15353166326611,250.31849863755568 49.29499581656396,250.31849863755568 C 45.436459969861815,250.31849863755568 42.30849863755566,253.44645996986185 42.30849863755566,257.304995816564" fill="#cecece" stroke="none" />
  <path d="M 42.40971272863503,257.16999521893024 C 42.40971272863503,260.8980732953701 45.43191714249036,263.92027770922545 49.159995218930234,263.92027770922545 C 52.888073295370106,263.92027770922545 55.91027770922544,260.8980732953701 55.91027770922544,257.16999521893024 C 55.91027770922544,253.44191714249038 52.888073295370106,250.41971272863506 49.159995218930234,250.41971272863506 C 45.43191714249036,250.41971272863506 42.40971272863503,253.44191714249038 42.40971272863503,257.16999521893024" fill="#d0d0d0" stroke="none" />
  <path d="M 42.51092681971441,257.0349946212965 C 42.51092681971441,260.6326149274741 45.42737431511892,263.5490624228786 49.024994621296514,263.5490624228786 C 52.62261492747411,263.5490624228786 55.539062422878615,260.6326149274741 55.539062422878615,257.0349946212965 C 55.539062422878615,253.43737431511892 52.62261492747411,250.52092681971442 49.024994621296514,250.52092681971442 C 45.42737431511892,250.52092681971442 42.51092681971441,253.43737431511892 42.51092681971441,257.0349946212965" fill="#d2d2d2" stroke="none" />
  <path d="M 42.61214091079379,256.89999402366277 C 42.61214091079379,260.36715655957806 45.422831487747466,263.17784713653174 48.889994023662794,263.17784713653174 C 52.35715655957812,263.17784713653174 55.1678471365318,260.36715655957806 55.1678471365318,256.89999402366277 C 55.1678471365318,253.43283148774745 52.35715655957812,250.62214091079377 48.889994023662794,250.62214091079377 C 45.422831487747466,250.62214091079377 42.61214091079379,253.43283148774745 42.61214091079379,256.89999402366277" fill="#d4d4d4" stroke="none" />
  <path d="M 42.71335500187317,256.7649934260291 C 42.71335500187317,260.10169819168215 45.41828866037602,262.806631850185 48.754993426029074,262.806631850185 C 52.09169819168213,262.806631850185 54.79663185018498,260.10169819168215 54.79663185018498,256.7649934260291 C 54.79663185018498,253.42828866037604 52.09169819168213,250.7233550018732 48.754993426029074,250.7233550018732 C 45.41828866037602,250.7233550018732 42.71335500187317,253.42828866037604 42.71335500187317,256.7649934260291" fill="#d6d6d6" stroke="none" />
  <path d="M 42.81456909295255,256.62999282839536 C 42.81456909295255,259.8362398237861 45.413745833004576,262.43541656383815 48.619992828395354,262.43541656383815 C 51.82623982378613,262.43541656383815 54.425416563838155,259.8362398237861 54.425416563838155,256.62999282839536 C 54.425416563838155,253.42374583300457 51.82623982378613,250.82456909295257 48.619992828395354,250.82456909295257 C 45.413745833004576,250.82456909295257 42.81456909295255,253.42374583300457 42.81456909295255,256.62999282839536" fill="#d8d8d8" stroke="none" />
  <path d="M 42.91578318403193,256.4949922307616 C 42.91578318403193,259.57078145589014 45.409203005633124,262.0642012774913 48.484992230761634,262.0642012774913 C 51.560781455890144,262.0642012774913 54.05420127749134,259.57078145589014 54.05420127749134,256.4949922307616 C 54.05420127749134,253.41920300563314 51.560781455890144,250.92578318403193 48.484992230761634,250.92578318403193 C 45.409203005633124,250.92578318403193 42.91578318403193,253.41920300563314 42.91578318403193,256.4949922307616" fill="#dadada" stroke="none" />
  <path d="M 43.01699727511131,256.3599916331279 C 43.01699727511131,259.3053230879941 45.40466017826168,261.6929859911445 48.349991633127914,261.6929859911445 C 51.29532308799415,261.6929859911445 53.68298599114452,259.3053230879941 53.68298599114452,256.3599916331279 C 53.68298599114452,253.41466017826167 51.29532308799415,251.02699727511128 48.349991633127914,251.02699727511128 C 45.40466017826168,251.02699727511128 43.01699727511131,253.41466017826167 43.01699727511131,256.3599916331279" fill="#dcdcdc" stroke="none" />
  <path d="M 43.11821136619069,256.2249910354942 C 43.11821136619069,259.0398647200982 45.400117350890234,261.3217707047977 48.214991035494194,261.3217707047977 C 51.02986472009815,261.3217707047977 53.311770704797695,259.0398647200982 53.311770704797695,256.2249910354942 C 53.311770704797695,253.41011735089026 51.02986472009815,251.12821136619073 48.214991035494194,251.12821136619073 C 45.400117350890234,251.12821136619073 43.11821136619069,253.41011735089026 43.11821136619069,256.2249910354942" fill="#dedede" stroke="none" />
  <path d="M 43.21942545727007,256.0899904378605 C 43.21942545727007,258.77440635220216 45.39557452351879,260.95055541845085 48.079990437860474,260.95055541845085 C 50.76440635220216,260.95055541845085 52.94055541845088,258.77440635220216 52.94055541845088,256.0899904378605 C 52.94055541845088,253.4055745235188 50.76440635220216,251.22942545727008 48.079990437860474,251.22942545727008 C 45.39557452351879,251.22942545727008 43.21942545727007,253.4055745235188 43.21942545727007,256.0899904378605" fill="#e1e1e1" stroke="none" />
  <path d="M 43.32063954834945,255.95498984022674 C 43.32063954834945,258.50894798430613 45.39103169614734,260.57934013210405 47.944989840226754,260.57934013210405 C 50.49894798430617,260.57934013210405 52.56934013210406,258.50894798430613 52.56934013210406,255.95498984022674 C 52.56934013210406,253.40103169614733 50.49894798430617,251.33063954834944 47.944989840226754,251.33063954834944 C 45.39103169614734,251.33063954834944 43.32063954834945,253.40103169614733 43.32063954834945,255.95498984022674" fill="#e3e3e3" stroke="none" />
  <path d="M 43.42185363942883,255.81998924259304 C 43.42185363942883,258.24348961641016 45.38648886877589,260.20812484575725 47.80998924259303,260.20812484575725 C 50.233489616410175,260.20812484575725 52.198124845757235,258.24348961641016 52.198124845757235,255.81998924259304 C 52.198124845757235,253.3964888687759 50.233489616410175,251.43185363942885 47.80998924259303,251.43185363942885 C 45.38648886877589,251.43185363942885 43.42185363942883,253.3964888687759 43.42185363942883,255.81998924259304" fill="#e5e5e5" stroke="none" />
  <path d="M 43.52306773050821,255.6849886449593 C 43.52306773050821,257.9780312485142 45.38194604140445,259.8369095594104 47.67498864495931,259.8369095594104 C 49.96803124851418,259.8369095594104 51.82690955941042,257.9780312485142 51.82690955941042,255.6849886449593 C 51.82690955941042,253.39194604140445 49.96803124851418,251.5330677305082 47.67498864495931,251.5330677305082 C 45.38194604140445,251.5330677305082 43.52306773050821,253.39194604140445 43.52306773050821,255.6849886449593" fill="#e7e7e7" stroke="none" />
  <path d="M 43.62428182158759,255.5499880473256 C 43.62428182158759,257.7125728806182 45.377403214032995,259.4656942730636 47.53998804732559,259.4656942730636 C 49.70257288061819,259.4656942730636 51.4556942730636,257.7125728806182 51.4556942730636,255.5499880473256 C 51.4556942730636,253.38740321403301 49.70257288061819,251.6342818215876 47.53998804732559,251.6342818215876 C 45.377403214032995,251.6342818215876 43.62428182158759,253.38740321403301 43.62428182158759,255.5499880473256" fill="#e9e9e9" stroke="none" />
  <path d="M 43.725495912666965,255.41498744969186 C 43.725495912666965,257.4471145127222 45.37286038666155,259.09447898671675 47.40498744969187,259.09447898671675 C 49.4371145127222,259.09447898671675 51.08447898671678,257.4471145127222 51.08447898671678,255.41498744969186 C 51.08447898671678,253.38286038666155 49.4371145127222,251.73549591266698 47.40498744969187,251.73549591266698 C 45.37286038666155,251.73549591266698 43.725495912666965,253.38286038666155 43.725495912666965,255.41498744969186" fill="#ebebeb" stroke="none" />
  <path d="M 43.82671000374635,255.27998685205816 C 43.82671000374635,257.1816561448262 45.368317559290105,258.72326370036996 47.26998685205815,258.72326370036996 C 49.1716561448262,258.72326370036996 50.71326370036996,257.1816561448262 50.71326370036996,255.27998685205816 C 50.71326370036996,253.3783175592901 49.1716561448262,251.83671000374636 47.26998685205815,251.83671000374636 C 45.368317559290105,251.83671000374636 43.82671000374635,253.3783175592901 43.82671000374635,255.27998685205816" fill="#ededed" stroke="none" />
  <path d="M 43.92792409482572,255.14498625442442 C 43.92792409482572,256.9161977769302 45.36377473191865,258.3520484140231 47.134986254424426,258.3520484140231 C 48.9061977769302,258.3520484140231 50.34204841402313,256.9161977769302 50.34204841402313,255.14498625442442 C 50.34204841402313,253.37377473191864 48.9061977769302,251.93792409482572 47.134986254424426,251.93792409482572 C 45.36377473191865,251.93792409482572 43.92792409482572,253.37377473191864 43.92792409482572,255.14498625442442" fill="#efefef" stroke="none" />
  <path d="M 44.0291381859051,255.00998565679072 C 44.0291381859051,256.6507394090342 45.3592319045472,257.9808331276763 46.999985656790706,257.9808331276763 C 48.64073940903421,257.9808331276763 49.970833127676315,256.6507394090342 49.970833127676315,255.00998565679072 C 49.970833127676315,253.3692319045472 48.64073940903421,252.03913818590513 46.999985656790706,252.03913818590513 C 45.3592319045472,252.03913818590513 44.0291381859051,253.3692319045472 44.0291381859051,255.00998565679072" fill="#f1f1f1" stroke="none" />
  <path d="M 44.13035227698448,254.87498505915698 C 44.13035227698448,256.3852810411382 45.354689077175756,257.6096178413295 46.864985059156986,257.6096178413295 C 48.375281041138216,257.6096178413295 49.59961784132949,256.3852810411382 49.59961784132949,254.87498505915698 C 49.59961784132949,253.36468907717577 48.375281041138216,252.1403522769845 46.864985059156986,252.1403522769845 C 45.354689077175756,252.1403522769845 44.13035227698448,253.36468907717577 44.13035227698448,254.87498505915698" fill="#f3f3f3" stroke="none" />
  <path d="M 44.23156636806386,254.73998446152328 C 44.23156636806386,256.11982267324225 45.35014624980431,257.23840255498266 46.729984461523266,257.23840255498266 C 48.10982267324222,257.23840255498266 49.22840255498267,256.11982267324225 49.22840255498267,254.73998446152328 C 49.22840255498267,253.36014624980433 48.10982267324222,252.24156636806387 46.729984461523266,252.24156636806387 C 45.35014624980431,252.24156636806387 44.23156636806386,253.36014624980433 44.23156636806386,254.73998446152328" fill="#f5f5f5" stroke="none" />
  <path d="M 44.33278045914324,254.60498386388954 C 44.33278045914324,255.85436430534622 45.345603422432866,256.86718726863586 46.594983863889546,256.86718726863586 C 47.844364305346225,256.86718726863586 48.857187268635855,255.85436430534622 48.857187268635855,254.60498386388954 C 48.857187268635855,253.35560342243286 47.844364305346225,252.34278045914323 46.594983863889546,252.34278045914323 C 45.345603422432866,252.34278045914323 44.33278045914324,253.35560342243286 44.33278045914324,254.60498386388954" fill="#f7f7f7" stroke="none" />
  <path d="M 44.43399455022262,254.46998326625584 C 44.43399455022262,255.58890593745025 45.341060595061414,256.49597198228906 46.459983266255826,256.49597198228906 C 47.57890593745024,256.49597198228906 48.48597198228903,255.58890593745025 48.48597198228903,254.46998326625584 C 48.48597198228903,253.35106059506143 47.57890593745024,252.44399455022264 46.459983266255826,252.44399455022264 C 45.341060595061414,252.44399455022264 44.43399455022262,253.35106059506143 44.43399455022262,254.46998326625584" fill="#f9f9f9" stroke="none" />
  <path d="M 44.535208641302,254.3349826686221 C 44.535208641302,255.32344756955425 45.33651776768997,256.1247566959422 46.324982668622106,256.1247566959422 C 47.31344756955424,256.1247566959422 48.11475669594221,255.32344756955425 48.11475669594221,254.3349826686221 C 48.11475669594221,253.34651776768996 47.31344756955424,252.545208641302 46.324982668622106,252.545208641302 C 45.33651776768997,252.545208641302 44.535208641302,253.34651776768996 44.535208641302,254.3349826686221" fill="#fbfbfb" stroke="none" />
  <path d="M 44.63642273238138,254.1999820709884 C 44.63642273238138,255.05798920165827 45.331974940318524,255.7535414095954 46.189982070988385,255.7535414095954 C 47.04798920165825,255.7535414095954 47.743541409595394,255.05798920165827 47.743541409595394,254.1999820709884 C 47.743541409595394,253.34197494031852 47.04798920165825,252.64642273238138 46.189982070988385,252.64642273238138 C 45.331974940318524,252.64642273238138 44.63642273238138,253.34197494031852 44.63642273238138,254.1999820709884" fill="#fdfdfd" stroke="none" />
  <path d="M 44.73763682346076,254.06498147335466 C 44.73763682346076,254.79253083376224 45.32743211294707,255.38232612324856 46.054981473354665,255.38232612324856 C 46.78253083376226,255.38232612324856 47.37232612324857,254.79253083376224 47.37232612324857,254.06498147335466 C 47.37232612324857,253.33743211294708 46.78253083376226,252.74763682346077 46.054981473354665,252.74763682346077 C 45.32743211294707,252.74763682346077 44.73763682346076,253.33743211294708 44.73763682346076,254.06498147335466" fill="#ffffff" stroke="none" />
  <path d="M 41.6,258.25 C 41.6,263.02174023853803 45.468259761461944,266.89 50.24,266.89 C 55.01174023853806,266.89 58.88,263.02174023853803 58.88,258.25 C 58.88,253.47825976146194 55.01174023853806,249.61 50.24,249.61 C 45.468259761461944,249.61 41.6,253.47825976146194 41.6,258.25" fill="none" stroke="#c0c0c0" stroke-width="0.6" stroke-linecap="round" stroke-linejoin="round" />
  <text x="72.75" y="249.28" font-size="10" dominant-baseline="alphabetic" text-anchor="start" fill="#000000" font-family="Arial"><tspan font-size="10" font-family="Arial" fill="#000000" font-weight="400" font-style="normal">•</tspan></text>
  <polygon points="59.114316,244.384 70.551158,244.384 70.551158,243.784 59.449468,243.784" fill="#000000" stroke="none" stroke-width="0" />
  <polygon points="60.08,246.976 70.551158,246.976 70.551158,246.376 60.08,246.376" fill="#000000" stroke="none" stroke-width="0" />
  <polygon points="78.419438,244.384 89.935858,244.384 89.301181,243.784 78.419438,243.784" fill="#000000" stroke="none" stroke-width="0" />
  <polygon points="78.419438,246.976 89.455092,246.976 89.801492,246.376 78.419438,246.376" fill="#000000" stroke="none" stroke-width="0" />
  <text x="55.27" y="262.15" font-size="10" dominant-baseline="alphabetic" text-anchor="end" fill="#000000" font-family="Arial"><tspan font-size="10" font-family="Arial" fill="#000000" font-weight="400" font-style="normal">Ar</tspan></text>
  <path d="M 58.6936 247.4700 L 58.2182 248.1577 L 58.9612 248.5312 L 59.2296 247.7394 Z" fill="#000000" stroke="none" />
  <path d="M 57.0723 249.8155 L 56.7279 250.3139 L 58.1196 251.0136 L 58.3142 250.4398 Z" fill="#000000" stroke="none" />
  <path d="M 55.5820 251.9718 L 55.2375 252.4701 L 57.2781 253.4959 L 57.4726 252.9222 Z" fill="#000000" stroke="none" />
  <path d="M 54.0917 254.1280 L 53.7472 254.6263 L 56.4365 255.9783 L 56.6310 255.4045 Z" fill="#000000" stroke="none" />
  <text x="92.39" y="236.81" font-size="10" dominant-baseline="alphabetic" text-anchor="start" fill="#ff0000" font-family="Arial"><tspan font-size="10" font-family="Arial" fill="#ff0000" font-weight="700" font-style="normal">CN</tspan></text>
  <polygon points="89.234399,245.393827 94.562965,238.547281 91.956269,237.042212 88.542378,245.395231" fill="#000000" stroke="none" stroke-width="0" />
  <polygon points="88.542378,245.395231 95.902885,258.14322 96.08,257.85 96.257115,257.55678 89.234399,245.393827" fill="#000000" stroke="none" stroke-width="0" />
  <text x="102.94" y="262.32" font-size="10" dominant-baseline="alphabetic" text-anchor="start" fill="#000000" font-family="Arial"><tspan font-size="7.5" font-family="Arial" fill="#000000" font-weight="400" font-style="italic" baseline-shift="3.92">n</tspan><tspan font-size="10" font-family="Arial" fill="#000000" font-weight="400" font-style="normal">Bu</tspan></text>
  <polygon points="95.902885,258.14322 101.806252,258.377057 101.83,257.777527 96.257115,257.55678 96.08,257.85" fill="#000000" stroke="none" stroke-width="0" />
  <text x="82.62" y="285" font-size="10" dominant-baseline="alphabetic" text-anchor="middle" fill="#000000" font-family="Arial"><tspan font-size="10" font-family="Arial" fill="#000000" font-weight="400" font-style="normal">Ar = 2-Ph</tspan><tspan font-size="10" font-family="Arial" fill="#000000" font-weight="400" font-style="normal">OC</tspan><tspan font-size="7.5" font-family="Arial" fill="#000000" font-weight="400" font-style="normal" baseline-shift="-2.2">6</tspan><tspan font-size="10" font-family="Arial" fill="#000000" font-weight="400" font-style="normal">H</tspan><tspan font-size="7.5" font-family="Arial" fill="#000000" font-weight="400" font-style="normal" baseline-shift="-2.2">4</tspan></text>
  <text x="82.62" y="296.5" font-size="10" dominant-baseline="alphabetic" text-anchor="middle" fill="#000000" font-family="Arial"><tspan font-size="10" font-family="Arial" fill="#000000" font-weight="400" font-style="normal">62% yield, 92% ee</tspan></text>
  <text x="48.95" y="237.02" font-size="10" dominant-baseline="alphabetic" text-anchor="start" fill="#000000" font-family="Arial"><tspan font-size="10" font-family="Arial" fill="#000000" font-weight="700" font-style="normal">H</tspan></text>
  <polygon points="60.335447,245.222689 56.124187,238.384272 55.613292,238.698893 59.824553,245.537311" fill="#000000" stroke="none" stroke-width="0" />
  <text x="349.78" y="252.08" font-size="10" dominant-baseline="alphabetic" text-anchor="start" fill="#000000" font-family="Arial"><tspan font-size="10" font-family="Arial" fill="#000000" font-weight="400" font-style="normal">S</tspan></text>
  <text x="362" y="259.28" font-size="10" dominant-baseline="alphabetic" text-anchor="start" fill="#000000" font-family="Arial"><tspan font-size="10" font-family="Arial" fill="#000000" font-weight="400" font-style="normal">N</tspan></text>
  <polygon points="357.491137,251.056021 360.799986,252.966504 361.1,252.446896 357.791151,250.536414" fill="#000000" stroke="none" stroke-width="0" />
  <polygon points="348.448727,250.524937 340.64,255.033585 340.64,255.38 340.94,255.5532 348.748741,251.044544" fill="#000000" stroke="none" stroke-width="0" />
  <text x="342.03" y="239.61" font-size="10" dominant-baseline="alphabetic" text-anchor="start" fill="#000000" font-family="Arial"><tspan font-size="10" font-family="Arial" fill="#000000" font-weight="400" font-style="normal">O</tspan></text>
  <polygon points="349.66736,244.209328 347.824934,241.018348 347.305327,241.318362 349.147753,244.509342" fill="#000000" stroke="none" stroke-width="0" />
  <polygon points="351.91196,242.913328 350.069534,239.722348 349.549927,240.022362 351.392353,243.213342" fill="#000000" stroke="none" stroke-width="0" />
  <text x="356.43" y="239.61" font-size="10" dominant-baseline="alphabetic" text-anchor="start" fill="#000000" font-family="Arial"><tspan font-size="10" font-family="Arial" fill="#000000" font-weight="400" font-style="normal">O</tspan></text>
  <polygon points="354.810187,243.243582 356.659677,240.040368 356.14007,239.740354 354.290579,242.943568" fill="#000000" stroke="none" stroke-width="0" />
  <polygon points="357.054787,244.539582 358.904277,241.336368 358.38467,241.036354 356.535179,244.239568" fill="#000000" stroke="none" stroke-width="0" />
  <polygon points="340.64,255.033585 328.17,247.833585 328.17,248.526415 340.34,255.5532 340.64,255.38" fill="#000000" stroke="none" stroke-width="0" />
  <polygon points="338.198086,256.61655 328.319927,250.913042 328.019914,251.43265 337.898073,257.136158" fill="#000000" stroke="none" stroke-width="0" />
  <polygon points="328.17,247.833585 315.4,255.2068 316,255.5532 328.17,248.526415" fill="#000000" stroke="none" stroke-width="0" />
  <polygon points="315.4,255.2068 315.4,269.9532 316,269.6068 316,255.5532" fill="#000000" stroke="none" stroke-width="0" />
  <polygon points="317.992,256.876492 317.992,268.283508 318.592,268.283508 318.592,256.876492" fill="#000000" stroke="none" stroke-width="0" />
  <polygon points="315.4,269.9532 328.17,277.326415 328.17,276.633585 316,269.6068" fill="#000000" stroke="none" stroke-width="0" />
  <polygon points="328.17,277.326415 340.64,270.126415 340.64,269.78 340.34,269.6068 328.17,276.633585" fill="#000000" stroke="none" stroke-width="0" />
  <polygon points="328.319927,274.246958 338.198086,268.54345 337.898073,268.023842 328.019914,273.72735" fill="#000000" stroke="none" stroke-width="0" />
  <polygon points="340.94,269.6068 340.94,255.5532 340.64,255.38 340.34,255.5532 340.34,269.6068 340.64,269.78" fill="#000000" stroke="none" stroke-width="0" />
  <polygon points="370.361012,252.954042 378.150602,248.436452 378.15,248.09 377.85,247.917185 370.06,252.435013" fill="#000000" stroke="none" stroke-width="0" />
  <text x="362.57" y="273.68" font-size="10" dominant-baseline="alphabetic" text-anchor="start" fill="#000000" font-family="Arial"><tspan font-size="10" font-family="Arial" fill="#000000" font-weight="400" font-style="normal">F</tspan></text>
  <polygon points="365.286606,260.136697 365.293041,264.77 365.893041,264.769167 365.886606,260.135864" fill="#000000" stroke="none" stroke-width="0" />
  <polygon points="378.150602,248.436452 390.480396,255.530036 390.779604,255.009964 378.750779,248.089534 378.15,248.09" fill="#000000" stroke="none" stroke-width="0" />
  <polygon points="378.45,247.570369 378.45,233.69 377.85,233.69 377.85,247.917185 378.15,248.09" fill="#000000" stroke="none" stroke-width="0" />
  <text x="387.3" y="244.79" font-size="10" dominant-baseline="alphabetic" text-anchor="start" fill="#000000" font-family="Arial"><tspan font-size="10" font-family="Arial" fill="#000000" font-weight="400" font-style="normal">Ph</tspan></text>
  <polygon points="378.750779,248.089534 386.26,243.753817 385.959986,243.23421 378.45,247.570369 378.15,248.09" fill="#000000" stroke="none" stroke-width="0" />
  <text x="369.17" y="292.66" font-size="10" dominant-baseline="alphabetic" text-anchor="middle" fill="#000000" font-family="Arial"><tspan font-size="10" font-family="Arial" fill="#000000" font-weight="700" font-style="normal">N</tspan><tspan font-size="10" font-family="Arial" fill="#000000" font-weight="700" font-style="normal">F</tspan></text>
  <text x="349.42" y="280.88" font-size="10" dominant-baseline="alphabetic" text-anchor="start" fill="#000000" font-family="Arial"><tspan font-size="10" font-family="Arial" fill="#000000" font-weight="400" font-style="normal">Cl</tspan></text>
  <polygon points="340.64,270.126415 348.554669,274.696232 348.854683,274.176625 340.94,269.6068 340.64,269.78" fill="#000000" stroke="none" stroke-width="0" />
  <text x="434.01" y="297" font-size="10" dominant-baseline="alphabetic" text-anchor="start" fill="#000000" font-family="Arial"><tspan font-size="10" font-family="Arial" fill="#000000" font-weight="700" font-style="normal">chiral Box</tspan></text>
  <path d="M 307.51,295.5 C 307.51,295.5 307.51,223.45 307.51,223.45 C 307.51,220.13629150101522 310.19629150101525,217.45 313.51,217.45 C 313.51,217.45 507.01,217.45 507.01,217.45 C 510.32370849898473,217.45 513.01,220.13629150101522 513.01,223.45 C 513.01,223.45 513.01,295.5 513.01,295.5 C 513.01,298.81370849898474 510.32370849898473,301.5 507.01,301.5 C 507.01,301.5 313.51,301.5 313.51,301.5 C 310.19629150101525,301.5 307.51,298.81370849898474 307.51,295.5" fill="none" stroke="#000000" stroke-width="0.6" stroke-dasharray="2.49" stroke-linecap="butt" stroke-linejoin="miter" />
  <polygon points="452.332437,407.863341 464.52,400.826415 464.52,400.48 463.970084,400.451098 452.032428,407.34373 452.05,407.68" fill="#000000" stroke="none" stroke-width="0" />
  <polygon points="464.52,400.826415 476.707676,407.863406 476.99,407.68 477.007618,407.343757 465.069916,400.451098 464.52,400.48" fill="#000000" stroke="none" stroke-width="0" />
  <text x="435.02" y="405.72" font-size="10" dominant-baseline="alphabetic" text-anchor="start" fill="#000000" font-family="Arial"><tspan font-size="10" font-family="Arial" fill="#000000" font-weight="400" font-style="normal">O</tspan></text>
  <text x="446.97" y="425.9" font-size="10" dominant-baseline="alphabetic" text-anchor="start" fill="#000000" font-family="Arial"><tspan font-size="10" font-family="Arial" fill="#000000" font-weight="400" font-style="normal">N</tspan></text>
  <polygon points="452.032428,407.34373 443.90343,403.721226 443.659205,404.269272 451.728942,407.865367 452.05,407.68" fill="#000000" stroke="none" stroke-width="0" />
  <polygon points="434.955677,405.749837 429.149322,412.194651 429.26,412.52 429.628827,412.558815 435.401446,406.151446" fill="#000000" stroke="none" stroke-width="0" />
  <polygon points="429.084114,412.815348 436.116307,424.994714 436.46,424.99 436.610859,424.651306 429.628827,412.558815 429.26,412.52" fill="#000000" stroke="none" stroke-width="0" />
  <polygon points="436.686433,425.24863 446.07,423.257369 445.945449,422.670439 436.610859,424.651306 436.46,424.99" fill="#000000" stroke="none" stroke-width="0" />
  <polygon points="451.34576,417.282813 452.332437,407.863341 452.05,407.68 451.728942,407.865367 450.749025,417.220305" fill="#000000" stroke="none" stroke-width="0" />
  <polygon points="448.76816,417.012813 449.614883,408.929432 449.018148,408.866924 448.171425,416.950305" fill="#000000" stroke="none" stroke-width="0" />
  <text x="474.92" y="425.9" font-size="10" dominant-baseline="alphabetic" text-anchor="start" fill="#000000" font-family="Arial"><tspan font-size="10" font-family="Arial" fill="#000000" font-weight="400" font-style="normal">N</tspan></text>
  <text x="486.27" y="405.72" font-size="10" dominant-baseline="alphabetic" text-anchor="start" fill="#000000" font-family="Arial"><tspan font-size="10" font-family="Arial" fill="#000000" font-weight="400" font-style="normal">O</tspan></text>
  <polygon points="476.707676,407.863406 477.701071,417.284207 478.297763,417.221287 477.31121,407.865367 476.99,407.68" fill="#000000" stroke="none" stroke-width="0" />
  <polygon points="479.426178,408.927838 480.278671,417.012407 480.875363,416.949487 480.02287,408.864918" fill="#000000" stroke="none" stroke-width="0" />
  <polygon points="482.98,423.258053 492.730842,425.328722 492.58,424.99 492.429158,424.651278 483.104635,422.671141" fill="#000000" stroke="none" stroke-width="0" />
  <polygon points="492.730842,425.328722 500.148768,412.481288 499.78,412.52 499.411232,412.558712 492.429158,424.651278 492.58,424.99" fill="#000000" stroke="none" stroke-width="0" />
  <polygon points="500.148768,412.481288 494.092498,405.752099 493.646522,406.153478 499.411232,412.558712 499.78,412.52" fill="#000000" stroke="none" stroke-width="0" />
  <polygon points="485.14666,403.719533 477.007618,407.343757 476.99,407.68 477.31121,407.865367 485.390729,404.267648" fill="#000000" stroke="none" stroke-width="0" />
  <text x="433.42" y="442.05" font-size="10" dominant-baseline="alphabetic" text-anchor="end" fill="#000000" font-family="Arial"><tspan font-size="10" font-family="Arial" fill="#000000" font-weight="400" font-style="normal">Ph</tspan></text>
  <polygon points="436.116307,424.994714 430.774533,434.058278 433.524244,435.282694 436.686433,425.24863 436.46,424.99" fill="#000000" stroke="none" stroke-width="0" />
  <text x="495.12" y="442.05" font-size="10" dominant-baseline="alphabetic" text-anchor="start" fill="#000000" font-family="Arial"><tspan font-size="10" font-family="Arial" fill="#000000" font-weight="400" font-style="normal">Ph</tspan></text>
  <path d="M 493.3188 427.3867 L 493.5074 428.2091 L 494.3521 427.8330 L 493.8669 427.1426 Z" fill="#000000" stroke="none" />
  <path d="M 493.9762 430.2545 L 494.1128 430.8504 L 495.9100 430.0502 L 495.5585 429.5499 Z" fill="#000000" stroke="none" />
  <path d="M 494.5817 432.8958 L 494.7183 433.4917 L 497.4680 432.2673 L 497.1164 431.7671 Z" fill="#000000" stroke="none" />
  <polygon points="465.069916,400.451098 476.522671,392.124503 476.17,392.01 475.817329,391.895497 464.52,400.109092 464.52,400.48" fill="#000000" stroke="none" stroke-width="0" />
  <polygon points="476.522671,392.124503 471.937935,378.02 471.72,378.32 471.502065,378.62 475.817329,391.895497 476.17,392.01" fill="#000000" stroke="none" stroke-width="0" />
  <polygon points="471.937935,378.02 457.102065,378.02 457.32,378.32 457.537935,378.62 471.502065,378.62 471.72,378.32" fill="#000000" stroke="none" stroke-width="0" />
  <polygon points="457.102065,378.02 452.517329,392.124503 452.87,392.01 453.222671,391.895497 457.537935,378.62 457.32,378.32" fill="#000000" stroke="none" stroke-width="0" />
  <polygon points="452.517329,392.124503 463.970084,400.451098 464.52,400.48 464.52,400.109092 453.222671,391.895497 452.87,392.01" fill="#000000" stroke="none" stroke-width="0" />
  <text x="417.76" y="414.92" font-size="10" dominant-baseline="alphabetic" text-anchor="end" fill="#000000" font-family="Arial"><tspan font-size="10" font-family="Arial" fill="#000000" font-weight="400" font-style="normal">Ph</tspan></text>
  <polygon points="429.149322,412.194651 418.983578,409.930325 418.67,412.923946 429.084114,412.815348 429.26,412.52" fill="#000000" stroke="none" stroke-width="0" />
  <text x="510.78" y="414.92" font-size="10" dominant-baseline="alphabetic" text-anchor="start" fill="#000000" font-family="Arial"><tspan font-size="10" font-family="Arial" fill="#000000" font-weight="400" font-style="normal">Ph</tspan></text>
  <path d="M 502.2877 412.5590 L 503.1253 412.6074 L 503.0346 411.7413 L 502.2252 411.9622 Z" fill="#000000" stroke="none" />
  <path d="M 504.7232 412.6998 L 505.3302 412.7349 L 505.1652 411.1596 L 504.5787 411.3197 Z" fill="#000000" stroke="none" />
  <path d="M 506.9281 412.8273 L 507.5351 412.8624 L 507.2958 410.5780 L 506.7093 410.7381 Z" fill="#000000" stroke="none" />
  <path d="M 509.1330 412.9548 L 509.7400 412.9899 L 509.4264 409.9963 L 508.8399 410.1564 Z" fill="#000000" stroke="none" />
  <text x="458.41" y="452.83" font-size="10" dominant-baseline="alphabetic" text-anchor="start" fill="#000000" font-family="Arial"><tspan font-size="10" font-family="Arial" fill="#000000" font-weight="700" font-style="normal">L1</tspan></text>
  <text x="42.76" y="202.12" font-size="10" dominant-baseline="alphabetic" text-anchor="start" fill="#000000" font-family="Arial"><tspan font-size="10" font-family="Arial" fill="#000000" font-weight="400" font-style="normal">Examples of enantioselective cyanation</tspan></text>
  <text x="144.39" y="254.62" font-size="10" dominant-baseline="alphabetic" text-anchor="start" fill="#000000" font-family="Arial"><tspan font-size="10" font-family="Arial" fill="#000000" font-weight="400" font-style="italic">versus</tspan></text>
  <text x="125.26" y="154.12" font-size="10" dominant-baseline="alphabetic" text-anchor="start" fill="#000000" font-family="Arial"><tspan font-size="10" font-family="Arial" fill="#000000" font-weight="400" font-style="normal">from NF reagent</tspan></text>
</svg>
