<?xml version="1.0" standalone="no" ?>
<!DOCTYPE svg PUBLIC "-//W3C//DTD SVG 1.1//EN" "http://www.w3.org/Graphics/SVG/1.1/DTD/svg11.dtd">
<svg width="884px" height="432px" viewBox="0 0 884 432" style="background-color: #ffffff00" xmlns="http://www.w3.org/2000/svg" xmlns:xlink="http://www.w3.org/1999/xlink" version="1.1" >
<path stroke="none" fill="#000000" transform="matrix(0.1 0 0 0.1 -16 -423)" d="M 5833.2,4808.2 L 3442.4,4808.2 L 3442.4,4796.2 L 5833.2,4796.2 Z " />
<path stroke="none" fill="#000000" transform="matrix(0.1 0 0 0.1 -16 -423)" d="M 5937.2,4802.2 C 5937.2,4802.2 5817.2,4833.2 5817.2,4833.2 C 5817.2,4833.2 5832.2,4815.76 5832.2,4802.2 C 5832.2,4788.2 5817.2,4770.2 5817.2,4770.2 C 5817.2,4770.2 5937.2,4802.2 5937.2,4802.2 C 5937.2,4802.2 5937.2,4802.2 5937.2,4802.2 " />
<path stroke="#000000" stroke-width="1" fill="none" transform="matrix(0.1 0 0 0.1 -16 -423)" d="M 5937.2,4802.2 C 5937.2,4802.2 5817.2,4833.2 5817.2,4833.2 C 5817.2,4833.2 5832.2,4815.76 5832.2,4802.2 C 5832.2,4788.2 5817.2,4770.2 5817.2,4770.2 C 5817.2,4770.2 5937.2,4802.2 5937.2,4802.2 C 5937.2,4802.2 5937.2,4802.2 5937.2,4802.2 " />
<text x="0" y="0" stroke="none" fill="#000000" transform="matrix(0.1 0 0 0.1 372.404 23.22)" font-style="normal" font-weight="normal" font-size="200px" font-family="Arial" >
CuOAc </text>
<text x="0" y="0" stroke="none" fill="#000000" transform="matrix(0.1 0 0 0.1 442.423 23.22)" font-style="normal" font-weight="normal" font-size="200px" font-family="Arial" >
(10 </text>
<text x="0" y="0" stroke="none" fill="#000000" transform="matrix(0.1 0 0 0.1 476.886 23.22)" font-style="normal" font-weight="normal" font-size="200px" font-family="Arial" >
mol%)</text>
<text x="0" y="0" stroke="none" fill="#000000" transform="matrix(0.1 0 0 0.1 392.965 46.72)" font-style="normal" font-weight="bold" font-size="200px" font-family="Arial" >
L1</text>
<text x="0" y="0" stroke="none" fill="#000000" transform="matrix(0.1 0 0 0.1 416.305 46.72)" font-style="normal" font-weight="normal" font-size="200px" font-family="Arial" >
 </text>
<text x="0" y="0" stroke="none" fill="#000000" transform="matrix(0.1 0 0 0.1 421.862 46.72)" font-style="normal" font-weight="normal" font-size="200px" font-family="Arial" >
(15 </text>
<text x="0" y="0" stroke="none" fill="#000000" transform="matrix(0.1 0 0 0.1 456.325 46.72)" font-style="normal" font-weight="normal" font-size="200px" font-family="Arial" >
mol%)</text>
<text x="0" y="0" stroke="none" fill="#000000" transform="matrix(0.1 0 0 0.1 386.872 86.22)" font-style="normal" font-weight="bold" font-size="200px" font-family="Arial" >
NF-1</text>
<text x="0" y="0" stroke="none" fill="#000000" transform="matrix(0.1 0 0 0.1 431.315 86.22)" font-style="normal" font-weight="normal" font-size="200px" font-family="Arial" >
 </text>
<text x="0" y="0" stroke="none" fill="#000000" transform="matrix(0.1 0 0 0.1 436.872 86.22)" font-style="normal" font-weight="normal" font-size="200px" font-family="Arial" >
/ </text>
<text x="0" y="0" stroke="none" fill="#ff0000" transform="matrix(0.1 0 0 0.1 447.985 86.22)" font-style="normal" font-weight="bold" font-size="200px" font-family="Arial" >
TMSCN</text>
<text x="0" y="0" stroke="none" fill="#000000" transform="matrix(0.1 0 0 0.1 317.233 101.87)" font-style="italic" font-weight="normal" font-size="150px" font-family="Arial" >
t</text>
<text x="0" y="0" stroke="none" fill="#000000" transform="matrix(0.1 0 0 0.1 321.4 109.72)" font-style="normal" font-weight="normal" font-size="200px" font-family="Arial" >
AmOH/Acetone/</text>
<text x="0" y="0" stroke="none" fill="#000000" transform="matrix(0.1 0 0 0.1 465.902 109.72)" font-style="normal" font-weight="normal" font-size="200px" font-family="Arial" >
PhCF</text>
<text x="0" y="0" stroke="none" fill="#000000" transform="matrix(0.1 0 0 0.1 517.025 114.12)" font-style="normal" font-weight="normal" font-size="150px" font-family="Arial" >
3</text>
<text x="0" y="0" stroke="none" fill="#000000" transform="matrix(0.1 0 0 0.1 525.368 109.72)" font-style="normal" font-weight="normal" font-size="200px" font-family="Arial" >
 </text>
<text x="0" y="0" stroke="none" fill="#000000" transform="matrix(0.1 0 0 0.1 530.924 109.72)" font-style="normal" font-weight="normal" font-size="200px" font-family="Arial" >
(1:1:1</text>
<text x="0" y="0" stroke="none" fill="#000000" transform="matrix(0.1 0 0 0.1 582.067 109.72)" font-style="normal" font-weight="normal" font-size="200px" font-family="Arial" >
)</text>
<text x="0" y="0" stroke="none" fill="#000000" transform="matrix(0.1 0 0 0.1 389.513 133.22)" font-style="normal" font-weight="normal" font-size="200px" font-family="Arial" >
Ar, </text>
<text x="0" y="0" stroke="none" fill="#000000" transform="matrix(0.1 0 0 0.1 420.626 133.22)" font-style="normal" font-weight="normal" font-size="200px" font-family="Arial" >
-40 </text>
<text x="0" y="0" stroke="none" fill="#000000" transform="matrix(0.1 0 0 0.1 455.089 133.22)" font-style="normal" font-weight="normal" font-size="200px" font-family="Arial" >
°C, </text>
<text x="0" y="0" stroke="none" fill="#000000" transform="matrix(0.1 0 0 0.1 488.644 133.22)" font-style="normal" font-weight="normal" font-size="200px" font-family="Arial" >
7 </text>
<text x="0" y="0" stroke="none" fill="#000000" transform="matrix(0.1 0 0 0.1 505.324 133.22)" font-style="normal" font-weight="normal" font-size="200px" font-family="Arial" >
d</text>
<text x="0" y="0" stroke="none" fill="#000000" transform="matrix(0.1 0 0 0.1 732.017 112.44)" font-style="normal" font-weight="bold" font-size="200px" font-family="Arial" >
2a</text>
<path stroke="none" fill="#000000" transform="matrix(0.1 0 0 0.1 -16 -423)" d="M 1151.26,7171.03 L 1145.8,7167.4 L 1145.37,7160.86 L 1384.86,7022.86 L 1395.2,7023.4 L 1395.2,7030.17 L 1151.26,7171.03 Z " />
<path stroke="none" fill="#000000" transform="matrix(0.1 0 0 0.1 -16 -423)" d="M 1395.2,7030.17 L 1395.2,7023.4 L 1405.54,7022.86 L 1645.03,7160.86 L 1644.6,7167.4 L 1639.14,7171.04 L 1395.2,7030.17 Z " />
<text x="0" y="0" stroke="none" fill="#000000" transform="matrix(0.1 0 0 0.1 64.5017 289.82)" font-style="normal" font-weight="normal" font-size="200px" font-family="Arial" >
O</text>
<text x="0" y="0" stroke="none" fill="#000000" transform="matrix(0.1 0 0 0.1 88.3583 330.18)" font-style="normal" font-weight="normal" font-size="200px" font-family="Arial" >
N</text>
<path stroke="none" fill="#000000" transform="matrix(0.1 0 0 0.1 -16 -423)" d="M 1145.37,7160.86 L 1145.8,7167.4 L 1139.66,7170.93 L 977.085,7098.78 L 981.97,7087.82 L 1145.37,7160.86 Z " />
<path stroke="none" fill="#000000" transform="matrix(0.1 0 0 0.1 -16 -423)" d="M 804.239,7128.44 L 813.154,7136.47 L 697.104,7264.85 L 690,7264.2 L 687.344,7258.44 L 804.239,7128.44 Z " />
<path stroke="none" fill="#000000" transform="matrix(0.1 0 0 0.1 -16 -423)" d="M 686.109,7269.26 L 690,7264.2 L 697.104,7264.85 L 836.981,7507.11 L 834,7513.6 L 827.684,7514.46 L 686.109,7269.26 Z " />
<path stroke="none" fill="#000000" transform="matrix(0.1 0 0 0.1 -16 -423)" d="M 837.63,7518.8 L 834,7513.6 L 836.981,7507.11 L 1019.47,7468.11 L 1021.96,7479.85 L 837.63,7518.8 Z " />
<path stroke="none" fill="#000000" transform="matrix(0.1 0 0 0.1 -16 -423)" d="M 1131.59,7360.65 L 1119.66,7359.4 L 1139.66,7170.93 L 1145.8,7167.4 L 1151.26,7171.03 L 1131.59,7360.65 Z " />
<path stroke="none" fill="#000000" transform="matrix(0.1 0 0 0.1 -16 -423)" d="M 1080.04,7355.25 L 1068.1,7354 L 1084.36,7198.8 L 1096.29,7200.05 L 1080.04,7355.25 Z " />
<text x="0" y="0" stroke="none" fill="#000000" transform="matrix(0.1 0 0 0.1 144.258 330.18)" font-style="normal" font-weight="normal" font-size="200px" font-family="Arial" >
N</text>
<text x="0" y="0" stroke="none" fill="#000000" transform="matrix(0.1 0 0 0.1 167.002 289.82)" font-style="normal" font-weight="normal" font-size="200px" font-family="Arial" >
O</text>
<path stroke="none" fill="#000000" transform="matrix(0.1 0 0 0.1 -16 -423)" d="M 1639.14,7171.04 L 1644.6,7167.4 L 1650.75,7170.93 L 1670.88,7359.4 L 1658.95,7360.66 L 1639.14,7171.04 Z " />
<path stroke="none" fill="#000000" transform="matrix(0.1 0 0 0.1 -16 -423)" d="M 1694.14,7200.06 L 1706.07,7198.8 L 1722.43,7353.97 L 1710.5,7355.23 L 1694.14,7200.06 Z " />
<path stroke="none" fill="#000000" transform="matrix(0.1 0 0 0.1 -16 -423)" d="M 1768.23,7479.77 L 1770.72,7468.04 L 1953.42,7507.11 L 1959.47,7520.67 L 1768.23,7479.77 Z " />
<path stroke="none" fill="#000000" transform="matrix(0.1 0 0 0.1 -16 -423)" d="M 1959.47,7520.67 L 1953.42,7507.11 L 2093.3,7264.84 L 2108.07,7263.3 L 1959.47,7520.67 Z " />
<path stroke="none" fill="#000000" transform="matrix(0.1 0 0 0.1 -16 -423)" d="M 2108.07,7263.3 L 2093.3,7264.84 L 1977.9,7137.06 L 1986.82,7129.03 L 2108.07,7263.3 Z " />
<path stroke="none" fill="#000000" transform="matrix(0.1 0 0 0.1 -16 -423)" d="M 1809.36,7087.47 L 1814.24,7098.43 L 1650.75,7170.93 L 1644.6,7167.4 L 1645.03,7160.86 L 1809.36,7087.47 Z " />
<text x="0" y="0" stroke="none" fill="#000000" transform="matrix(0.1 0 0 0.1 36.7786 362.48)" font-style="normal" font-weight="normal" font-size="200px" font-family="Arial" >
Ph</text>
<path stroke="none" fill="#000000" transform="matrix(0.1 0 0 0.1 -16 -423)" d="M 827.684,7514.46 L 834,7513.6 L 837.63,7518.8 L 776.488,7716.87 L 721.403,7692.34 L 827.684,7514.46 Z " />
<text x="0" y="0" stroke="none" fill="#000000" transform="matrix(0.1 0 0 0.1 184.69 362.48)" font-style="normal" font-weight="normal" font-size="200px" font-family="Arial" >
Ph</text>
<path stroke="none" fill="#000000" transform="matrix(0.1 0 0 0.1 -16 -423)" d="M 1971.21,7561.61 L 1982.17,7556.73 L 1989.11,7566.77 L 1974.03,7573.49 L 1971.21,7561.61 Z " />
<path stroke="none" fill="#000000" transform="matrix(0.1 0 0 0.1 -16 -423)" d="M 1984.89,7619.23 L 2015.85,7605.45 L 2022.79,7615.49 L 1987.71,7631.11 L 1984.89,7619.23 Z " />
<path stroke="none" fill="#000000" transform="matrix(0.1 0 0 0.1 -16 -423)" d="M 1998.56,7676.86 L 2049.53,7654.17 L 2056.47,7664.21 L 2001.38,7688.74 L 1998.56,7676.86 Z " />
<text x="0" y="0" stroke="none" fill="#000000" transform="matrix(0.1 0 0 0.1 790.99 265.28)" font-style="normal" font-weight="normal" font-size="200px" font-family="Arial" >
S</text>
<text x="0" y="0" stroke="none" fill="#000000" transform="matrix(0.1 0 0 0.1 815.378 279.68)" font-style="normal" font-weight="normal" font-size="200px" font-family="Arial" >
N</text>
<path stroke="none" fill="#000000" transform="matrix(0.1 0 0 0.1 -16 -423)" d="M 8224.82,6862.66 L 8230.82,6852.27 L 8292.09,6887.65 L 8286.09,6898.04 L 8224.82,6862.66 Z " />
<path stroke="none" fill="#000000" transform="matrix(0.1 0 0 0.1 -16 -423)" d="M 8042.87,6851.99 L 8048.87,6862.38 L 7893.06,6952.08 L 7887.2,6948.8 L 7887.29,6942.08 L 8042.87,6851.99 Z " />
<text x="0" y="0" stroke="none" fill="#000000" transform="matrix(0.1 0 0 0.1 775.482 240.34)" font-style="normal" font-weight="normal" font-size="200px" font-family="Arial" >
O</text>
<path stroke="none" fill="#000000" transform="matrix(0.1 0 0 0.1 -16 -423)" d="M 8070.01,6729.31 L 8059.62,6735.31 L 8021.45,6669.2 L 8031.84,6663.2 L 8070.01,6729.31 Z " />
<path stroke="none" fill="#000000" transform="matrix(0.1 0 0 0.1 -16 -423)" d="M 8114.91,6703.39 L 8104.51,6709.39 L 8066.34,6643.28 L 8076.73,6637.28 L 8114.91,6703.39 Z " />
<text x="0" y="0" stroke="none" fill="#000000" transform="matrix(0.1 0 0 0.1 804.282 240.34)" font-style="normal" font-weight="normal" font-size="200px" font-family="Arial" >
O</text>
<path stroke="none" fill="#000000" transform="matrix(0.1 0 0 0.1 -16 -423)" d="M 8168.09,6710.43 L 8157.69,6704.43 L 8196.64,6636.97 L 8207.04,6642.97 L 8168.09,6710.43 Z " />
<path stroke="none" fill="#000000" transform="matrix(0.1 0 0 0.1 -16 -423)" d="M 8212.98,6736.35 L 8202.59,6730.35 L 8241.54,6662.89 L 8251.93,6668.89 L 8212.98,6736.35 Z " />
<path stroke="none" fill="#000000" transform="matrix(0.1 0 0 0.1 -16 -423)" d="M 7887.29,6942.08 L 7887.2,6948.8 L 7881.34,6952.18 L 7637.8,6811.57 L 7637.8,6797.7 L 7887.29,6942.08 Z " />
<path stroke="none" fill="#000000" transform="matrix(0.1 0 0 0.1 -16 -423)" d="M 7838.36,6973.53 L 7832.36,6983.92 L 7634.8,6869.85 L 7640.8,6859.46 L 7838.36,6973.53 Z " />
<path stroke="none" fill="#000000" transform="matrix(0.1 0 0 0.1 -16 -423)" d="M 7637.8,6797.7 L 7637.8,6811.57 L 7394.26,6952.18 L 7388.4,6948.8 L 7388.31,6942.08 L 7637.8,6797.7 Z " />
<path stroke="none" fill="#000000" transform="matrix(0.1 0 0 0.1 -16 -423)" d="M 7382.54,6952.08 L 7388.4,6948.8 L 7394.26,6952.18 L 7394.26,7233.42 L 7382.25,7240.35 L 7382.54,6952.08 Z " />
<path stroke="none" fill="#000000" transform="matrix(0.1 0 0 0.1 -16 -423)" d="M 7434.24,6978.73 L 7446.24,6978.73 L 7446.24,7206.87 L 7434.24,7206.87 L 7434.24,6978.73 Z " />
<path stroke="none" fill="#000000" transform="matrix(0.1 0 0 0.1 -16 -423)" d="M 7382.25,7240.35 L 7394.26,7233.42 L 7637.8,7374.03 L 7637.8,7380.8 L 7632.02,7384.23 L 7382.25,7240.35 Z " />
<path stroke="none" fill="#000000" transform="matrix(0.1 0 0 0.1 -16 -423)" d="M 7643.58,7384.23 L 7637.8,7380.8 L 7637.8,7374.03 L 7881.34,7233.42 L 7893.35,7240.35 L 7643.58,7384.23 Z " />
<path stroke="none" fill="#000000" transform="matrix(0.1 0 0 0.1 -16 -423)" d="M 7640.8,7326.14 L 7634.8,7315.75 L 7832.36,7201.68 L 7838.36,7212.07 L 7640.8,7326.14 Z " />
<path stroke="none" fill="#000000" transform="matrix(0.1 0 0 0.1 -16 -423)" d="M 7893.35,7240.35 L 7881.34,7233.42 L 7881.34,6952.18 L 7887.2,6948.8 L 7893.06,6952.08 L 7893.35,7240.35 Z " />
<text x="0" y="0" stroke="none" fill="#000000" transform="matrix(0.1 0 0 0.1 840.518 265.1)" font-style="normal" font-weight="normal" font-size="200px" font-family="Arial" >
R</text>
<path stroke="none" fill="#000000" transform="matrix(0.1 0 0 0.1 -16 -423)" d="M 8485.53,6898.01 L 8479.51,6887.63 L 8531.76,6857.33 L 8537.78,6867.71 L 8485.53,6898.01 Z " />
<text x="0" y="0" stroke="none" fill="#000000" transform="matrix(0.1 0 0 0.1 816.532 308.48)" font-style="normal" font-weight="normal" font-size="200px" font-family="Arial" >
F</text>
<path stroke="none" fill="#000000" transform="matrix(0.1 0 0 0.1 -16 -423)" d="M 8380.15,7057.77 L 8392.15,7057.76 L 8392.27,7142.16 L 8380.27,7142.18 L 8380.15,7057.77 Z " />
<text x="0" y="0" stroke="none" fill="#000000" transform="matrix(0.1 0 0 0.1 740.558 351.68)" font-style="normal" font-weight="normal" font-size="200px" font-family="Arial" >
CF</text>
<text x="0" y="0" stroke="none" fill="#000000" transform="matrix(0.1 0 0 0.1 767.218 356.08)" font-style="normal" font-weight="normal" font-size="150px" font-family="Arial" >
3</text>
<path stroke="none" fill="#000000" transform="matrix(0.1 0 0 0.1 -16 -423)" d="M 7632.02,7384.23 L 7637.8,7380.8 L 7643.58,7384.23 L 7643.8,7571.67 L 7631.8,7571.67 L 7632.02,7384.23 Z " />
<text x="0" y="0" stroke="none" fill="#000000" transform="matrix(0.1 0 0 0.1 670.119 265.28)" font-style="normal" font-weight="normal" font-size="200px" font-family="Arial" >
F</text>
<text x="0" y="0" stroke="none" fill="#000000" transform="matrix(0.1 0 0 0.1 682.336 269.68)" font-style="normal" font-weight="normal" font-size="150px" font-family="Arial" >
3</text>
<text x="0" y="0" stroke="none" fill="#000000" transform="matrix(0.1 0 0 0.1 690.678 265.28)" font-style="normal" font-weight="normal" font-size="200px" font-family="Arial" >
C</text>
<path stroke="none" fill="#000000" transform="matrix(0.1 0 0 0.1 -16 -423)" d="M 7388.31,6942.08 L 7388.4,6948.8 L 7382.54,6952.08 L 7229.35,6863.9 L 7235.35,6853.51 L 7388.31,6942.08 Z " />
<path stroke="none" fill="#000000" transform="matrix(0.1 0 0 0.1 -16 -423)" d="M 1405.54,7022.86 L 1395.2,7023.4 L 1395.2,7016.2 L 1621.35,6851.78 L 1635.47,6856.36 L 1405.54,7022.86 Z " />
<path stroke="none" fill="#000000" transform="matrix(0.1 0 0 0.1 -16 -423)" d="M 1635.47,6856.36 L 1621.35,6851.78 L 1534.97,6586.02 L 1543.69,6574.01 L 1635.47,6856.36 Z " />
<path stroke="none" fill="#000000" transform="matrix(0.1 0 0 0.1 -16 -423)" d="M 1543.69,6574.01 L 1534.97,6586.02 L 1255.43,6586.02 L 1246.71,6574.01 L 1543.69,6574.01 Z " />
<path stroke="none" fill="#000000" transform="matrix(0.1 0 0 0.1 -16 -423)" d="M 1246.71,6574.01 L 1255.43,6586.02 L 1169.05,6851.78 L 1154.93,6856.36 L 1246.71,6574.01 Z " />
<path stroke="none" fill="#000000" transform="matrix(0.1 0 0 0.1 -16 -423)" d="M 1154.93,6856.36 L 1169.05,6851.78 L 1395.2,7016.2 L 1395.2,7023.4 L 1384.86,7022.86 L 1154.93,6856.36 Z " />
<text x="0" y="0" stroke="none" fill="#000000" transform="matrix(0.1 0 0 0.1 5.45862 308.2)" font-style="normal" font-weight="normal" font-size="200px" font-family="Arial" >
Ph</text>
<path stroke="none" fill="#000000" transform="matrix(0.1 0 0 0.1 -16 -423)" d="M 687.344,7258.44 L 690,7264.2 L 686.109,7269.26 L 473.587,7271.7 L 479.911,7211.73 L 687.344,7258.44 Z " />
<text x="0" y="0" stroke="none" fill="#000000" transform="matrix(0.1 0 0 0.1 216.01 308.2)" font-style="normal" font-weight="normal" font-size="200px" font-family="Arial" >
Ph</text>
<path stroke="none" fill="#000000" transform="matrix(0.1 0 0 0.1 -16 -423)" d="M 2150.74,7264.92 L 2149.48,7252.99 L 2161.22,7249.88 L 2162.87,7265.52 L 2150.74,7264.92 Z " />
<path stroke="none" fill="#000000" transform="matrix(0.1 0 0 0.1 -16 -423)" d="M 2223.4,7268.47 L 2219.81,7234.37 L 2231.55,7231.26 L 2235.53,7269.06 L 2223.4,7268.47 Z " />
<path stroke="none" fill="#000000" transform="matrix(0.1 0 0 0.1 -16 -423)" d="M 2296.07,7272.01 L 2290.13,7215.75 L 2301.87,7212.64 L 2308.2,7272.61 L 2296.07,7272.01 Z " />
<path stroke="none" fill="#000000" transform="matrix(0.1 0 0 0.1 -16 -423)" d="M 742.852,4733.05 L 754.859,4739.98 L 754.859,5021.22 L 749,5024.6 L 743.139,5021.27 L 742.852,4733.05 Z " />
<path stroke="none" fill="#000000" transform="matrix(0.1 0 0 0.1 -16 -423)" d="M 794.84,4766.54 L 806.84,4766.54 L 806.84,4994.66 L 794.84,4994.66 L 794.84,4766.54 Z " />
<path stroke="none" fill="#000000" transform="matrix(0.1 0 0 0.1 -16 -423)" d="M 748.952,5031.34 L 749,5024.6 L 754.859,5021.22 L 998.599,5161.83 L 998.601,5175.7 L 748.952,5031.34 Z " />
<path stroke="none" fill="#000000" transform="matrix(0.1 0 0 0.1 -16 -423)" d="M 998.601,5175.7 L 998.599,5161.83 L 1242.14,5021.22 L 1254.15,5028.15 L 998.601,5175.7 Z " />
<path stroke="none" fill="#000000" transform="matrix(0.1 0 0 0.1 -16 -423)" d="M 1001.59,5113.94 L 995.589,5103.55 L 1193.16,4989.48 L 1199.16,4999.87 L 1001.59,5113.94 Z " />
<path stroke="none" fill="#000000" transform="matrix(0.1 0 0 0.1 -16 -423)" d="M 1254.15,5028.15 L 1242.14,5021.22 L 1242.14,4739.98 L 1248,4736.6 L 1253.86,4739.98 L 1254.15,5028.15 Z " />
<path stroke="none" fill="#000000" transform="matrix(0.1 0 0 0.1 -16 -423)" d="M 1248,4729.83 L 1248,4736.6 L 1242.14,4739.98 L 998.599,4599.36 L 998.601,4585.5 L 1248,4729.83 Z " />
<path stroke="none" fill="#000000" transform="matrix(0.1 0 0 0.1 -16 -423)" d="M 1199.16,4761.33 L 1193.16,4771.72 L 995.589,4657.65 L 1001.59,4647.26 L 1199.16,4761.33 Z " />
<path stroke="none" fill="#000000" transform="matrix(0.1 0 0 0.1 -16 -423)" d="M 998.601,4585.5 L 998.599,4599.36 L 754.859,4739.98 L 742.852,4733.05 L 998.601,4585.5 Z " />
<path stroke="none" fill="#000000" transform="matrix(0.1 0 0 0.1 -16 -423)" d="M 1253.86,4739.98 L 1248,4736.6 L 1248,4729.83 L 1491.54,4589.22 L 1503.55,4596.15 L 1253.86,4739.98 Z " />
<text x="0" y="0" stroke="none" fill="#000000" transform="matrix(0.1 0 0 0.1 155.179 58.46)" font-style="normal" font-weight="normal" font-size="200px" font-family="Arial" >
•</text>
<path stroke="none" fill="#000000" transform="matrix(0.1 0 0 0.1 -16 -423)" d="M 1494.4,4567.87 L 1500.4,4557.47 L 1718.55,4683.43 L 1712.55,4693.83 L 1494.4,4567.87 Z " />
<path stroke="none" fill="#000000" transform="matrix(0.1 0 0 0.1 -16 -423)" d="M 1468.48,4612.76 L 1474.48,4602.37 L 1692.63,4728.33 L 1686.63,4738.72 L 1468.48,4612.76 Z " />
<path stroke="none" fill="#000000" transform="matrix(0.1 0 0 0.1 -16 -423)" d="M 1810.27,4750.25 L 1816.27,4739.86 L 2025.12,4860.44 L 2019.12,4870.83 L 1810.27,4750.25 Z " />
<path stroke="none" fill="#000000" transform="matrix(0.1 0 0 0.1 -16 -423)" d="M 1784.35,4795.14 L 1790.35,4784.75 L 1999.2,4905.33 L 1993.2,4915.72 L 1784.35,4795.14 Z " />
<text x="0" y="0" stroke="none" fill="#ff0000" transform="matrix(0.1 0 0 0.1 201.338 58.51)" font-style="normal" font-weight="bold" font-size="200px" font-family="Arial" >
H</text>
<path stroke="none" fill="#000000" transform="matrix(0.1 0 0 0.1 -16 -423)" d="M 2002.06,4883.86 L 1990.05,4876.94 L 2140.25,4790.5 L 2146.25,4800.89 L 2002.06,4883.86 Z " />
<path stroke="none" fill="#000000" transform="matrix(0.1 0 0 0.1 -16 -423)" d="M 1503.55,4596.15 L 1491.54,4589.22 L 1491.4,4304.6 L 1503.4,4304.6 L 1503.55,4596.15 Z " />
<text x="0" y="0" stroke="none" fill="#000000" transform="matrix(0.1 0 0 0.1 15.0586 101.66)" font-style="normal" font-weight="normal" font-size="200px" font-family="Arial" >
Ph</text>
<path stroke="none" fill="#000000" transform="matrix(0.1 0 0 0.1 -16 -423)" d="M 743.139,5021.27 L 749,5024.6 L 748.952,5031.34 L 562.685,5139.1 L 556.685,5128.71 L 743.139,5021.27 Z " />
<path stroke="none" fill="#000000" transform="matrix(0.1 0 0 0.1 -16 -423)" d="M 6680.45,4728.05 L 6692.46,4734.98 L 6692.46,5016.22 L 6686.6,5019.6 L 6680.74,5016.27 L 6680.45,4728.05 Z " />
<path stroke="none" fill="#000000" transform="matrix(0.1 0 0 0.1 -16 -423)" d="M 6732.44,4761.54 L 6744.44,4761.54 L 6744.44,4989.66 L 6732.44,4989.66 L 6732.44,4761.54 Z " />
<path stroke="none" fill="#000000" transform="matrix(0.1 0 0 0.1 -16 -423)" d="M 6686.55,5026.34 L 6686.6,5019.6 L 6692.46,5016.22 L 6936.2,5156.83 L 6936.2,5170.7 L 6686.55,5026.34 Z " />
<path stroke="none" fill="#000000" transform="matrix(0.1 0 0 0.1 -16 -423)" d="M 6936.2,5170.7 L 6936.2,5156.83 L 7179.74,5016.22 L 7191.75,5023.15 L 6936.2,5170.7 Z " />
<path stroke="none" fill="#000000" transform="matrix(0.1 0 0 0.1 -16 -423)" d="M 6939.19,5108.94 L 6933.19,5098.55 L 7130.76,4984.48 L 7136.76,4994.87 L 6939.19,5108.94 Z " />
<path stroke="none" fill="#000000" transform="matrix(0.1 0 0 0.1 -16 -423)" d="M 7191.75,5023.15 L 7179.74,5016.22 L 7179.74,4734.98 L 7185.6,4731.6 L 7191.46,4734.98 L 7191.75,5023.15 Z " />
<path stroke="none" fill="#000000" transform="matrix(0.1 0 0 0.1 -16 -423)" d="M 7185.6,4724.83 L 7185.6,4731.6 L 7179.74,4734.98 L 6936.2,4594.36 L 6936.2,4580.5 L 7185.6,4724.83 Z " />
<path stroke="none" fill="#000000" transform="matrix(0.1 0 0 0.1 -16 -423)" d="M 7136.76,4756.33 L 7130.76,4766.72 L 6933.19,4652.65 L 6939.19,4642.26 L 7136.76,4756.33 Z " />
<path stroke="none" fill="#000000" transform="matrix(0.1 0 0 0.1 -16 -423)" d="M 6936.2,4580.5 L 6936.2,4594.36 L 6692.46,4734.98 L 6680.45,4728.05 L 6936.2,4580.5 Z " />
<path stroke="none" fill="#000000" transform="matrix(0.1 0 0 0.1 -16 -423)" d="M 7191.46,4734.98 L 7185.6,4731.6 L 7185.6,4724.83 L 7429.14,4584.22 L 7441.15,4591.15 L 7191.46,4734.98 Z " />
<text x="0" y="0" stroke="none" fill="#000000" transform="matrix(0.1 0 0 0.1 748.939 57.96)" font-style="normal" font-weight="normal" font-size="200px" font-family="Arial" >
•</text>
<path stroke="none" fill="#000000" transform="matrix(0.1 0 0 0.1 -16 -423)" d="M 7432,4562.87 L 7438,4552.47 L 7656.15,4678.43 L 7650.15,4688.83 L 7432,4562.87 Z " />
<path stroke="none" fill="#000000" transform="matrix(0.1 0 0 0.1 -16 -423)" d="M 7406.08,4607.76 L 7412.08,4597.37 L 7630.23,4723.33 L 7624.23,4733.72 L 7406.08,4607.76 Z " />
<path stroke="none" fill="#000000" transform="matrix(0.1 0 0 0.1 -16 -423)" d="M 7747.87,4745.25 L 7753.87,4734.86 L 7962.72,4855.44 L 7956.72,4865.83 L 7747.87,4745.25 Z " />
<path stroke="none" fill="#000000" transform="matrix(0.1 0 0 0.1 -16 -423)" d="M 7721.95,4790.14 L 7727.95,4779.75 L 7936.8,4900.33 L 7930.8,4910.72 L 7721.95,4790.14 Z " />
<text x="0" y="0" stroke="none" fill="#ff0000" transform="matrix(0.1 0 0 0.1 795.098 58.01)" font-style="normal" font-weight="bold" font-size="200px" font-family="Arial" >
CN</text>
<path stroke="none" fill="#000000" transform="matrix(0.1 0 0 0.1 -16 -423)" d="M 7980.02,4855.84 L 7974.01,4845.45 L 7983.35,4837.63 L 7991.46,4851.67 L 7980.02,4855.84 Z " />
<path stroke="none" fill="#000000" transform="matrix(0.1 0 0 0.1 -16 -423)" d="M 8039.86,4834.02 L 8022.84,4804.54 L 8032.18,4796.71 L 8051.31,4829.84 L 8039.86,4834.02 Z " />
<path stroke="none" fill="#000000" transform="matrix(0.1 0 0 0.1 -16 -423)" d="M 8099.7,4812.19 L 8071.66,4763.62 L 8081,4755.79 L 8111.15,4808.01 L 8099.7,4812.19 Z " />
<path stroke="none" fill="#000000" transform="matrix(0.1 0 0 0.1 -16 -423)" d="M 7441.15,4591.15 L 7429.14,4584.22 L 7429,4299.6 L 7441,4299.6 L 7441.15,4591.15 Z " />
<text x="0" y="0" stroke="none" fill="#000000" transform="matrix(0.1 0 0 0.1 608.819 101.16)" font-style="normal" font-weight="normal" font-size="200px" font-family="Arial" >
Ph</text>
<path stroke="none" fill="#000000" transform="matrix(0.1 0 0 0.1 -16 -423)" d="M 6680.74,5016.27 L 6686.6,5019.6 L 6686.55,5026.34 L 6500.29,5134.1 L 6494.28,5123.71 L 6680.74,5016.27 Z " />
<path stroke="none" fill="#000000" transform="matrix(0.1 0 0 0.1 -16 -423)" d="M 7927.8,4875.6 L 7939.8,4875.6 L 7965.59,5176.67 L 7904.71,5155.15 L 7927.8,4875.6 Z " />
<text x="0" y="0" stroke="none" fill="#000000" transform="matrix(0.1 0 0 0.1 111.8 392.52)" font-style="normal" font-weight="bold" font-size="200px" font-family="Arial" >
L1</text>
<text x="0" y="0" stroke="none" fill="#000000" transform="matrix(0.1 0 0 0.1 699.96 388.4)" font-style="normal" font-weight="bold" font-size="200px" font-family="Arial" >
N</text>
<text x="0" y="0" stroke="none" fill="#000000" transform="matrix(0.1 0 0 0.1 714.404 388.4)" font-style="normal" font-weight="bold" font-size="200px" font-family="Arial" >
F-1 </text>
<text x="0" y="0" stroke="none" fill="#000000" transform="matrix(0.1 0 0 0.1 749.96 388.4)" font-style="normal" font-weight="normal" font-size="200px" font-family="Arial" >
R </text>
<text x="0" y="0" stroke="none" fill="#000000" transform="matrix(0.1 0 0 0.1 769.96 388.4)" font-style="normal" font-weight="normal" font-size="200px" font-family="Arial" >
=</text>
<path stroke="none" fill="#000000" transform="matrix(0.1 0 0 0.1 -16 -423)" d="M 1990.05,4876.94 L 2002.06,4883.86 L 2002.06,5165.22 L 1990.05,5172.15 L 1990.05,4876.94 Z " />
<path stroke="none" fill="#000000" transform="matrix(0.1 0 0 0.1 -16 -423)" d="M 1990.05,5172.15 L 2002.06,5165.22 L 2245.6,5305.83 L 2245.6,5319.7 L 1990.05,5172.15 Z " />
<path stroke="none" fill="#000000" transform="matrix(0.1 0 0 0.1 -16 -423)" d="M 2245.6,5319.7 L 2245.6,5305.83 L 2495,5161.5 L 2495,5175.37 L 2245.6,5319.7 Z " />
<path stroke="none" fill="#000000" transform="matrix(0.1 0 0 0.1 -16 -423)" d="M 2495,5175.37 L 2495,5161.5 L 2744.4,5305.83 L 2744.4,5319.7 L 2495,5175.37 Z " />
<path stroke="none" fill="#000000" transform="matrix(0.1 0 0 0.1 -16 -423)" d="M 2744.4,5319.7 L 2744.4,5305.83 L 2990.8,5163.4 L 2996.8,5173.8 L 2744.4,5319.7 Z " />
<path stroke="none" fill="#000000" transform="matrix(0.1 0 0 0.1 -16 -423)" d="M 7904.71,5155.15 L 7965.59,5176.67 L 8183.2,5300.83 L 8183.2,5314.7 L 7904.71,5155.15 Z " />
<path stroke="none" fill="#000000" transform="matrix(0.1 0 0 0.1 -16 -423)" d="M 8183.2,5314.7 L 8183.2,5300.83 L 8432.6,5156.5 L 8432.6,5170.37 L 8183.2,5314.7 Z " />
<path stroke="none" fill="#000000" transform="matrix(0.1 0 0 0.1 -16 -423)" d="M 8432.6,5170.37 L 8432.6,5156.5 L 8682,5300.83 L 8682,5314.7 L 8432.6,5170.37 Z " />
<path stroke="none" fill="#000000" transform="matrix(0.1 0 0 0.1 -16 -423)" d="M 8682,5314.7 L 8682,5300.83 L 8928.4,5158.4 L 8934.4,5168.8 L 8682,5314.7 Z " />
<text x="0" y="0" stroke="none" fill="#000000" transform="matrix(0.1 0 0 0.1 126.237 120.94)" font-style="normal" font-weight="bold" font-size="200px" font-family="Arial" >
1a</text>
<text x="0" y="0" stroke="none" fill="#800080" transform="matrix(0.1 0 0 0.1 359.16 153.2)" font-style="normal" font-weight="normal" font-size="200px" font-family="Arial" >
&quot;standard </text>
<text x="0" y="0" stroke="none" fill="#800080" transform="matrix(0.1 0 0 0.1 449.648 153.2)" font-style="normal" font-weight="normal" font-size="200px" font-family="Arial" >
conditions&quot;</text>
<path stroke="none" fill="#000000" transform="matrix(0.1 0 0 0.1 -16 -423)" d="M 3889.06,6933.43 L 3883.6,6929.8 L 3883.17,6923.26 L 4125.31,6783.58 L 4133,6785.8 L 4133,6792.57 L 3889.06,6933.43 Z " />
<path stroke="none" fill="#000000" transform="matrix(0.1 0 0 0.1 -16 -423)" d="M 4133,6792.57 L 4133,6785.8 L 4140.71,6783.59 L 4382.83,6923.26 L 4382.4,6929.8 L 4376.94,6933.44 L 4133,6792.57 Z " />
<text x="0" y="0" stroke="none" fill="#000000" transform="matrix(0.1 0 0 0.1 338.282 266.08)" font-style="normal" font-weight="normal" font-size="200px" font-family="Arial" >
O</text>
<text x="0" y="0" stroke="none" fill="#000000" transform="matrix(0.1 0 0 0.1 362.138 306.42)" font-style="normal" font-weight="normal" font-size="200px" font-family="Arial" >
N</text>
<path stroke="none" fill="#000000" transform="matrix(0.1 0 0 0.1 -16 -423)" d="M 3883.17,6923.26 L 3883.6,6929.8 L 3877.46,6933.33 L 3714.91,6861.32 L 3719.78,6850.36 L 3883.17,6923.26 Z " />
<path stroke="none" fill="#000000" transform="matrix(0.1 0 0 0.1 -16 -423)" d="M 3542.04,6891.04 L 3550.95,6899.07 L 3434.9,7027.45 L 3427.8,7026.8 L 3424.53,7021.63 L 3542.04,6891.04 Z " />
<path stroke="none" fill="#000000" transform="matrix(0.1 0 0 0.1 -16 -423)" d="M 3424.66,7033.04 L 3427.8,7026.8 L 3434.9,7027.45 L 3574.78,7269.71 L 3571.8,7276.2 L 3564.83,7275.8 L 3424.66,7033.04 Z " />
<path stroke="none" fill="#000000" transform="matrix(0.1 0 0 0.1 -16 -423)" d="M 3574.62,7281.63 L 3571.8,7276.2 L 3574.78,7269.71 L 3757.25,7230.58 L 3759.75,7242.32 L 3574.62,7281.63 Z " />
<path stroke="none" fill="#000000" transform="matrix(0.1 0 0 0.1 -16 -423)" d="M 3869.39,7123.05 L 3857.46,7121.8 L 3877.46,6933.33 L 3883.6,6929.8 L 3889.06,6933.43 L 3869.39,7123.05 Z " />
<path stroke="none" fill="#000000" transform="matrix(0.1 0 0 0.1 -16 -423)" d="M 3817.84,7117.65 L 3805.9,7116.4 L 3822.16,6961.23 L 3834.09,6962.48 L 3817.84,7117.65 Z " />
<text x="0" y="0" stroke="none" fill="#000000" transform="matrix(0.1 0 0 0.1 418.038 306.42)" font-style="normal" font-weight="normal" font-size="200px" font-family="Arial" >
N</text>
<text x="0" y="0" stroke="none" fill="#000000" transform="matrix(0.1 0 0 0.1 440.782 266.08)" font-style="normal" font-weight="normal" font-size="200px" font-family="Arial" >
O</text>
<path stroke="none" fill="#000000" transform="matrix(0.1 0 0 0.1 -16 -423)" d="M 4376.94,6933.44 L 4382.4,6929.8 L 4388.55,6933.33 L 4408.68,7121.8 L 4396.75,7123.06 L 4376.94,6933.44 Z " />
<path stroke="none" fill="#000000" transform="matrix(0.1 0 0 0.1 -16 -423)" d="M 4431.94,6962.48 L 4443.87,6961.23 L 4460.23,7116.37 L 4448.3,7117.63 L 4431.94,6962.48 Z " />
<path stroke="none" fill="#000000" transform="matrix(0.1 0 0 0.1 -16 -423)" d="M 4506.04,7242.24 L 4508.54,7230.51 L 4691.22,7269.7 L 4697.26,7283.27 L 4506.04,7242.24 Z " />
<path stroke="none" fill="#000000" transform="matrix(0.1 0 0 0.1 -16 -423)" d="M 4697.26,7283.27 L 4691.22,7269.7 L 4831.1,7027.44 L 4845.87,7025.9 L 4697.26,7283.27 Z " />
<path stroke="none" fill="#000000" transform="matrix(0.1 0 0 0.1 -16 -423)" d="M 4845.87,7025.9 L 4831.1,7027.44 L 4715.7,6899.66 L 4724.62,6891.63 L 4845.87,7025.9 Z " />
<path stroke="none" fill="#000000" transform="matrix(0.1 0 0 0.1 -16 -423)" d="M 4547.14,6850 L 4552.02,6860.97 L 4388.55,6933.33 L 4382.4,6929.8 L 4382.83,6923.26 L 4547.14,6850 Z " />
<path stroke="none" fill="#000000" transform="matrix(0.1 0 0 0.1 -16 -423)" d="M 3424.53,7021.63 L 3427.8,7026.8 L 3424.66,7033.04 L 3147.66,7117.76 L 3142.08,7056.93 L 3424.53,7021.63 Z " />
<path stroke="none" fill="#000000" transform="matrix(0.1 0 0 0.1 -16 -423)" d="M 3142.08,7056.93 L 3147.66,7117.76 L 3122.24,7369.4 L 3116,7373 L 3110.42,7369.78 L 3142.08,7056.93 Z " />
<path stroke="none" fill="#000000" transform="matrix(0.1 0 0 0.1 -16 -423)" d="M 3116.71,7379.73 L 3116,7373 L 3122.24,7369.4 L 3352.95,7473.35 L 3379.2,7490.2 L 3373.73,7494.18 L 3116.71,7379.73 Z " />
<path stroke="none" fill="#000000" transform="matrix(0.1 0 0 0.1 -16 -423)" d="M 3119.83,7438.04 L 3124.71,7427.08 L 3333.18,7519.91 L 3328.3,7530.87 L 3119.83,7438.04 Z " />
<path stroke="none" fill="#000000" transform="matrix(0.1 0 0 0.1 -16 -423)" d="M 3387.73,7530.32 L 3379.2,7490.2 L 3352.95,7473.35 L 3564.83,7275.8 L 3571.8,7276.2 L 3574.62,7281.63 L 3387.73,7530.32 Z " />
<path stroke="none" fill="#000000" transform="matrix(0.1 0 0 0.1 -16 -423)" d="M 4723.08,7317.22 L 4732,7309.19 L 4741.17,7317.07 L 4729.97,7327.16 L 4723.08,7317.22 Z " />
<path stroke="none" fill="#000000" transform="matrix(0.1 0 0 0.1 -16 -423)" d="M 4756.84,7365.96 L 4776.96,7347.84 L 4786.13,7355.72 L 4763.73,7375.9 L 4756.84,7365.96 Z " />
<path stroke="none" fill="#000000" transform="matrix(0.1 0 0 0.1 -16 -423)" d="M 4790.61,7414.69 L 4821.92,7386.48 L 4831.1,7394.37 L 4797.5,7424.64 L 4790.61,7414.69 Z " />
<path stroke="none" fill="#000000" transform="matrix(0.1 0 0 0.1 -16 -423)" d="M 4824.37,7463.43 L 4866.89,7425.13 L 4876.06,7433.02 L 4831.26,7473.38 L 4824.37,7463.43 Z " />
<path stroke="none" fill="#000000" transform="matrix(0.1 0 0 0.1 -16 -423)" d="M 4892.47,7494.18 L 4881.26,7486.03 L 5143.77,7369.4 L 5150,7373 L 5149.29,7379.73 L 4892.47,7494.18 Z " />
<path stroke="none" fill="#000000" transform="matrix(0.1 0 0 0.1 -16 -423)" d="M 4937.85,7530.85 L 4932.96,7519.89 L 5141.3,7427.05 L 5146.19,7438.01 L 4937.85,7530.85 Z " />
<path stroke="none" fill="#000000" transform="matrix(0.1 0 0 0.1 -16 -423)" d="M 5155.59,7369.78 L 5150,7373 L 5143.77,7369.4 L 5114.03,7087.22 L 5125.97,7085.97 L 5155.59,7369.78 Z " />
<path stroke="none" fill="#000000" transform="matrix(0.1 0 0 0.1 -16 -423)" d="M 5077.53,7046.77 L 5065.01,7105.75 L 5053.59,7101.76 L 5065.47,7045.78 L 5077.53,7046.77 Z " />
<path stroke="none" fill="#000000" transform="matrix(0.1 0 0 0.1 -16 -423)" d="M 5018.43,7041.93 L 5009.04,7086.17 L 4997.62,7082.17 L 5006.37,7040.94 L 5018.43,7041.93 Z " />
<path stroke="none" fill="#000000" transform="matrix(0.1 0 0 0.1 -16 -423)" d="M 4959.33,7037.09 L 4953.07,7066.59 L 4941.65,7062.59 L 4947.27,7036.11 L 4959.33,7037.09 Z " />
<path stroke="none" fill="#000000" transform="matrix(0.1 0 0 0.1 -16 -423)" d="M 4900.23,7032.26 L 4897.1,7047 L 4885.68,7043.01 L 4888.17,7031.27 L 4900.23,7032.26 Z " />
<path stroke="none" fill="#000000" transform="matrix(0.1 0 0 0.1 -16 -423)" d="M 3110.42,7369.78 L 3116,7373 L 3116.71,7379.73 L 2889.18,7545.15 L 2876.51,7539.51 L 3110.42,7369.78 Z " />
<path stroke="none" fill="#000000" transform="matrix(0.1 0 0 0.1 -16 -423)" d="M 2876.51,7539.51 L 2889.18,7545.15 L 2918.67,7824.82 L 2907.46,7832.97 L 2876.51,7539.51 Z " />
<path stroke="none" fill="#000000" transform="matrix(0.1 0 0 0.1 -16 -423)" d="M 2931.72,7567.36 L 2943.66,7566.1 L 2967.58,7792.97 L 2955.65,7794.23 L 2931.72,7567.36 Z " />
<path stroke="none" fill="#000000" transform="matrix(0.1 0 0 0.1 -16 -423)" d="M 2907.46,7832.97 L 2918.67,7824.82 L 3175.49,7939.07 L 3176.94,7952.86 L 2907.46,7832.97 Z " />
<path stroke="none" fill="#000000" transform="matrix(0.1 0 0 0.1 -16 -423)" d="M 3176.94,7952.86 L 3175.49,7939.07 L 3403.02,7773.85 L 3415.68,7779.49 L 3176.94,7952.86 Z " />
<path stroke="none" fill="#000000" transform="matrix(0.1 0 0 0.1 -16 -423)" d="M 3173.47,7891.14 L 3166.42,7881.43 L 3351.01,7747.39 L 3358.06,7757.1 L 3173.47,7891.14 Z " />
<path stroke="none" fill="#000000" transform="matrix(0.1 0 0 0.1 -16 -423)" d="M 3415.68,7779.49 L 3403.02,7773.85 L 3373.73,7494.18 L 3379.2,7490.2 L 3387.73,7530.32 L 3415.68,7779.49 Z " />
<path stroke="none" fill="#000000" transform="matrix(0.1 0 0 0.1 -16 -423)" d="M 4881.26,7486.03 L 4892.47,7494.18 L 4862.98,7773.85 L 4850.31,7779.49 L 4881.26,7486.03 Z " />
<path stroke="none" fill="#000000" transform="matrix(0.1 0 0 0.1 -16 -423)" d="M 4850.31,7779.49 L 4862.98,7773.85 L 5090.51,7939.07 L 5089.06,7952.86 L 4850.31,7779.49 Z " />
<path stroke="none" fill="#000000" transform="matrix(0.1 0 0 0.1 -16 -423)" d="M 4907.96,7757.11 L 4915.01,7747.4 L 5099.59,7881.44 L 5092.54,7891.15 L 4907.96,7757.11 Z " />
<path stroke="none" fill="#000000" transform="matrix(0.1 0 0 0.1 -16 -423)" d="M 5089.06,7952.86 L 5090.51,7939.07 L 5347.53,7824.82 L 5358.74,7832.97 L 5089.06,7952.86 Z " />
<path stroke="none" fill="#000000" transform="matrix(0.1 0 0 0.1 -16 -423)" d="M 5358.74,7832.97 L 5347.53,7824.82 L 5376.82,7545.15 L 5389.48,7539.51 L 5358.74,7832.97 Z " />
<path stroke="none" fill="#000000" transform="matrix(0.1 0 0 0.1 -16 -423)" d="M 5310.54,7794.23 L 5298.6,7792.98 L 5322.37,7566.12 L 5334.3,7567.37 L 5310.54,7794.23 Z " />
<path stroke="none" fill="#000000" transform="matrix(0.1 0 0 0.1 -16 -423)" d="M 5389.48,7539.51 L 5376.82,7545.15 L 5149.29,7379.73 L 5150,7373 L 5155.59,7369.78 L 5389.48,7539.51 Z " />
<text x="0" y="0" stroke="none" fill="#000000" transform="matrix(0.1 0 0 0.1 404.478 238.44)" font-style="normal" font-weight="normal" font-size="200px" font-family="Arial" >
R</text>
<text x="0" y="0" stroke="none" fill="#000000" transform="matrix(0.1 0 0 0.1 375.678 238.44)" font-style="normal" font-weight="normal" font-size="200px" font-family="Arial" >
R</text>
<path stroke="none" fill="#000000" transform="matrix(0.1 0 0 0.1 -16 -423)" d="M 4140.71,6783.59 L 4133,6785.8 L 4132.98,6775.19 L 4208.43,6643.16 L 4218.82,6649.16 L 4140.71,6783.59 Z " />
<path stroke="none" fill="#000000" transform="matrix(0.1 0 0 0.1 -16 -423)" d="M 4050.07,6654.16 L 4060.46,6648.16 L 4132.98,6775.19 L 4133,6785.8 L 4125.31,6783.58 L 4050.07,6654.16 Z " />
<text x="0" y="0" stroke="none" fill="#000000" transform="matrix(0.1 0 0 0.1 329.14 395.52)" font-style="normal" font-weight="bold" font-size="200px" font-family="Arial" >
L2</text>
<text x="0" y="0" stroke="none" fill="#000000" transform="matrix(0.1 0 0 0.1 352.48 395.52)" font-style="normal" font-weight="normal" font-size="200px" font-family="Arial" >
 </text>
<text x="0" y="0" stroke="none" fill="#000000" transform="matrix(0.1 0 0 0.1 358.036 395.52)" font-style="normal" font-weight="normal" font-size="200px" font-family="Arial" >
R </text>
<text x="0" y="0" stroke="none" fill="#000000" transform="matrix(0.1 0 0 0.1 378.036 395.52)" font-style="normal" font-weight="normal" font-size="200px" font-family="Arial" >
= </text>
<text x="0" y="0" stroke="none" fill="#000000" transform="matrix(0.1 0 0 0.1 395.273 395.52)" font-style="normal" font-weight="normal" font-size="200px" font-family="Arial" >
(CH</text>
<text x="0" y="0" stroke="none" fill="#000000" transform="matrix(0.1 0 0 0.1 430.82 399.92)" font-style="normal" font-weight="normal" font-size="150px" font-family="Arial" >
2</text>
<text x="0" y="0" stroke="none" fill="#000000" transform="matrix(0.1 0 0 0.1 439.162 395.52)" font-style="normal" font-weight="normal" font-size="200px" font-family="Arial" >
)</text>
<text x="0" y="0" stroke="none" fill="#000000" transform="matrix(0.1 0 0 0.1 445.822 399.92)" font-style="normal" font-weight="normal" font-size="150px" font-family="Arial" >
2</text>
<text x="0" y="0" stroke="none" fill="#000000" transform="matrix(0.1 0 0 0.1 329.14 419.02)" font-style="normal" font-weight="bold" font-size="200px" font-family="Arial" >
L3 </text>
<text x="0" y="0" stroke="none" fill="#000000" transform="matrix(0.1 0 0 0.1 358.036 419.02)" font-style="normal" font-weight="normal" font-size="200px" font-family="Arial" >
R </text>
<text x="0" y="0" stroke="none" fill="#000000" transform="matrix(0.1 0 0 0.1 378.036 419.02)" font-style="normal" font-weight="normal" font-size="200px" font-family="Arial" >
= </text>
<text x="0" y="0" stroke="none" fill="#000000" transform="matrix(0.1 0 0 0.1 395.273 419.02)" font-style="normal" font-weight="normal" font-size="200px" font-family="Arial" >
CH</text>
<text x="0" y="0" stroke="none" fill="#000000" transform="matrix(0.1 0 0 0.1 424.16 423.42)" font-style="normal" font-weight="normal" font-size="150px" font-family="Arial" >
2</text>
<text x="0" y="0" stroke="none" fill="#000000" transform="matrix(0.1 0 0 0.1 432.502 419.02)" font-style="normal" font-weight="normal" font-size="200px" font-family="Arial" >
OH</text>
<path stroke="#000000" stroke-width="12" fill="none" transform="matrix(0.1 0 0 0.1 -16 -423)" stroke-dasharray="50" d="M 8952.6,6189.6 L 202.4,6189.6 " />
<path stroke="none" fill="#000000" transform="matrix(0.1 0 0 0.1 -16 -423)" d="M 8103.6,8071.6 L 8097.6,8061.2 L 8124.05,8045.97 L 8130.02,8056.3 L 8103.6,8071.6 L 8103.6,8071.6 Z " />
<path stroke="none" fill="#000000" transform="matrix(0.1 0 0 0.1 -16 -423)" d="M 8292.21,7949.11 L 8300,7951.2 L 8300.13,7957.86 L 8219.86,8004.31 L 8214,7994.16 L 8292.21,7949.11 L 8292.21,7949.11 Z " />
<text x="0" y="0" stroke="none" fill="#000000" transform="matrix(0.1 0 0 0.1 828.624 389.94)" font-style="normal" font-weight="normal" font-size="160px" font-family="Arial" >
Ph</text>
<path stroke="none" fill="#000000" transform="matrix(0.1 0 0 0.1 -16 -423)" d="M 8300.13,7957.86 L 8300,7951.2 L 8307.7,7949.29 L 8423.06,8015.3 L 8417.07,8025.69 L 8300.13,7957.86 Z " />
<path stroke="none" fill="#000000" transform="matrix(0.1 0 0 0.1 -16 -423)" d="M 8300,7940.19 L 8300,7951.2 L 8292.21,7949.11 L 8179.6,7754.6 L 8190,7748.6 L 8300,7940.19 Z " />
<path stroke="none" fill="#000000" transform="matrix(0.1 0 0 0.1 -16 -423)" d="M 8307.7,7949.29 L 8300,7951.2 L 8300,7940.19 L 8410,7748.6 L 8420.4,7754.6 L 8307.7,7949.29 Z " />
<path stroke="#000000" stroke-width="12" fill="none" transform="matrix(0.1 0 0 0.1 -16 -423)" d="M 8112.6,7922.4 C 8102.99,7927.95 8099.34,7939.63 8104.44,7948.46 C 8109.55,7957.3 8121.49,7959.96 8131.1,7954.41 C 8140.7,7948.86 8152.64,7951.53 8157.75,7960.37 C 8162.85,7969.2 8159.2,7980.88 8149.59,7986.43 C 8139.98,7991.98 8136.33,8003.65 8141.43,8012.49 C 8146.54,8021.33 8158.48,8023.99 8168.09,8018.44 C 8177.69,8012.89 8189.63,8015.56 8194.74,8024.39 C 8199.84,8033.23 8196.19,8044.91 8186.58,8050.46 C 8176.98,8056.01 8173.32,8067.68 8178.43,8076.52 C 8183.53,8085.35 8195.47,8088.02 8205.08,8082.47 C 8214.68,8076.92 8226.63,8079.59 8231.73,8088.42 C 8236.83,8097.26 8233.18,8108.93 8223.57,8114.48 " />
<text x="0" y="0" stroke="none" fill="#000000" transform="matrix(0.1 0 0 0.1 698.95 418.4)" font-style="normal" font-weight="bold" font-size="200px" font-family="Arial" >
N</text>
<text x="0" y="0" stroke="none" fill="#000000" transform="matrix(0.1 0 0 0.1 713.394 418.4)" font-style="normal" font-weight="bold" font-size="200px" font-family="Arial" >
F-2 </text>
<text x="0" y="0" stroke="none" fill="#000000" transform="matrix(0.1 0 0 0.1 748.95 418.4)" font-style="normal" font-weight="normal" font-size="200px" font-family="Arial" >
R </text>
<text x="0" y="0" stroke="none" fill="#000000" transform="matrix(0.1 0 0 0.1 768.95 418.4)" font-style="normal" font-weight="normal" font-size="200px" font-family="Arial" >
= </text>
<text x="0" y="0" stroke="none" fill="#000000" transform="matrix(0.1 0 0 0.1 786.187 418.4)" font-style="normal" font-weight="normal" font-size="200px" font-family="Arial" >
Ad</text>
<path stroke="none" fill="#808080" transform="matrix(0.1 0 0 0.1 -16 -423)" d="M 6216.4,8505 L 6216.4,6475 L 6228.4,6475 L 6228.4,8505 Z " />
</svg>
