<svg xmlns="http://www.w3.org/2000/svg" width="113.64" height="40.6" viewBox="5.7 24.7 113.64 40.6">
  <text x="31.64" y="48.9" font-size="10" dominant-baseline="alphabetic" text-anchor="end" fill="#000000" font-family="Arial"><tspan font-size="10" font-family="Arial" fill="#000000" font-weight="400" font-style="normal">Ar</tspan></text>
  <path d="M 14,45 C 14,51.62741699796952 19.372583002030478,57 26,57 C 32.62741699796952,57 38,51.62741699796952 38,45 C 38,38.37258300203048 32.62741699796952,33 26,33 C 19.372583002030478,33 14,38.37258300203048 14,45" fill="#000000" stroke="none" />
  <path d="M 14.140575126499138,44.81249916995316 C 14.140575126499138,51.2587248203362 19.366273519570136,56.48442321340719 25.812499169953167,56.48442321340719 C 32.2587248203362,56.48442321340719 37.4844232134072,51.2587248203362 37.4844232134072,44.81249916995316 C 37.4844232134072,38.36627351957013 32.2587248203362,33.14057512649914 25.812499169953167,33.14057512649914 C 19.366273519570136,33.14057512649914 14.140575126499138,38.36627351957013 14.140575126499138,44.81249916995316" fill="#0f0f0f" stroke="none" />
  <path d="M 14.281150252998275,44.624998339906334 C 14.281150252998275,50.89003264270288 19.35996403710979,55.96884642681439 25.62499833990633,55.96884642681439 C 31.89003264270287,55.96884642681439 36.96884642681439,50.89003264270288 36.96884642681439,44.624998339906334 C 36.96884642681439,38.35996403710979 31.89003264270287,33.28115025299828 25.62499833990633,33.28115025299828 C 19.35996403710979,33.28115025299828 14.281150252998275,38.35996403710979 14.281150252998275,44.624998339906334" fill="#1e1e1e" stroke="none" />
  <path d="M 14.421725379497413,44.4374975098595 C 14.421725379497413,50.52134046506955 19.353654554649445,55.45326964022158 25.437497509859497,55.45326964022158 C 31.52134046506955,55.45326964022158 36.45326964022158,50.52134046506955 36.45326964022158,44.4374975098595 C 36.45326964022158,38.353654554649445 31.52134046506955,33.42172537949742 25.437497509859497,33.42172537949742 C 19.353654554649445,33.42172537949742 14.421725379497413,38.353654554649445 14.421725379497413,44.4374975098595" fill="#2d2d2d" stroke="none" />
  <path d="M 14.562300505996552,44.24999667981266 C 14.562300505996552,50.15264828743622 19.347345072189103,54.937692853628775 25.249996679812664,54.937692853628775 C 31.152648287436225,54.937692853628775 35.937692853628775,50.15264828743622 35.937692853628775,44.24999667981266 C 35.937692853628775,38.3473450721891 31.152648287436225,33.56230050599655 25.249996679812664,33.56230050599655 C 19.347345072189103,33.56230050599655 14.562300505996552,38.3473450721891 14.562300505996552,44.24999667981266" fill="#3b3b3b" stroke="none" />
  <path d="M 14.70287563249569,44.06249584976583 C 14.70287563249569,49.7839561098029 19.34103558972876,54.42211606703597 25.06249584976583,54.42211606703597 C 30.7839561098029,54.42211606703597 35.42211606703597,49.7839561098029 35.42211606703597,44.06249584976583 C 35.42211606703597,38.34103558972876 30.7839561098029,33.70287563249569 25.06249584976583,33.70287563249569 C 19.34103558972876,33.70287563249569 14.70287563249569,38.34103558972876 14.70287563249569,44.06249584976583" fill="#494949" stroke="none" />
  <path d="M 14.843450758994827,43.874995019718995 C 14.843450758994827,49.41526393216957 19.334726107268416,53.90653928044316 24.874995019718995,53.90653928044316 C 30.415263932169573,53.90653928044316 34.90653928044316,49.41526393216957 34.90653928044316,43.874995019718995 C 34.90653928044316,38.334726107268416 30.415263932169573,33.84345075899483 24.874995019718995,33.84345075899483 C 19.334726107268416,33.84345075899483 14.843450758994827,38.334726107268416 14.843450758994827,43.874995019718995" fill="#565656" stroke="none" />
  <path d="M 14.984025885493963,43.68749418967216 C 14.984025885493963,49.046571754536245 19.32841662480807,53.39096249385035 24.68749418967216,53.39096249385035 C 30.046571754536252,53.39096249385035 34.39096249385036,49.046571754536245 34.39096249385036,43.68749418967216 C 34.39096249385036,38.32841662480807 30.046571754536252,33.98402588549396 24.68749418967216,33.98402588549396 C 19.32841662480807,33.98402588549396 14.984025885493963,38.32841662480807 14.984025885493963,43.68749418967216" fill="#636363" stroke="none" />
  <path d="M 15.124601011993104,43.49999335962533 C 15.124601011993104,48.677879576902924 19.32210714234773,52.87538570725755 24.49999335962533,52.87538570725755 C 29.677879576902928,52.87538570725755 33.87538570725755,48.677879576902924 33.87538570725755,43.49999335962533 C 33.87538570725755,38.32210714234773 29.677879576902928,34.12460101199311 24.49999335962533,34.12460101199311 C 19.32210714234773,34.12460101199311 15.124601011993104,38.32210714234773 15.124601011993104,43.49999335962533" fill="#6f6f6f" stroke="none" />
  <path d="M 15.265176138492238,43.31249252957849 C 15.265176138492238,48.309187399269604 19.31579765988738,52.35980892066475 24.312492529578492,52.35980892066475 C 29.309187399269604,52.35980892066475 33.35980892066475,48.309187399269604 33.35980892066475,43.31249252957849 C 33.35980892066475,38.31579765988738 29.309187399269604,34.26517613849224 24.312492529578492,34.26517613849224 C 19.31579765988738,34.26517613849224 15.265176138492238,38.31579765988738 15.265176138492238,43.31249252957849" fill="#7b7b7b" stroke="none" />
  <path d="M 15.405751264991379,43.12499169953166 C 15.405751264991379,47.94049522163628 19.309488177427042,51.844232134071945 24.12499169953166,51.844232134071945 C 28.940495221636276,51.844232134071945 32.84423213407194,47.94049522163628 32.84423213407194,43.12499169953166 C 32.84423213407194,38.30948817742704 28.940495221636276,34.40575126499138 24.12499169953166,34.40575126499138 C 19.309488177427042,34.40575126499138 15.405751264991379,38.30948817742704 15.405751264991379,43.12499169953166" fill="#868686" stroke="none" />
  <path d="M 15.546326391490517,42.937490869484826 C 15.546326391490517,47.571803044002955 19.303178694966697,51.328655347479135 23.937490869484826,51.328655347479135 C 28.571803044002955,51.328655347479135 32.328655347479135,47.571803044002955 32.328655347479135,42.937490869484826 C 32.328655347479135,38.3031786949667 28.571803044002955,34.54632639149052 23.937490869484826,34.54632639149052 C 19.303178694966697,34.54632639149052 15.546326391490517,38.3031786949667 15.546326391490517,42.937490869484826" fill="#919191" stroke="none" />
  <path d="M 15.686901517989652,42.74999003943799 C 15.686901517989652,47.20311086636963 19.29686921250635,50.813078560886325 23.74999003943799,50.813078560886325 C 28.203110866369627,50.813078560886325 31.813078560886325,47.20311086636963 31.813078560886325,42.74999003943799 C 31.813078560886325,38.29686921250635 28.203110866369627,34.686901517989654 23.74999003943799,34.686901517989654 C 19.29686921250635,34.686901517989654 15.686901517989652,38.29686921250635 15.686901517989652,42.74999003943799" fill="#9b9b9b" stroke="none" />
  <path d="M 15.82747664448879,42.56248920939116 C 15.82747664448879,46.83441868873631 19.29055973004601,50.29750177429352 23.562489209391156,50.29750177429352 C 27.834418688736303,50.29750177429352 31.297501774293522,46.83441868873631 31.297501774293522,42.56248920939116 C 31.297501774293522,38.29055973004601 27.834418688736303,34.8274766444888 23.562489209391156,34.8274766444888 C 19.29055973004601,34.8274766444888 15.82747664448879,38.29055973004601 15.82747664448879,42.56248920939116" fill="#a5a5a5" stroke="none" />
  <path d="M 15.96805177098793,42.37498837934432 C 15.96805177098793,46.46572651110298 19.284250247585668,49.78192498770072 23.374988379344323,49.78192498770072 C 27.46572651110298,49.78192498770072 30.781924987700716,46.46572651110298 30.781924987700716,42.37498837934432 C 30.781924987700716,38.28425024758567 27.46572651110298,34.96805177098793 23.374988379344323,34.96805177098793 C 19.284250247585668,34.96805177098793 15.96805177098793,38.28425024758567 15.96805177098793,42.37498837934432" fill="#aeaeae" stroke="none" />
  <path d="M 16.108626897487067,42.18748754929749 C 16.108626897487067,46.09703433346965 19.27794076512532,49.26634820110791 23.187487549297487,49.26634820110791 C 27.097034333469654,49.26634820110791 30.266348201107906,46.09703433346965 30.266348201107906,42.18748754929749 C 30.266348201107906,38.27794076512532 27.097034333469654,35.10862689748706 23.187487549297487,35.10862689748706 C 19.27794076512532,35.10862689748706 16.108626897487067,38.27794076512532 16.108626897487067,42.18748754929749" fill="#b7b7b7" stroke="none" />
  <path d="M 16.249202023986204,41.99998671925066 C 16.249202023986204,45.72834215583633 19.271631282664977,48.75077141451511 22.999986719250654,48.75077141451511 C 26.72834215583633,48.75077141451511 29.750771414515103,45.72834215583633 29.750771414515103,41.99998671925066 C 29.750771414515103,38.271631282664984 26.72834215583633,35.24920202398621 22.999986719250654,35.24920202398621 C 19.271631282664977,35.24920202398621 16.249202023986204,38.271631282664984 16.249202023986204,41.99998671925066" fill="#bfbfbf" stroke="none" />
  <path d="M 16.389777150485344,41.81248588920382 C 16.389777150485344,45.35964997820301 19.265321800204635,48.2351946279223 22.81248588920382,48.2351946279223 C 26.359649978203006,48.2351946279223 29.235194627922297,45.35964997820301 29.235194627922297,41.81248588920382 C 29.235194627922297,38.26532180020463 26.359649978203006,35.389777150485344 22.81248588920382,35.389777150485344 C 19.265321800204635,35.389777150485344 16.389777150485344,38.26532180020463 16.389777150485344,41.81248588920382" fill="#c6c6c6" stroke="none" />
  <path d="M 16.53035227698448,41.624985059156984 C 16.53035227698448,44.99095780056968 19.259012317744293,47.71961784132949 22.624985059156987,47.71961784132949 C 25.99095780056968,47.71961784132949 28.719617841329494,44.99095780056968 28.719617841329494,41.624985059156984 C 28.719617841329494,38.259012317744286 25.99095780056968,35.53035227698448 22.624985059156987,35.53035227698448 C 19.259012317744293,35.53035227698448 16.53035227698448,38.259012317744286 16.53035227698448,41.624985059156984" fill="#cecece" stroke="none" />
  <path d="M 16.670927403483617,41.437484229110154 C 16.670927403483617,44.62226562293636 19.252702835283944,47.20404105473669 22.43748422911015,47.20404105473669 C 25.622265622936357,47.20404105473669 28.204041054736685,44.62226562293636 28.204041054736685,41.437484229110154 C 28.204041054736685,38.25270283528395 25.622265622936357,35.67092740348362 22.43748422911015,35.67092740348362 C 19.252702835283944,35.67092740348362 16.670927403483617,38.25270283528395 16.670927403483617,41.437484229110154" fill="#d4d4d4" stroke="none" />
  <path d="M 16.811502529982754,41.24998339906332 C 16.811502529982754,44.25357344530303 19.246393352823603,46.68846426814388 22.249983399063318,46.68846426814388 C 25.253573445303033,46.68846426814388 27.688464268143882,44.25357344530303 27.688464268143882,41.24998339906332 C 27.688464268143882,38.2463933528236 25.253573445303033,35.811502529982754 22.249983399063318,35.811502529982754 C 19.246393352823603,35.811502529982754 16.811502529982754,38.2463933528236 16.811502529982754,41.24998339906332" fill="#dbdbdb" stroke="none" />
  <path d="M 16.952077656481894,41.06248256901648 C 16.952077656481894,43.884881267669705 19.24008387036326,46.17288748155107 22.062482569016485,46.17288748155107 C 24.88488126766971,46.17288748155107 27.172887481551076,43.884881267669705 27.172887481551076,41.06248256901648 C 27.172887481551076,38.24008387036326 24.88488126766971,35.95207765648189 22.062482569016485,35.95207765648189 C 19.24008387036326,35.95207765648189 16.952077656481894,38.24008387036326 16.952077656481894,41.06248256901648" fill="#e0e0e0" stroke="none" />
  <path d="M 17.092652782981034,40.87498173896965 C 17.092652782981034,43.516189090036384 19.23377438790292,45.65731069495827 21.87498173896965,45.65731069495827 C 24.516189090036384,45.65731069495827 26.65731069495827,43.516189090036384 26.65731069495827,40.87498173896965 C 26.65731069495827,38.23377438790292 24.516189090036384,36.092652782981034 21.87498173896965,36.092652782981034 C 19.23377438790292,36.092652782981034 17.092652782981034,38.23377438790292 17.092652782981034,40.87498173896965" fill="#e6e6e6" stroke="none" />
  <path d="M 17.23322790948017,40.687480908922815 C 17.23322790948017,43.14749691240306 19.22746490544257,45.14173390836546 21.687480908922815,45.14173390836546 C 24.14749691240306,45.14173390836546 26.14173390836546,43.14749691240306 26.14173390836546,40.687480908922815 C 26.14173390836546,38.227464905442574 24.14749691240306,36.23322790948017 21.687480908922815,36.23322790948017 C 19.22746490544257,36.23322790948017 17.23322790948017,38.227464905442574 17.23322790948017,40.687480908922815" fill="#eaeaea" stroke="none" />
  <path d="M 17.373803035979307,40.49998007887598 C 17.373803035979307,42.778804734769736 19.22115542298223,44.62615712177265 21.499980078875982,44.62615712177265 C 23.778804734769736,44.62615712177265 25.626157121772657,42.778804734769736 25.626157121772657,40.49998007887598 C 25.626157121772657,38.22115542298222 23.778804734769736,36.37380303597931 21.499980078875982,36.37380303597931 C 19.22115542298223,36.37380303597931 17.373803035979307,38.22115542298222 17.373803035979307,40.49998007887598" fill="#efefef" stroke="none" />
  <path d="M 17.514378162478444,40.31247924882915 C 17.514378162478444,42.410112557136415 19.214845940521887,44.110580335179854 21.31247924882915,44.110580335179854 C 23.41011255713641,44.110580335179854 25.110580335179854,42.410112557136415 25.110580335179854,40.31247924882915 C 25.110580335179854,38.21484594052188 23.41011255713641,36.514378162478444 21.31247924882915,36.514378162478444 C 19.214845940521887,36.514378162478444 17.514378162478444,38.21484594052188 17.514378162478444,40.31247924882915" fill="#f2f2f2" stroke="none" />
  <path d="M 17.65495328897758,40.12497841878231 C 17.65495328897758,42.04142037950309 19.20853645806154,43.595003548587044 21.124978418782312,43.595003548587044 C 23.041420379503084,43.595003548587044 24.595003548587044,42.04142037950309 24.595003548587044,40.12497841878231 C 24.595003548587044,38.20853645806154 23.041420379503084,36.65495328897758 21.124978418782312,36.65495328897758 C 19.20853645806154,36.65495328897758 17.65495328897758,38.20853645806154 17.65495328897758,40.12497841878231" fill="#f6f6f6" stroke="none" />
  <path d="M 17.79552841547672,39.937477588735476 C 17.79552841547672,41.67272820186976 19.2022269756012,43.079426761994235 20.93747758873548,43.079426761994235 C 22.67272820186976,43.079426761994235 24.079426761994238,41.67272820186976 24.079426761994238,39.937477588735476 C 24.079426761994238,38.20222697560119 22.67272820186976,36.79552841547672 20.93747758873548,36.79552841547672 C 19.2022269756012,36.79552841547672 17.79552841547672,38.20222697560119 17.79552841547672,39.937477588735476" fill="#f8f8f8" stroke="none" />
  <path d="M 17.93610354197586,39.749976758688646 C 17.93610354197586,41.30403602423644 19.195917493140854,42.56384997540143 20.749976758688646,42.56384997540143 C 22.30403602423644,42.56384997540143 23.563849975401432,41.30403602423644 23.563849975401432,39.749976758688646 C 23.563849975401432,38.195917493140854 22.30403602423644,36.93610354197586 20.749976758688646,36.93610354197586 C 19.195917493140854,36.93610354197586 17.93610354197586,38.195917493140854 17.93610354197586,39.749976758688646" fill="#fbfbfb" stroke="none" />
  <path d="M 18.076678668474994,39.56247592864181 C 18.076678668474994,40.93534384660311 19.18960801068051,42.04827318880862 20.56247592864181,42.04827318880862 C 21.93534384660311,42.04827318880862 23.048273188808626,40.93534384660311 23.048273188808626,39.56247592864181 C 23.048273188808626,38.18960801068051 21.93534384660311,37.076678668475 20.56247592864181,37.076678668475 C 19.18960801068051,37.076678668475 18.076678668474994,38.18960801068051 18.076678668474994,39.56247592864181" fill="#fcfcfc" stroke="none" />
  <path d="M 18.217253794974134,39.37497509859497 C 18.217253794974134,40.56665166896978 19.183298528220167,41.53269640221581 20.374975098594977,41.53269640221581 C 21.566651668969786,41.53269640221581 22.53269640221582,40.56665166896978 22.53269640221582,39.37497509859497 C 22.53269640221582,38.18329852822016 21.566651668969786,37.217253794974134 20.374975098594977,37.217253794974134 C 19.183298528220167,37.217253794974134 18.217253794974134,38.18329852822016 18.217253794974134,39.37497509859497" fill="#fefefe" stroke="none" />
  <path d="M 18.357828921473274,39.187474268548144 C 18.357828921473274,40.19795949133646 19.17698904575982,41.01711961562302 20.187474268548144,41.01711961562302 C 21.197959491336466,41.01711961562302 22.017119615623013,40.19795949133646 22.017119615623013,39.187474268548144 C 22.017119615623013,38.176989045759825 21.197959491336466,37.35782892147327 20.187474268548144,37.35782892147327 C 19.17698904575982,37.35782892147327 18.357828921473274,38.176989045759825 18.357828921473274,39.187474268548144" fill="#fefefe" stroke="none" />
  <path d="M 14,45 C 14,51.62741699796952 19.372583002030478,57 26,57 C 32.62741699796952,57 38,51.62741699796952 38,45 C 38,38.37258300203048 32.62741699796952,33 26,33 C 19.372583002030478,33 14,38.37258300203048 14,45" fill="none" stroke="#000000" stroke-width="0.6" stroke-linecap="round" stroke-linejoin="round" />
  <polygon points="33.179375,45.3 58,46.5 58,43.5 33.179375,44.7" fill="#000000" stroke="none" stroke-width="0" />
  <text x="82.42" y="48.9" font-size="10" dominant-baseline="alphabetic" text-anchor="start" fill="#000000" font-family="Arial"><tspan font-size="10" font-family="Arial" fill="#000000" font-weight="400" font-style="normal">N</tspan></text>
  <polygon points="58,45.3 60.567778,45.3 60.567778,44.7 58,44.7" fill="#000000" stroke="none" stroke-width="0" />
  <polygon points="63.135556,45.3 65.703333,45.3 65.703333,44.7 63.135556,44.7" fill="#000000" stroke="none" stroke-width="0" />
  <polygon points="68.271111,45.3 70.838889,45.3 70.838889,44.7 68.271111,44.7" fill="#000000" stroke="none" stroke-width="0" />
  <polygon points="73.406667,45.3 75.974444,45.3 75.974444,44.7 73.406667,44.7" fill="#000000" stroke="none" stroke-width="0" />
  <polygon points="78.542222,45.3 81.11,45.3 81.11,44.7 78.542222,44.7" fill="#000000" stroke="none" stroke-width="0" />
  <path d="M 108.67,38.005 A 1.335,1.335 0 1 0 111.33999999999999,38.005 A 1.335,1.335 0 1 0 108.67,38.005 Z" fill="#ffffff" stroke="none" />
</svg>
