<svg xmlns="http://www.w3.org/2000/svg" width="141.634555" height="87.118114" viewBox="-116.807277 -40.967511 141.634555 87.118114">
  <polygon points="-58.178041,-12.813723 -45.99,-19.850698 -45.99,-20.197111 -46.399809,-20.306913 -58.478042,-13.333337 -58.4604,-12.997111" fill="#000000" stroke="none" stroke-width="0" />
  <polygon points="-45.99,-19.850698 -33.801959,-12.813723 -33.5196,-12.997111 -33.501958,-13.333337 -45.580191,-20.306913 -45.99,-20.197111" fill="#000000" stroke="none" stroke-width="0" />
  <polygon points="-58.781568,-12.811686 -59.645804,-4.598693 -59.049099,-4.535903 -58.178041,-12.813723 -58.4604,-12.997111" fill="#000000" stroke="none" stroke-width="0" />
  <polygon points="-61.493562,-11.811291 -62.22398,-4.869989 -61.627275,-4.807199 -60.896856,-11.748501" fill="#000000" stroke="none" stroke-width="0" />
  <polygon points="-65.84767,2.267964 -73.899953,3.97777 -74.0508,4.316489 -73.880973,4.587117 -65.723046,2.854878" fill="#000000" stroke="none" stroke-width="0" />
  <polygon points="-73.899953,3.97777 -80.882009,-8.115151 -81.2508,-8.153911 -81.39231,-7.79902 -74.42889,4.261624 -74.0508,4.316489" fill="#000000" stroke="none" stroke-width="0" />
  <polygon points="-80.882009,-8.115151 -75.452678,-14.145037 -75.898565,-14.546515 -81.400236,-8.436288 -81.2508,-8.153911" fill="#000000" stroke="none" stroke-width="0" />
  <polygon points="-66.173777,-16.101906 -58.781568,-12.811686 -58.4604,-12.997111 -58.478042,-13.333337 -65.929797,-16.650061" fill="#000000" stroke="none" stroke-width="0" />
  <polygon points="-33.198432,-12.811686 -25.805899,-16.102051 -26.049879,-16.650206 -33.501958,-13.333337 -33.5196,-12.997111" fill="#000000" stroke="none" stroke-width="0" />
  <polygon points="-16.527134,-14.144827 -11.088646,-8.104773 -10.642759,-8.506251 -16.081247,-14.546306" fill="#000000" stroke="none" stroke-width="0" />
  <polygon points="-11.091008,-8.127246 -18.087003,3.989818 -17.567392,4.289825 -10.571397,-7.827239" fill="#000000" stroke="none" stroke-width="0" />
  <polygon points="-18.066439,3.98066 -26.13193,2.268049 -26.256554,2.854963 -18.191063,4.567574" fill="#000000" stroke="none" stroke-width="0" />
  <polygon points="-32.334196,-4.598693 -33.198432,-12.811686 -33.5196,-12.997111 -33.801959,-12.813723 -32.930901,-4.535903" fill="#000000" stroke="none" stroke-width="0" />
  <polygon points="-29.75602,-4.869989 -30.486438,-11.811291 -31.083144,-11.748501 -30.352725,-4.807199" fill="#000000" stroke="none" stroke-width="0" />
  <polygon points="-81.400236,-8.436288 -95.478982,-6.647125 -95.192183,-3.640227 -81.39231,-7.79902 -81.2508,-8.153911" fill="#000000" stroke="none" stroke-width="0" />
  <polygon points="-95.478982,-6.647125 -97.125575,8.99551 -96.8412,9.159689 -96.520024,8.974268 -95.192183,-3.640227" fill="#000000" stroke="none" stroke-width="0" />
  <polygon points="-96.804938,9.504204 -83.964627,15.219337 -83.6844,15.015689 -84.928451,14.133597 -96.520024,8.974268 -96.8412,9.159689" fill="#000000" stroke="none" stroke-width="0" />
  <polygon points="-74.42889,4.261624 -84.928451,14.133597 -83.6844,15.015689 -83.19109,16.837009 -73.880973,4.587117 -74.0508,4.316489" fill="#000000" stroke="none" stroke-width="0" />
  <polygon points="-18.152143,4.517229 -9.410317,16.019385 -7.180883,14.011994 -17.706257,4.11575" fill="#000000" stroke="none" stroke-width="0" />
  <polygon points="-17.743027,5.263042 -16.459526,6.951823 -15.461927,6.053581 -17.007293,4.600585" fill="#ffffff" stroke="none" stroke-width="0" />
  <polygon points="-16.095212,7.431173 -14.811711,9.119953 -13.477917,7.919 -15.023284,6.466005" fill="#ffffff" stroke="none" stroke-width="0" />
  <polygon points="-14.447397,9.599303 -13.163897,11.288084 -11.493908,9.78442 -13.039274,8.331424" fill="#ffffff" stroke="none" stroke-width="0" />
  <polygon points="-12.799583,11.767434 -11.516082,13.456215 -9.509899,11.64984 -11.055265,10.196844" fill="#ffffff" stroke="none" stroke-width="0" />
  <polygon points="-11.151768,13.935565 -9.868267,15.624346 -7.525889,13.515259 -9.071256,12.062264" fill="#ffffff" stroke="none" stroke-width="0" />
  <polygon points="-7.987237,15.206814 4.824938,9.504204 4.8612,9.159689 4.540024,8.974268 -8.231217,14.658659" fill="#000000" stroke="none" stroke-width="0" />
  <polygon points="5.145575,8.99551 3.652352,-5.190116 3.055648,-5.127305 4.540024,8.974268 4.8612,9.159689" fill="#000000" stroke="none" stroke-width="0" />
  <polygon points="-10.791608,-7.860474 3.041961,-3.691526 3.666039,-6.625895 -10.666792,-8.447348" fill="#000000" stroke="none" stroke-width="0" />
  <polygon points="-10.022289,-7.497485 -7.991152,-6.885373 -7.711898,-8.198407 -9.816339,-8.465844" fill="#ffffff" stroke="none" stroke-width="0" />
  <polygon points="-7.414681,-6.711645 -5.383545,-6.099532 -5.01018,-7.855066 -7.114621,-8.122503" fill="#ffffff" stroke="none" stroke-width="0" />
  <polygon points="-4.807073,-5.925804 -2.775937,-5.313691 -2.308462,-7.511725 -4.412903,-7.779162" fill="#ffffff" stroke="none" stroke-width="0" />
  <polygon points="-2.199466,-5.139963 -0.16833,-4.527851 0.393256,-7.168383 -1.711185,-7.435821" fill="#ffffff" stroke="none" stroke-width="0" />
  <polygon points="0.408142,-4.354123 2.439278,-3.74201 3.094974,-6.825042 0.990533,-7.09248" fill="#ffffff" stroke="none" stroke-width="0" />
  <polygon points="-83.964627,15.219337 -82.493677,29.198043 -81.860723,29.479736 -83.19109,16.837009 -83.6844,15.015689" fill="#000000" stroke="none" stroke-width="0" />
  <polygon points="-86.404296,16.806891 -85.210362,28.15307 -84.613656,28.09028 -85.80759,16.744101" fill="#000000" stroke="none" stroke-width="0" />
  <polygon points="-82.493677,29.198043 -93.863062,37.461575 -93.790538,38.150604 -81.860723,29.479736" fill="#000000" stroke="none" stroke-width="0" />
  <polygon points="-93.863062,37.461575 -106.703373,31.746442 -107.263827,32.153737 -93.790538,38.150604" fill="#000000" stroke="none" stroke-width="0" />
  <polygon points="-94.018025,34.555215 -104.440235,29.916361 -104.684215,30.464516 -94.262005,35.10337" fill="#000000" stroke="none" stroke-width="0" />
  <polygon points="-106.703373,31.746442 -108.174323,17.767736 -108.807277,17.486043 -107.263827,32.153737" fill="#000000" stroke="none" stroke-width="0" />
  <polygon points="-108.174323,17.767736 -96.804938,9.504204 -96.8412,9.159689 -97.125575,8.99551 -108.807277,17.486043" fill="#000000" stroke="none" stroke-width="0" />
  <polygon points="-105.579662,19.086553 -96.351386,12.379227 -96.704146,11.893882 -105.932422,18.601208" fill="#000000" stroke="none" stroke-width="0" />
  <polygon points="4.824938,9.504204 16.194323,17.767736 16.827277,17.486043 5.145575,8.99551 4.8612,9.159689" fill="#000000" stroke="none" stroke-width="0" />
  <polygon points="4.371386,12.379227 13.599662,19.086553 13.952422,18.601208 4.724146,11.893882" fill="#000000" stroke="none" stroke-width="0" />
  <polygon points="16.194323,17.767736 14.723373,31.746442 15.283827,32.153737 16.827277,17.486043" fill="#000000" stroke="none" stroke-width="0" />
  <polygon points="14.723373,31.746442 1.883062,37.461575 1.810538,38.150604 15.283827,32.153737" fill="#000000" stroke="none" stroke-width="0" />
  <polygon points="12.460235,29.916361 2.038025,34.555215 2.282005,35.10337 12.704215,30.464516" fill="#000000" stroke="none" stroke-width="0" />
  <polygon points="1.883062,37.461575 -9.486323,29.198043 -10.119277,29.479736 1.810538,38.150604" fill="#000000" stroke="none" stroke-width="0" />
  <polygon points="-9.486323,29.198043 -8.018596,15.249964 -8.615301,15.187174 -10.119277,29.479736" fill="#000000" stroke="none" stroke-width="0" />
  <polygon points="-6.769638,28.15307 -5.597053,17.009771 -6.193758,16.946981 -7.366344,28.09028" fill="#000000" stroke="none" stroke-width="0" />
  <polygon points="-45.99,-20.797097 -52.670377,-32.367511 -53.19,-32.667511 -53.709623,-32.967511 -46.399809,-20.306913 -45.99,-20.197111" fill="#000000" stroke="none" stroke-width="0" />
  <polygon points="-52.670377,-32.367511 -39.309623,-32.367511 -38.79,-32.667511 -38.270377,-32.967511 -53.709623,-32.967511 -53.19,-32.667511" fill="#000000" stroke="none" stroke-width="0" />
  <polygon points="-39.309623,-32.367511 -45.99,-20.797097 -45.99,-20.197111 -45.580191,-20.306913 -38.270377,-32.967511 -38.79,-32.667511" fill="#000000" stroke="none" stroke-width="0" />
  <polygon points="-62.8448,-3.224711 -57.0848,-3.224711 -55.4648,-1.604711 -55.4648,4.255289 -57.0848,5.875289 -62.8448,5.875289 -64.4648,4.255289 -64.4648,-1.604711" fill="#ffffff" stroke="none" stroke-width="0" />
  <text x="-63.5648" y="4.975289" font-size="10" dominant-baseline="alphabetic" text-anchor="start" fill="#000000" font-family="Arial"><tspan font-size="10" font-family="Arial" fill="#000000" font-weight="400" font-style="normal">N</tspan></text>
  <polygon points="-66.8148,-18.854711 -67.0448,-17.384711 -67.7348,-16.064711 -68.7948,-15.014711 -70.1348,-14.334711 -71.6148,-14.104711 -73.0948,-14.334711 -74.4348,-15.014711 -75.4948,-16.064711 -76.1848,-17.384711 -76.4148,-18.854711 -76.1848,-20.324711 -75.4948,-21.644711 -74.4348,-22.694711 -73.0948,-23.374711 -71.6148,-23.604711 -70.1348,-23.374711 -68.7948,-22.694711 -67.7348,-21.644711 -67.0448,-20.324711" fill="#ffffff" stroke="none" stroke-width="0" />
  <text x="-75.5148" y="-15.204711" font-size="10" dominant-baseline="alphabetic" text-anchor="start" fill="#000000" font-family="Arial"><tspan font-size="10" font-family="Arial" fill="#000000" font-weight="400" font-style="normal">O</tspan></text>
  <polygon points="-15.5648,-18.854711 -15.7948,-17.384711 -16.4848,-16.064711 -17.5448,-15.014711 -18.8848,-14.334711 -20.3648,-14.104711 -21.8448,-14.334711 -23.1848,-15.014711 -24.2448,-16.064711 -24.9348,-17.384711 -25.1648,-18.854711 -24.9348,-20.324711 -24.2448,-21.644711 -23.1848,-22.694711 -21.8448,-23.374711 -20.3648,-23.604711 -18.8848,-23.374711 -17.5448,-22.694711 -16.4848,-21.644711 -15.7948,-20.324711" fill="#ffffff" stroke="none" stroke-width="0" />
  <text x="-24.2648" y="-15.204711" font-size="10" dominant-baseline="alphabetic" text-anchor="start" fill="#000000" font-family="Arial"><tspan font-size="10" font-family="Arial" fill="#000000" font-weight="400" font-style="normal">O</tspan></text>
  <polygon points="-34.8948,-3.224711 -29.1348,-3.224711 -27.5148,-1.604711 -27.5148,4.255289 -29.1348,5.875289 -34.8948,5.875289 -36.5148,4.255289 -36.5148,-1.604711" fill="#ffffff" stroke="none" stroke-width="0" />
  <text x="-35.6148" y="4.975289" font-size="10" dominant-baseline="alphabetic" text-anchor="start" fill="#000000" font-family="Arial"><tspan font-size="10" font-family="Arial" fill="#000000" font-weight="400" font-style="normal">N</tspan></text>
</svg>
