<svg xmlns="http://www.w3.org/2000/svg" width="277.474925" height="163.89419" viewBox="-184.727462 -79.36 277.474925 163.89419">
  <polygon points="-71.499402,-29.574353 -45.99,-44.302645 -45.99,-44.88 -46.673015,-45.063004 -71.999404,-30.440378 -71.97,-29.88" fill="#000000" stroke="none" stroke-width="0" />
  <polygon points="-45.99,-44.302645 -20.480598,-29.574353 -20.01,-29.88 -19.980596,-30.440378 -45.306985,-45.063004 -45.99,-44.88" fill="#000000" stroke="none" stroke-width="0" />
  <polygon points="-72.50528,-29.570959 -74.98719,-5.984912 -73.992681,-5.880262 -71.499402,-29.574353 -71.97,-29.88" fill="#000000" stroke="none" stroke-width="0" />
  <polygon points="-76.2656,-28.241749 -78.56799,-6.361712 -77.573481,-6.257062 -75.271091,-28.137099" fill="#000000" stroke="none" stroke-width="0" />
  <polygon points="-81.034412,0.706831 -104.198588,5.625468 -104.45,6.19 -104.166955,6.641046 -80.826704,1.685022" fill="#000000" stroke="none" stroke-width="0" />
  <polygon points="-104.198588,5.625468 -118.835348,-19.725402 -119.45,-19.79 -119.685851,-19.198515 -105.080151,6.098557 -104.45,6.19" fill="#000000" stroke="none" stroke-width="0" />
  <polygon points="-118.835348,-19.725402 -103.068742,-37.235998 -103.811886,-37.905128 -119.69906,-20.260629 -119.45,-19.79" fill="#000000" stroke="none" stroke-width="0" />
  <polygon points="-94.019172,-39.146642 -72.50528,-29.570959 -71.97,-29.88 -71.999404,-30.440378 -93.612539,-40.060234" fill="#000000" stroke="none" stroke-width="0" />
  <polygon points="-19.47472,-29.570959 2.039172,-39.146642 1.632539,-40.060234 -19.980596,-30.440378 -20.01,-29.88" fill="#000000" stroke="none" stroke-width="0" />
  <polygon points="11.088742,-37.235998 26.870923,-19.708104 27.614068,-20.377235 11.831886,-37.905128" fill="#000000" stroke="none" stroke-width="0" />
  <polygon points="26.866987,-19.745559 12.206994,5.645548 13.073013,6.145559 27.733006,-19.245548" fill="#000000" stroke="none" stroke-width="0" />
  <polygon points="12.241269,5.630284 -10.945588,0.706831 -11.153296,1.685022 12.033561,6.608475" fill="#000000" stroke="none" stroke-width="0" />
  <polygon points="-16.99281,-5.984912 -19.47472,-29.570959 -20.01,-29.88 -20.480598,-29.574353 -17.987319,-5.880262" fill="#000000" stroke="none" stroke-width="0" />
  <polygon points="-13.41201,-6.361712 -15.7144,-28.241749 -16.708909,-28.137099 -14.406519,-6.257062" fill="#000000" stroke="none" stroke-width="0" />
  <polygon points="-119.69906,-20.260629 -148.978049,-16.539782 -148.610213,-10.481737 -119.685851,-19.198515 -119.45,-19.79" fill="#000000" stroke="none" stroke-width="0" />
  <polygon points="-148.978049,-16.539782 -152.403959,16.006368 -151.93,16.28 -151.394707,15.970964 -148.610213,-10.481737" fill="#000000" stroke="none" stroke-width="0" />
  <polygon points="-151.869564,16.85419 -124.987045,28.819412 -124.52,28.48 -127.087115,26.790105 -151.394707,15.970964 -151.93,16.28" fill="#000000" stroke="none" stroke-width="0" />
  <polygon points="-105.080151,6.098557 -127.087115,26.790105 -124.52,28.48 -123.621703,32.238852 -104.166955,6.641046 -104.45,6.19" fill="#000000" stroke="none" stroke-width="0" />
  <polygon points="12.098428,6.524565 30.310565,30.487391 34.769435,26.472609 12.841572,5.855435" fill="#000000" stroke="none" stroke-width="0" />
  <polygon points="12.780289,7.767588 13.910521,9.254703 15.367338,7.942979 14.006511,6.663492" fill="#ffffff" stroke="none" stroke-width="0" />
  <polygon points="14.51771,10.05362 15.647942,11.540735 17.459237,9.909839 16.09841,8.630352" fill="#ffffff" stroke="none" stroke-width="0" />
  <polygon points="16.255132,12.339652 17.385364,13.826767 19.551135,11.876699 18.190308,10.597212" fill="#ffffff" stroke="none" stroke-width="0" />
  <polygon points="17.992554,14.625684 19.122786,16.112799 21.643034,13.843559 20.282206,12.564072" fill="#ffffff" stroke="none" stroke-width="0" />
  <polygon points="19.729975,16.911716 20.860207,18.398832 23.734932,15.810419 22.374105,14.530932" fill="#ffffff" stroke="none" stroke-width="0" />
  <polygon points="21.467397,19.197748 22.597629,20.684864 25.82683,17.777278 24.466003,16.497792" fill="#ffffff" stroke="none" stroke-width="0" />
  <polygon points="23.204818,21.48378 24.33505,22.970896 27.918729,19.744138 26.557902,18.464652" fill="#ffffff" stroke="none" stroke-width="0" />
  <polygon points="24.94224,23.769813 26.072472,25.256928 30.010627,21.710998 28.6498,20.431511" fill="#ffffff" stroke="none" stroke-width="0" />
  <polygon points="26.679662,26.055845 27.809894,27.54296 32.102526,23.677858 30.741698,22.398371" fill="#ffffff" stroke="none" stroke-width="0" />
  <polygon points="28.417083,28.341877 29.547315,29.828992 34.194424,25.644718 32.833597,24.365231" fill="#ffffff" stroke="none" stroke-width="0" />
  <polygon points="33.053938,28.79854 59.889564,16.85419 59.95,16.28 59.414707,15.970964 32.647305,27.884949" fill="#000000" stroke="none" stroke-width="0" />
  <polygon points="60.423959,16.006368 57.307253,-13.602342 56.312747,-13.497658 59.414707,15.970964 59.95,16.28" fill="#000000" stroke="none" stroke-width="0" />
  <polygon points="27.365987,-19.300938 56.185921,-10.61563 57.434079,-16.48437 27.574013,-20.279062" fill="#000000" stroke="none" stroke-width="0" />
  <polygon points="28.648185,-18.695958 30.436805,-18.156931 30.844607,-20.074384 28.991435,-20.30989" fill="#ffffff" stroke="none" stroke-width="0" />
  <polygon points="31.39759,-17.867385 33.18621,-17.328358 33.69324,-19.712373 31.840068,-19.947878" fill="#ffffff" stroke="none" stroke-width="0" />
  <polygon points="34.146996,-17.038811 35.935615,-16.499785 36.541873,-19.350361 34.688701,-19.585867" fill="#ffffff" stroke="none" stroke-width="0" />
  <polygon points="36.896401,-16.210238 38.68502,-15.671211 39.390506,-18.98835 37.537334,-19.223855" fill="#ffffff" stroke="none" stroke-width="0" />
  <polygon points="39.645806,-15.381665 41.434425,-14.842638 42.239138,-18.626338 40.385966,-18.861844" fill="#ffffff" stroke="none" stroke-width="0" />
  <polygon points="42.395211,-14.553091 44.18383,-14.014065 45.087771,-18.264327 43.234599,-18.499833" fill="#ffffff" stroke="none" stroke-width="0" />
  <polygon points="45.144616,-13.724518 46.933235,-13.185491 47.936404,-17.902316 46.083232,-18.137821" fill="#ffffff" stroke="none" stroke-width="0" />
  <polygon points="47.894021,-12.895944 49.68264,-12.356918 50.785037,-17.540304 48.931865,-17.77581" fill="#ffffff" stroke="none" stroke-width="0" />
  <polygon points="50.643426,-12.067371 52.432045,-11.528344 53.63367,-17.178293 51.780498,-17.413798" fill="#ffffff" stroke="none" stroke-width="0" />
  <polygon points="53.392831,-11.238798 55.18145,-10.699771 56.482303,-16.816281 54.629131,-17.051787" fill="#ffffff" stroke="none" stroke-width="0" />
  <polygon points="-124.987045,28.819412 -121.907462,58.085255 -120.852538,58.554745 -123.621703,32.238852 -124.52,28.48" fill="#000000" stroke="none" stroke-width="0" />
  <polygon points="-128.380509,30.976501 -125.6756,56.681749 -124.681091,56.577099 -127.386,30.871851" fill="#000000" stroke="none" stroke-width="0" />
  <polygon points="-121.907462,58.085255 -145.710436,75.38581 -145.589564,76.53419 -120.852538,58.554745" fill="#000000" stroke="none" stroke-width="0" />
  <polygon points="-145.710436,75.38581 -172.592955,63.420588 -173.527045,64.099412 -145.589564,76.53419" fill="#000000" stroke="none" stroke-width="0" />
  <polygon points="-145.881704,71.368763 -169.493663,60.859245 -169.900296,61.772837 -146.288337,72.282355" fill="#000000" stroke="none" stroke-width="0" />
  <polygon points="-172.592955,63.420588 -175.672538,34.154745 -176.727462,33.685255 -173.527045,64.099412" fill="#000000" stroke="none" stroke-width="0" />
  <polygon points="-175.672538,34.154745 -151.869564,16.85419 -151.93,16.28 -152.403959,16.006368 -176.727462,33.685255" fill="#000000" stroke="none" stroke-width="0" />
  <polygon points="-172.107758,36.014719 -151.200708,20.81899 -151.788642,20.010081 -172.695692,35.20581" fill="#000000" stroke="none" stroke-width="0" />
  <polygon points="59.889564,16.85419 83.692538,34.154745 84.747462,33.685255 60.423959,16.006368 59.95,16.28" fill="#000000" stroke="none" stroke-width="0" />
  <polygon points="59.220708,20.81899 80.127758,36.014719 80.715692,35.20581 59.808642,20.010081" fill="#000000" stroke="none" stroke-width="0" />
  <polygon points="83.692538,34.154745 80.612955,63.420588 81.547045,64.099412 84.747462,33.685255" fill="#000000" stroke="none" stroke-width="0" />
  <polygon points="80.612955,63.420588 53.730436,75.38581 53.609564,76.53419 81.547045,64.099412" fill="#000000" stroke="none" stroke-width="0" />
  <polygon points="77.513663,60.859245 53.901704,71.368763 54.308337,72.282355 77.920296,61.772837" fill="#000000" stroke="none" stroke-width="0" />
  <polygon points="53.730436,75.38581 29.927462,58.085255 28.872538,58.554745 53.609564,76.53419" fill="#000000" stroke="none" stroke-width="0" />
  <polygon points="29.927462,58.085255 33.001674,28.870458 32.007164,28.765808 28.872538,58.554745" fill="#000000" stroke="none" stroke-width="0" />
  <polygon points="33.6956,56.681749 36.364928,31.314634 35.370419,31.209984 32.701091,56.577099" fill="#000000" stroke="none" stroke-width="0" />
  <polygon points="-45.99,-45.879978 -60.123962,-70.36 -60.99,-70.86 -61.856038,-71.36 -46.673015,-45.063004 -45.99,-44.88" fill="#000000" stroke="none" stroke-width="0" />
  <polygon points="-60.123962,-70.36 -31.856038,-70.36 -30.99,-70.86 -30.123962,-71.36 -61.856038,-71.36 -60.99,-70.86" fill="#000000" stroke="none" stroke-width="0" />
  <polygon points="-31.856038,-70.36 -45.99,-45.879978 -45.99,-44.88 -45.306985,-45.063004 -30.123962,-71.36 -30.99,-70.86" fill="#000000" stroke="none" stroke-width="0" />
  <polygon points="-77.99,-4.59 -72.23,-4.59 -70.61,-2.97 -70.61,2.89 -72.23,4.51 -77.99,4.51 -79.61,2.89 -79.61,-2.97" fill="#ffffff" stroke="none" stroke-width="0" />
  <text x="-78.71" y="3.61" font-size="10" dominant-baseline="alphabetic" text-anchor="start" fill="#000000" font-family="Arial"><tspan font-size="10" font-family="Arial" fill="#000000" font-weight="400" font-style="normal">N</tspan></text>
  <polygon points="-94.58,-42.08 -94.81,-40.61 -95.5,-39.29 -96.56,-38.24 -97.9,-37.56 -99.38,-37.33 -100.86,-37.56 -102.2,-38.24 -103.26,-39.29 -103.95,-40.61 -104.18,-42.08 -103.95,-43.55 -103.26,-44.87 -102.2,-45.92 -100.86,-46.6 -99.38,-46.83 -97.9,-46.6 -96.56,-45.92 -95.5,-44.87 -94.81,-43.55" fill="#ffffff" stroke="none" stroke-width="0" />
  <text x="-103.28" y="-38.43" font-size="10" dominant-baseline="alphabetic" text-anchor="start" fill="#000000" font-family="Arial"><tspan font-size="10" font-family="Arial" fill="#000000" font-weight="400" font-style="normal">O</tspan></text>
  <polygon points="12.2,-42.08 11.97,-40.61 11.28,-39.29 10.22,-38.24 8.88,-37.56 7.4,-37.33 5.92,-37.56 4.58,-38.24 3.52,-39.29 2.83,-40.61 2.6,-42.08 2.83,-43.55 3.52,-44.87 4.58,-45.92 5.92,-46.6 7.4,-46.83 8.88,-46.6 10.22,-45.92 11.28,-44.87 11.97,-43.55" fill="#ffffff" stroke="none" stroke-width="0" />
  <text x="3.5" y="-38.43" font-size="10" dominant-baseline="alphabetic" text-anchor="start" fill="#000000" font-family="Arial"><tspan font-size="10" font-family="Arial" fill="#000000" font-weight="400" font-style="normal">O</tspan></text>
  <polygon points="-19.75,-4.59 -13.99,-4.59 -12.37,-2.97 -12.37,2.89 -13.99,4.51 -19.75,4.51 -21.37,2.89 -21.37,-2.97" fill="#ffffff" stroke="none" stroke-width="0" />
  <text x="-20.47" y="3.61" font-size="10" dominant-baseline="alphabetic" text-anchor="start" fill="#000000" font-family="Arial"><tspan font-size="10" font-family="Arial" fill="#000000" font-weight="400" font-style="normal">N</tspan></text>
</svg>
