<?xml version="1.0" standalone="no" ?>
<!DOCTYPE svg PUBLIC "-//W3C//DTD SVG 1.1//EN" "http://www.w3.org/Graphics/SVG/1.1/DTD/svg11.dtd">
<svg width="260px" height="151px" viewBox="0 0 260 151" style="background-color: #ffffff00" xmlns="http://www.w3.org/2000/svg" xmlns:xlink="http://www.w3.org/1999/xlink" version="1.1" >
<path stroke="none" fill="#000000" transform="matrix(0.1 0 0 0.1 -133 -572.4)" d="M 2385.07,6169.79 L 2379.6,6166.15 L 2379.17,6159.61 L 2621.15,6020.04 L 2629.02,6022.15 L 2629.02,6028.92 L 2385.07,6169.79 Z " />
<path stroke="none" fill="#000000" transform="matrix(0.1 0 0 0.1 -133 -572.4)" d="M 2629.02,6028.92 L 2629.02,6022.15 L 2636.89,6020.04 L 2878.87,6159.61 L 2878.43,6166.15 L 2872.97,6169.79 L 2629.02,6028.92 Z " />
<text x="0" y="0" stroke="none" fill="#000000" transform="matrix(0.1 0 0 0.1 70.872 40.301)" font-style="normal" font-weight="normal" font-size="200px" font-family="Arial" >
O</text>
<text x="0" y="0" stroke="none" fill="#000000" transform="matrix(0.1 0 0 0.1 94.7283 80.6572)" font-style="normal" font-weight="normal" font-size="200px" font-family="Arial" >
N</text>
<path stroke="none" fill="#000000" transform="matrix(0.1 0 0 0.1 -133 -572.4)" d="M 2379.17,6159.61 L 2379.6,6166.15 L 2373.46,6169.68 L 2209.78,6097.11 L 2214.66,6086.14 L 2379.17,6159.61 Z " />
<path stroke="none" fill="#000000" transform="matrix(0.1 0 0 0.1 -133 -572.4)" d="M 2037.88,6127.37 L 2046.8,6135.39 L 1930.9,6263.68 L 1923.79,6263.04 L 1920.52,6257.87 L 2037.88,6127.37 Z " />
<path stroke="none" fill="#000000" transform="matrix(0.1 0 0 0.1 -133 -572.4)" d="M 1920.65,6269.28 L 1923.79,6263.04 L 1930.9,6263.68 L 2070.77,6505.96 L 2067.79,6512.45 L 2060.82,6512.05 L 1920.65,6269.28 Z " />
<path stroke="none" fill="#000000" transform="matrix(0.1 0 0 0.1 -133 -572.4)" d="M 2070.62,6517.88 L 2067.79,6512.45 L 2070.77,6505.96 L 2252.96,6466.96 L 2255.46,6478.7 L 2070.62,6517.88 Z " />
<path stroke="none" fill="#000000" transform="matrix(0.1 0 0 0.1 -133 -572.4)" d="M 2365.34,6359.23 L 2353.41,6357.97 L 2373.46,6169.68 L 2379.6,6166.15 L 2385.07,6169.79 L 2365.34,6359.23 Z " />
<path stroke="none" fill="#000000" transform="matrix(0.1 0 0 0.1 -133 -572.4)" d="M 2313.79,6353.81 L 2301.85,6352.56 L 2318.14,6197.56 L 2330.08,6198.82 L 2313.79,6353.81 Z " />
<text x="0" y="0" stroke="none" fill="#000000" transform="matrix(0.1 0 0 0.1 150.632 80.6572)" font-style="normal" font-weight="normal" font-size="200px" font-family="Arial" >
N</text>
<text x="0" y="0" stroke="none" fill="#000000" transform="matrix(0.1 0 0 0.1 173.375 40.301)" font-style="normal" font-weight="normal" font-size="200px" font-family="Arial" >
O</text>
<path stroke="none" fill="#000000" transform="matrix(0.1 0 0 0.1 -133 -572.4)" d="M 2872.97,6169.79 L 2878.43,6166.15 L 2884.58,6169.68 L 2904.63,6357.97 L 2892.7,6359.23 L 2872.97,6169.79 Z " />
<path stroke="none" fill="#000000" transform="matrix(0.1 0 0 0.1 -133 -572.4)" d="M 2927.96,6198.82 L 2939.89,6197.56 L 2956.19,6352.56 L 2944.25,6353.81 L 2927.96,6198.82 Z " />
<path stroke="none" fill="#000000" transform="matrix(0.1 0 0 0.1 -133 -572.4)" d="M 3001.21,6478.4 L 3003.7,6466.67 L 3187.27,6505.96 L 3193.31,6519.52 L 3001.21,6478.4 Z " />
<path stroke="none" fill="#000000" transform="matrix(0.1 0 0 0.1 -133 -572.4)" d="M 3193.31,6519.52 L 3187.27,6505.96 L 3327.14,6263.68 L 3341.91,6262.14 L 3193.31,6519.52 Z " />
<path stroke="none" fill="#000000" transform="matrix(0.1 0 0 0.1 -133 -572.4)" d="M 3341.91,6262.14 L 3327.14,6263.68 L 3210.59,6134.67 L 3219.51,6126.64 L 3341.91,6262.14 Z " />
<path stroke="none" fill="#000000" transform="matrix(0.1 0 0 0.1 -133 -572.4)" d="M 3042.26,6086.64 L 3047.14,6097.6 L 2884.58,6169.68 L 2878.43,6166.15 L 2878.87,6159.61 L 3042.26,6086.64 Z " />
<path stroke="none" fill="#000000" transform="matrix(0.1 0 0 0.1 -133 -572.4)" d="M 1920.52,6257.87 L 1923.79,6263.04 L 1920.65,6269.28 L 1643.58,6353.9 L 1637.95,6293.39 L 1920.52,6257.87 Z " />
<path stroke="none" fill="#000000" transform="matrix(0.1 0 0 0.1 -133 -572.4)" d="M 1637.95,6293.39 L 1643.58,6353.9 L 1618.22,6605.74 L 1611.98,6609.34 L 1606.4,6606.11 L 1637.95,6293.39 Z " />
<path stroke="none" fill="#000000" transform="matrix(0.1 0 0 0.1 -133 -572.4)" d="M 1612.69,6616.06 L 1611.98,6609.34 L 1618.22,6605.74 L 1848.99,6709.69 L 1875.08,6726.48 L 1869.61,6730.45 L 1612.69,6616.06 Z " />
<path stroke="none" fill="#000000" transform="matrix(0.1 0 0 0.1 -133 -572.4)" d="M 1615.8,6674.35 L 1620.68,6663.39 L 1829.1,6756.18 L 1824.22,6767.14 L 1615.8,6674.35 Z " />
<path stroke="none" fill="#000000" transform="matrix(0.1 0 0 0.1 -133 -572.4)" d="M 1883.61,6766.31 L 1875.08,6726.48 L 1848.99,6709.69 L 2060.82,6512.05 L 2067.79,6512.45 L 2070.62,6517.88 L 1883.61,6766.31 Z " />
<path stroke="none" fill="#000000" transform="matrix(0.1 0 0 0.1 -133 -572.4)" d="M 3219.36,6553.75 L 3228.28,6545.72 L 3237.45,6553.61 L 3226.25,6563.7 L 3219.36,6553.75 Z " />
<path stroke="none" fill="#000000" transform="matrix(0.1 0 0 0.1 -133 -572.4)" d="M 3252.97,6602.27 L 3273.02,6584.22 L 3282.19,6592.11 L 3259.86,6612.22 L 3252.97,6602.27 Z " />
<path stroke="none" fill="#000000" transform="matrix(0.1 0 0 0.1 -133 -572.4)" d="M 3286.59,6650.8 L 3317.76,6622.72 L 3326.93,6630.62 L 3293.47,6660.74 L 3286.59,6650.8 Z " />
<path stroke="none" fill="#000000" transform="matrix(0.1 0 0 0.1 -133 -572.4)" d="M 3320.2,6699.32 L 3362.51,6661.23 L 3371.68,6669.12 L 3327.09,6709.26 L 3320.2,6699.32 Z " />
<path stroke="none" fill="#000000" transform="matrix(0.1 0 0 0.1 -133 -572.4)" d="M 3388.43,6730.45 L 3377.21,6722.3 L 3639.82,6605.74 L 3646.06,6609.34 L 3645.35,6616.06 L 3388.43,6730.45 Z " />
<path stroke="none" fill="#000000" transform="matrix(0.1 0 0 0.1 -133 -572.4)" d="M 3433.82,6767.14 L 3428.94,6756.18 L 3637.36,6663.39 L 3642.24,6674.35 L 3433.82,6767.14 Z " />
<path stroke="none" fill="#000000" transform="matrix(0.1 0 0 0.1 -133 -572.4)" d="M 3651.64,6606.11 L 3646.06,6609.34 L 3639.82,6605.74 L 3609.98,6323.54 L 3621.92,6322.29 L 3651.64,6606.11 Z " />
<path stroke="none" fill="#000000" transform="matrix(0.1 0 0 0.1 -133 -572.4)" d="M 3573.11,6283.14 L 3560.64,6341.83 L 3549.22,6337.83 L 3561.05,6282.14 L 3573.11,6283.14 Z " />
<path stroke="none" fill="#000000" transform="matrix(0.1 0 0 0.1 -133 -572.4)" d="M 3514.28,6278.29 L 3504.92,6322.33 L 3493.5,6318.33 L 3502.23,6277.3 L 3514.28,6278.29 Z " />
<path stroke="none" fill="#000000" transform="matrix(0.1 0 0 0.1 -133 -572.4)" d="M 3455.46,6273.44 L 3449.21,6302.83 L 3437.79,6298.83 L 3443.4,6272.45 L 3455.46,6273.44 Z " />
<path stroke="none" fill="#000000" transform="matrix(0.1 0 0 0.1 -133 -572.4)" d="M 3396.63,6268.59 L 3393.49,6283.33 L 3382.08,6279.34 L 3384.57,6267.6 L 3396.63,6268.59 Z " />
<path stroke="none" fill="#000000" transform="matrix(0.1 0 0 0.1 -133 -572.4)" d="M 1606.4,6606.11 L 1611.98,6609.34 L 1612.69,6616.06 L 1385.17,6781.37 L 1372.5,6775.73 L 1606.4,6606.11 Z " />
<path stroke="none" fill="#000000" transform="matrix(0.1 0 0 0.1 -133 -572.4)" d="M 1372.5,6775.73 L 1385.17,6781.37 L 1414.56,7061.06 L 1403.35,7069.21 L 1372.5,6775.73 Z " />
<path stroke="none" fill="#000000" transform="matrix(0.1 0 0 0.1 -133 -572.4)" d="M 1427.7,6803.59 L 1439.64,6802.34 L 1463.49,7029.23 L 1451.55,7030.48 L 1427.7,6803.59 Z " />
<path stroke="none" fill="#000000" transform="matrix(0.1 0 0 0.1 -133 -572.4)" d="M 1403.35,7069.21 L 1414.56,7061.06 L 1671.48,7175.45 L 1672.93,7189.24 L 1403.35,7069.21 Z " />
<path stroke="none" fill="#000000" transform="matrix(0.1 0 0 0.1 -133 -572.4)" d="M 1672.93,7189.24 L 1671.48,7175.45 L 1899.01,7010.15 L 1911.67,7015.79 L 1672.93,7189.24 Z " />
<path stroke="none" fill="#000000" transform="matrix(0.1 0 0 0.1 -133 -572.4)" d="M 1669.46,7127.5 L 1662.41,7117.8 L 1846.98,6983.7 L 1854.03,6993.41 L 1669.46,7127.5 Z " />
<path stroke="none" fill="#000000" transform="matrix(0.1 0 0 0.1 -133 -572.4)" d="M 1911.67,7015.79 L 1899.01,7010.15 L 1869.61,6730.45 L 1875.08,6726.48 L 1883.61,6766.31 L 1911.67,7015.79 Z " />
<path stroke="none" fill="#000000" transform="matrix(0.1 0 0 0.1 -133 -572.4)" d="M 3377.21,6722.3 L 3388.43,6730.45 L 3359.03,7010.15 L 3346.37,7015.79 L 3377.21,6722.3 Z " />
<path stroke="none" fill="#000000" transform="matrix(0.1 0 0 0.1 -133 -572.4)" d="M 3346.37,7015.79 L 3359.03,7010.15 L 3586.55,7175.45 L 3585.11,7189.24 L 3346.37,7015.79 Z " />
<path stroke="none" fill="#000000" transform="matrix(0.1 0 0 0.1 -133 -572.4)" d="M 3404.01,6993.41 L 3411.06,6983.7 L 3595.63,7117.8 L 3588.58,7127.5 L 3404.01,6993.41 Z " />
<path stroke="none" fill="#000000" transform="matrix(0.1 0 0 0.1 -133 -572.4)" d="M 3585.11,7189.24 L 3586.55,7175.45 L 3843.48,7061.06 L 3854.69,7069.21 L 3585.11,7189.24 Z " />
<path stroke="none" fill="#000000" transform="matrix(0.1 0 0 0.1 -133 -572.4)" d="M 3854.69,7069.21 L 3843.48,7061.06 L 3872.87,6781.37 L 3885.54,6775.73 L 3854.69,7069.21 Z " />
<path stroke="none" fill="#000000" transform="matrix(0.1 0 0 0.1 -133 -572.4)" d="M 3806.49,7030.48 L 3794.55,7029.23 L 3818.4,6802.34 L 3830.34,6803.59 L 3806.49,7030.48 Z " />
<path stroke="none" fill="#000000" transform="matrix(0.1 0 0 0.1 -133 -572.4)" d="M 3885.54,6775.73 L 3872.87,6781.37 L 3645.35,6616.06 L 3646.06,6609.34 L 3651.64,6606.11 L 3885.54,6775.73 Z " />
<path stroke="none" fill="#000000" transform="matrix(0.1 0 0 0.1 -133 -572.4)" d="M 2636.89,6020.04 L 2629.02,6022.15 L 2629.02,6010.96 L 2763.33,5778.33 L 2784.22,5766.27 L 2636.89,6020.04 Z " />
<path stroke="none" fill="#000000" transform="matrix(0.1 0 0 0.1 -133 -572.4)" d="M 2784.22,5766.27 L 2763.33,5778.33 L 2494.71,5778.33 L 2473.82,5766.27 L 2784.22,5766.27 Z " />
<path stroke="none" fill="#000000" transform="matrix(0.1 0 0 0.1 -133 -572.4)" d="M 2473.82,5766.27 L 2494.71,5778.33 L 2629.02,6010.96 L 2629.02,6022.15 L 2621.15,6020.04 L 2473.82,5766.27 Z " />
</svg>
