<?xml version="1.0" standalone="no" ?>
<!DOCTYPE svg PUBLIC "-//W3C//DTD SVG 1.1//EN" "http://www.w3.org/Graphics/SVG/1.1/DTD/svg11.dtd">
<svg width="532px" height="305px" viewBox="0 0 532 305" style="background-color: #ffffff00" xmlns="http://www.w3.org/2000/svg" xmlns:xlink="http://www.w3.org/1999/xlink" version="1.1" >
<path stroke="none" fill="#000000" transform="matrix(0.1 0 0 0.1 -82 -548.4)" d="M 2972.42,6366.03 L 2963.2,6360 L 2962.58,6349 L 3469.6,6056.46 L 3482.82,6060 L 3482.82,6071.33 L 2972.42,6366.03 Z " />
<path stroke="none" fill="#000000" transform="matrix(0.1 0 0 0.1 -82 -548.4)" d="M 3482.82,6071.33 L 3482.82,6060 L 3496.03,6056.46 L 4003.05,6349 L 4002.43,6360 L 3993.21,6366.03 L 3482.82,6071.33 Z " />
<text x="0" y="0" stroke="none" fill="#000000" transform="matrix(0.1 0 0 0.1 151.729 70.9958)" font-style="normal" font-weight="normal" font-size="200px" font-family="Arial" >
O</text>
<text x="0" y="0" stroke="none" fill="#000000" transform="matrix(0.1 0 0 0.1 200.827 155.071)" font-style="normal" font-weight="normal" font-size="200px" font-family="Arial" >
N</text>
<path stroke="none" fill="#000000" transform="matrix(0.1 0 0 0.1 -82 -548.4)" d="M 2962.58,6349 L 2963.2,6360 L 2952.8,6366 L 2514.03,6170.96 L 2522.16,6152.69 L 2962.58,6349 Z " />
<path stroke="none" fill="#000000" transform="matrix(0.1 0 0 0.1 -82 -548.4)" d="M 2328.12,6197.58 L 2342.98,6210.96 L 2025.57,6563.05 L 2013.59,6561.84 L 2008.04,6553.24 L 2328.12,6197.58 Z " />
<path stroke="none" fill="#000000" transform="matrix(0.1 0 0 0.1 -82 -548.4)" d="M 2008.34,6572.31 L 2013.59,6561.84 L 2025.57,6563.05 L 2318.53,7070.48 L 2313.59,7081.46 L 2301.9,7080.78 L 2008.34,6572.31 Z " />
<path stroke="none" fill="#000000" transform="matrix(0.1 0 0 0.1 -82 -548.4)" d="M 2318.27,7090.58 L 2313.59,7081.46 L 2318.53,7070.48 L 2792.85,6969.37 L 2797.01,6988.93 L 2318.27,7090.58 Z " />
<path stroke="none" fill="#000000" transform="matrix(0.1 0 0 0.1 -82 -548.4)" d="M 2921.14,6855.83 L 2901.25,6853.74 L 2952.8,6366 L 2963.2,6360 L 2972.42,6366.03 L 2921.14,6855.83 Z " />
<path stroke="none" fill="#000000" transform="matrix(0.1 0 0 0.1 -82 -548.4)" d="M 2849.54,6848.3 L 2829.65,6846.21 L 2876.18,6403.45 L 2896.07,6405.54 L 2849.54,6848.3 Z " />
<text x="0" y="0" stroke="none" fill="#000000" transform="matrix(0.1 0 0 0.1 317.293 155.071)" font-style="normal" font-weight="normal" font-size="200px" font-family="Arial" >
N</text>
<text x="0" y="0" stroke="none" fill="#000000" transform="matrix(0.1 0 0 0.1 365.277 70.9958)" font-style="normal" font-weight="normal" font-size="200px" font-family="Arial" >
O</text>
<path stroke="none" fill="#000000" transform="matrix(0.1 0 0 0.1 -82 -548.4)" d="M 3993.21,6366.03 L 4002.43,6360 L 4012.83,6366 L 4064.38,6853.74 L 4044.49,6855.83 L 3993.21,6366.03 Z " />
<path stroke="none" fill="#000000" transform="matrix(0.1 0 0 0.1 -82 -548.4)" d="M 4069.56,6405.54 L 4089.45,6403.45 L 4135.99,6846.21 L 4116.09,6848.3 L 4069.56,6405.54 Z " />
<path stroke="none" fill="#000000" transform="matrix(0.1 0 0 0.1 -82 -548.4)" d="M 4167.25,6988.64 L 4171.41,6969.08 L 4647.1,7070.48 L 4657.16,7093.08 L 4167.25,6988.64 Z " />
<path stroke="none" fill="#000000" transform="matrix(0.1 0 0 0.1 -82 -548.4)" d="M 4657.16,7093.08 L 4647.1,7070.48 L 4940.06,6563.05 L 4964.67,6560.47 L 4657.16,7093.08 Z " />
<path stroke="none" fill="#000000" transform="matrix(0.1 0 0 0.1 -82 -548.4)" d="M 4964.67,6560.47 L 4940.06,6563.05 L 4621.99,6210.24 L 4636.86,6196.86 L 4964.67,6560.47 Z " />
<path stroke="none" fill="#000000" transform="matrix(0.1 0 0 0.1 -82 -548.4)" d="M 4442.35,6153.19 L 4450.48,6171.46 L 4012.83,6366 L 4002.43,6360 L 4003.05,6349 L 4442.35,6153.19 Z " />
<path stroke="none" fill="#000000" transform="matrix(0.1 0 0 0.1 -82 -548.4)" d="M 2008.04,6553.24 L 2013.59,6561.84 L 2008.34,6572.31 L 1428.12,6749.01 L 1420.93,6627.28 L 2008.04,6553.24 Z " />
<path stroke="none" fill="#000000" transform="matrix(0.1 0 0 0.1 -82 -548.4)" d="M 1420.93,6627.28 L 1428.12,6749.01 L 1374.44,7277.27 L 1363.99,7283.31 L 1354.65,7277.91 L 1420.93,6627.28 Z " />
<path stroke="none" fill="#000000" transform="matrix(0.1 0 0 0.1 -82 -548.4)" d="M 1365.17,7294.57 L 1363.99,7283.31 L 1374.44,7277.27 L 1858.77,7494.91 L 1912.12,7527.35 L 1902.95,7534.01 L 1365.17,7294.57 Z " />
<path stroke="none" fill="#000000" transform="matrix(0.1 0 0 0.1 -82 -548.4)" d="M 1368.61,7375.12 L 1376.75,7356.85 L 1848.92,7567.08 L 1840.79,7585.35 L 1368.61,7375.12 Z " />
<path stroke="none" fill="#000000" transform="matrix(0.1 0 0 0.1 -82 -548.4)" d="M 1927.91,7608.09 L 1912.12,7527.35 L 1858.77,7494.91 L 2301.9,7080.78 L 2313.59,7081.46 L 2318.27,7090.58 L 1927.91,7608.09 Z " />
<path stroke="none" fill="#000000" transform="matrix(0.1 0 0 0.1 -82 -548.4)" d="M 4680.74,7128.28 L 4695.6,7114.9 L 4710.49,7128.4 L 4692.61,7144.5 L 4680.74,7128.28 Z " />
<path stroke="none" fill="#000000" transform="matrix(0.1 0 0 0.1 -82 -548.4)" d="M 4715.76,7176.14 L 4739.54,7154.73 L 4754.43,7168.23 L 4727.63,7192.36 L 4715.76,7176.14 Z " />
<path stroke="none" fill="#000000" transform="matrix(0.1 0 0 0.1 -82 -548.4)" d="M 4750.78,7224 L 4783.47,7194.57 L 4798.36,7208.07 L 4762.66,7240.22 L 4750.78,7224 Z " />
<path stroke="none" fill="#000000" transform="matrix(0.1 0 0 0.1 -82 -548.4)" d="M 4785.81,7271.85 L 4827.4,7234.4 L 4842.3,7247.9 L 4797.68,7288.08 L 4785.81,7271.85 Z " />
<path stroke="none" fill="#000000" transform="matrix(0.1 0 0 0.1 -82 -548.4)" d="M 4820.83,7319.71 L 4871.34,7274.23 L 4886.23,7287.74 L 4832.7,7335.93 L 4820.83,7319.71 Z " />
<path stroke="none" fill="#000000" transform="matrix(0.1 0 0 0.1 -82 -548.4)" d="M 4855.85,7367.57 L 4915.27,7314.07 L 4930.17,7327.57 L 4867.72,7383.79 L 4855.85,7367.57 Z " />
<path stroke="none" fill="#000000" transform="matrix(0.1 0 0 0.1 -82 -548.4)" d="M 4890.87,7415.43 L 4959.21,7353.9 L 4974.1,7367.4 L 4902.75,7431.65 L 4890.87,7415.43 Z " />
<path stroke="none" fill="#000000" transform="matrix(0.1 0 0 0.1 -82 -548.4)" d="M 4925.9,7463.28 L 5003.14,7393.73 L 5018.04,7407.24 L 4937.77,7479.51 L 4925.9,7463.28 Z " />
<path stroke="none" fill="#000000" transform="matrix(0.1 0 0 0.1 -82 -548.4)" d="M 4960.92,7511.14 L 5047.08,7433.57 L 5061.97,7447.07 L 4972.79,7527.37 L 4960.92,7511.14 Z " />
<path stroke="none" fill="#000000" transform="matrix(0.1 0 0 0.1 -82 -548.4)" d="M 5062.68,7534.01 L 5043.99,7520.43 L 5591.19,7277.27 L 5601.64,7283.31 L 5600.46,7294.57 L 5062.68,7534.01 Z " />
<path stroke="none" fill="#000000" transform="matrix(0.1 0 0 0.1 -82 -548.4)" d="M 5124.84,7585.35 L 5116.71,7567.08 L 5588.88,7356.85 L 5597.02,7375.12 L 5124.84,7585.35 Z " />
<path stroke="none" fill="#000000" transform="matrix(0.1 0 0 0.1 -82 -548.4)" d="M 5610.98,7277.91 L 5601.64,7283.31 L 5591.19,7277.27 L 5528.98,6687.64 L 5548.87,6685.55 L 5610.98,7277.91 Z " />
<path stroke="none" fill="#000000" transform="matrix(0.1 0 0 0.1 -82 -548.4)" d="M 5498.58,6616.68 L 5473.63,6734.05 L 5454.49,6727.91 L 5478.59,6614.51 L 5498.58,6616.68 Z " />
<path stroke="none" fill="#000000" transform="matrix(0.1 0 0 0.1 -82 -548.4)" d="M 5439.62,6610.27 L 5417.17,6715.92 L 5398.03,6709.78 L 5419.64,6608.1 L 5439.62,6610.27 Z " />
<path stroke="none" fill="#000000" transform="matrix(0.1 0 0 0.1 -82 -548.4)" d="M 5380.66,6603.87 L 5360.7,6697.79 L 5341.56,6691.64 L 5360.68,6601.7 L 5380.66,6603.87 Z " />
<path stroke="none" fill="#000000" transform="matrix(0.1 0 0 0.1 -82 -548.4)" d="M 5321.71,6597.47 L 5304.24,6679.66 L 5285.1,6673.51 L 5301.72,6595.3 L 5321.71,6597.47 Z " />
<path stroke="none" fill="#000000" transform="matrix(0.1 0 0 0.1 -82 -548.4)" d="M 5262.75,6591.07 L 5247.77,6661.53 L 5228.63,6655.38 L 5242.76,6588.9 L 5262.75,6591.07 Z " />
<path stroke="none" fill="#000000" transform="matrix(0.1 0 0 0.1 -82 -548.4)" d="M 5203.79,6584.67 L 5191.31,6643.4 L 5172.17,6637.25 L 5183.81,6582.5 L 5203.79,6584.67 Z " />
<path stroke="none" fill="#000000" transform="matrix(0.1 0 0 0.1 -82 -548.4)" d="M 5144.84,6578.26 L 5134.85,6625.26 L 5115.71,6619.12 L 5124.85,6576.09 L 5144.84,6578.26 Z " />
<path stroke="none" fill="#000000" transform="matrix(0.1 0 0 0.1 -82 -548.4)" d="M 5085.88,6571.86 L 5078.38,6607.13 L 5059.24,6600.99 L 5065.89,6569.69 L 5085.88,6571.86 Z " />
<path stroke="none" fill="#000000" transform="matrix(0.1 0 0 0.1 -82 -548.4)" d="M 5026.92,6565.46 L 5021.92,6589 L 5002.78,6582.85 L 5006.94,6563.29 L 5026.92,6565.46 Z " />
<path stroke="none" fill="#000000" transform="matrix(0.1 0 0 0.1 -82 -548.4)" d="M 1354.65,7277.91 L 1363.99,7283.31 L 1365.17,7294.57 L 888.928,7640.58 L 867.823,7631.19 L 1354.65,7277.91 Z " />
<path stroke="none" fill="#000000" transform="matrix(0.1 0 0 0.1 -82 -548.4)" d="M 867.823,7631.19 L 888.928,7640.58 L 950.461,8226.03 L 931.771,8239.61 L 867.823,7631.19 Z " />
<path stroke="none" fill="#000000" transform="matrix(0.1 0 0 0.1 -82 -548.4)" d="M 944.584,7670.84 L 964.474,7668.75 L 1018.5,8182.78 L 998.611,8184.87 L 944.584,7670.84 Z " />
<path stroke="none" fill="#000000" transform="matrix(0.1 0 0 0.1 -82 -548.4)" d="M 931.771,8239.61 L 950.461,8226.03 L 1488.24,8465.46 L 1490.65,8488.44 L 931.771,8239.61 Z " />
<path stroke="none" fill="#000000" transform="matrix(0.1 0 0 0.1 -82 -548.4)" d="M 1490.65,8488.44 L 1488.24,8465.46 L 1964.48,8119.45 L 1985.59,8128.85 L 1490.65,8488.44 Z " />
<path stroke="none" fill="#000000" transform="matrix(0.1 0 0 0.1 -82 -548.4)" d="M 1486.61,8402.14 L 1474.85,8385.96 L 1893,8082.15 L 1904.76,8098.33 L 1486.61,8402.14 Z " />
<path stroke="none" fill="#000000" transform="matrix(0.1 0 0 0.1 -82 -548.4)" d="M 1985.59,8128.85 L 1964.48,8119.45 L 1902.95,7534.01 L 1912.12,7527.35 L 1927.91,7608.09 L 1985.59,8128.85 Z " />
<path stroke="none" fill="#000000" transform="matrix(0.1 0 0 0.1 -82 -548.4)" d="M 5043.99,7520.43 L 5062.68,7534.01 L 5001.15,8119.45 L 4980.04,8128.85 L 5043.99,7520.43 Z " />
<path stroke="none" fill="#000000" transform="matrix(0.1 0 0 0.1 -82 -548.4)" d="M 4980.04,8128.85 L 5001.15,8119.45 L 5477.39,8465.46 L 5474.98,8488.44 L 4980.04,8128.85 Z " />
<path stroke="none" fill="#000000" transform="matrix(0.1 0 0 0.1 -82 -548.4)" d="M 5060.87,8098.33 L 5072.63,8082.15 L 5490.78,8385.96 L 5479.02,8402.14 L 5060.87,8098.33 Z " />
<path stroke="none" fill="#000000" transform="matrix(0.1 0 0 0.1 -82 -548.4)" d="M 5474.98,8488.44 L 5477.39,8465.46 L 6015.17,8226.03 L 6033.86,8239.61 L 5474.98,8488.44 Z " />
<path stroke="none" fill="#000000" transform="matrix(0.1 0 0 0.1 -82 -548.4)" d="M 6033.86,8239.61 L 6015.17,8226.03 L 6076.7,7640.58 L 6097.81,7631.19 L 6033.86,8239.61 Z " />
<path stroke="none" fill="#000000" transform="matrix(0.1 0 0 0.1 -82 -548.4)" d="M 5967.02,8184.87 L 5947.13,8182.78 L 6001.16,7668.75 L 6021.05,7670.84 L 5967.02,8184.87 Z " />
<path stroke="none" fill="#000000" transform="matrix(0.1 0 0 0.1 -82 -548.4)" d="M 6097.81,7631.19 L 6076.7,7640.58 L 5600.46,7294.57 L 5601.64,7283.31 L 5610.98,7277.91 L 6097.81,7631.19 Z " />
<path stroke="none" fill="#000000" transform="matrix(0.1 0 0 0.1 -82 -548.4)" d="M 3496.03,6056.46 L 3482.82,6060 L 3482.82,6041.09 L 3766.44,5549.84 L 3801.2,5529.77 L 3496.03,6056.46 Z " />
<path stroke="none" fill="#000000" transform="matrix(0.1 0 0 0.1 -82 -548.4)" d="M 3801.2,5529.77 L 3766.44,5549.84 L 3199.19,5549.84 L 3164.43,5529.77 L 3801.2,5529.77 Z " />
<path stroke="none" fill="#000000" transform="matrix(0.1 0 0 0.1 -82 -548.4)" d="M 3164.43,5529.77 L 3199.19,5549.84 L 3482.82,6041.09 L 3482.82,6060 L 3469.6,6056.46 L 3164.43,5529.77 Z " />
</svg>
